<?xml version="1.0" encoding="UTF-8"?>
<svg xmlns="http://www.w3.org/2000/svg" version="1.1" viewBox="0 0 96.3779478 89.4306607">
  <!-- Generator: Adobe Illustrator 28.7.4, SVG Export Plug-In . SVG Version: 1.2.0 Build 166)  -->
  <g>
    <g id="Ebene_1">
      <path d="M61.9107008,18.9476113c.385273,1.3632793.8594589,2.7265606,1.422554,4.0602036.7112732,1.6300068,1.4521866,3.2600174,2.3709183,4.8011189,1.3040085,2.2227402,2.7561951,4.3565674,4.1787567,6.4903984.8298187,1.2150955,1.748558,2.3412895,2.6672897,3.4971085.6223679.8001862,1.2447281,1.6300049,1.9263763,2.4005547.5334549.5927315.9483643,1.3040085,1.6892776,1.6596451h.7409134c.2667313-.2074547.5927353-.3556404.8001862-.622364.770546-.8890915,1.5410995-1.7485542,2.2523727-2.6672859,1.0076447-1.3040085,1.9856415-2.6080093,2.9636536-3.941658,1.9856415-2.6376495,3.7638397-5.423481,5.3049393-8.3574982,1.1261902-2.1338272,2.1634674-4.2972946,2.7561951-6.6682167.2963638-1.2150974.5927353-2.4598312.6816406-3.704565.0889053-1.09655-.1185455-2.1931019-.2074585-3.2896519-.1185455-1.2150974-.5038147-2.3709221-.9780121-3.4971104-1.0076447-2.3116474-2.5190964-4.2676573-4.4751129-5.8383942-1.3040009-1.0372791-2.7265549-1.8078265-4.2676544-2.4005594-1.185463-.4445467-2.430191-.6816387-3.6452942-.8298216-.8001862-.0889087-1.6003723,0-2.4005585,0-1.185463,0-2.3116455.237092-3.4378357.5630927-1.5707321.4741836-3.0821991,1.1558251-4.4158478,2.1338301-1.422554,1.0372796-2.6672821,2.2523761-3.6452942,3.7045646-.7705536,1.1261883-1.3929138,2.3412848-1.8670998,3.6156559-.4149094,1.1558247-.6816368,2.3412838-.8001862,3.5267448-.088913.8001881-.0592728,1.6003723,0,2.4005585.088913.9780045.1778183,1.9560089.4445457,2.9043808l-.0592804.0592651s.0000153.0000057.0000153.0000038ZM75.6916761,7.5671877c5.2752991-.4149122,8.5056763,3.7342024,8.4760437,7.5869493-.0592728,4.2676601-3.4082031,7.4980412-7.4387589,7.6165829-4.4751129.1185493-7.4684067-3.4081993-7.7647629-6.8163986-.4741821-5.1271191,3.6156616-8.1204052,6.727478-8.3871336Z"/>
      <path d="M93.5032301,35.3366017c-1.6003723,0-2.9043808,1.3040085-2.9043808,2.904377v32.0370865c0,1.5114594-.9187393,2.8747482-2.3412857,3.4378357l-21.8717575,8.7131348c-.2074585.0889053-.4149094-.0592728-.4149094-.2667313v-31.7703476c0-1.6003761-1.3040085-2.904377-2.9043808-2.904377s-2.904377,1.3040085-2.904377,2.904377v31.7703476c0,.2074585-.2074547.3556366-.4149094.2667313l-23.8277626-9.4244156s-.1778183-.1481781-.1778183-.2667313V24.9341855c0-.2074547.2074547-.3556404.4149094-.2667294l16.8335419,6.4311275c1.4818268.5927315,3.1711044-.1185493,3.7638397-1.6003761s-.1185493-3.1711063-1.6003761-3.7638397l-19.4119225-7.4684029c-1.7781906-.7112751-3.7342033-.7112751-5.512394,0L4.6529322,28.5498356c-2.8154685,1.1261864-4.6529322,3.8527451-4.6529322,6.8756714v49.9968071c0,2.608017,2.6376514,4.4158478,5.0678444,3.4378357l27.473052-10.846962h.2074547l27.5915947,10.9062424c1.7485542.6816406,3.704567.6816406,5.4827576,0l25.9023132-10.3431473c2.8154678-1.1261902,4.6529312-3.8527451,4.6529312-6.8756714v-33.4596291c0-1.6003761-1.3040009-2.904377-2.9043808-2.904377l.0296402.0000114s.0000229-.0000114.0000229-.0000153ZM29.9625387,72.6193509s-.0889111.2370987-.1778183.2667313l-23.5610313,9.3058624c-.2074547.0889053-.4149122-.0592728-.4149122-.2667313v-45.0475082c0-1.5114632.9187336-2.8747406,2.3116474-3.4378357l21.4272051-8.6242256c.2074547-.0889111.4149094.0592747.4149094.2667294v47.5369778Z"/>
    </g>
  </g>
</svg>