<?xml version="1.0" encoding="UTF-8"?>
<svg xmlns="http://www.w3.org/2000/svg" version="1.1" viewBox="0 0 87.268631 61.6199112">
  <!-- Generator: Adobe Illustrator 28.7.4, SVG Export Plug-In . SVG Version: 1.2.0 Build 166)  -->
  <g>
    <g id="Ebene_1">
      <g id="Ebene_1-2" data-name="Ebene_1">
        <path d="M74.9558945,46.5584526c-13.3391151,14.3043137-36.146595,15.0560303-40.5827141,15.0614586h-.0009041c-.3419342,0-.6250725-.2650452-.6467819-.6060753-.2912788-4.4406433-1.0701332-27.3141594,12.1911888-41.5343475,13.3400192-14.3065767,36.146595-15.0560312,40.5827141-15.0610065h.0009079c.3419342,0,.6241684.2650456.6467819.6060767.2930908,4.4383817,1.0818939,27.3019452-12.1911926,41.5338941ZM1.7870567.0094982C1.7499684.0031661,1.7128801,0,1.6766965,0,1.3772765,0,1.1095172.2085085,1.0443866.5106422c-.6214548,2.8517264-3.3650827,17.6087903,3.6961634,28.0767316,7.0657692,10.4756298,21.7726259,13.4535465,24.648324,13.9447384.0370884.0063324.0741768.0090446.1103611.0090446.2994194,0,.5671787-.2080574.6323109-.5101891.6214542-2.8521805,3.3650818-17.6083374-3.6961632-28.0762768C19.3723278,3.4835842,4.6636596.501144,1.7870567.0094982Z"/>
      </g>
    </g>
  </g>
</svg>