<?xml version="1.0" encoding="UTF-8"?>
<svg xmlns="http://www.w3.org/2000/svg" version="1.1" viewBox="0 0 96.3779501 92.3336906">
  <!-- Generator: Adobe Illustrator 28.7.4, SVG Export Plug-In . SVG Version: 1.2.0 Build 166)  -->
  <g>
    <g id="Ebene_1">
      <g id="Ebene_1-2">
        <g>
          <path d="M74.8500112,31.4519386v-11.7594776h0c-.0933228-11.0439558-16.4881554-19.692461-37.4250031-19.692461S.0933285,8.6485081,0,19.6924629h0v53.1976471h0c.3110985,10.9195099,16.6125997,19.4435806,37.3939031,19.4435806,6.0663986,0,11.7594833-.7466354,16.7681427-2.0532455,3.4220734,1.3066025,7.1241302,2.0532455,11.0128479,2.0532455,17.2036819,0,31.2030563-13.999382,31.2030563-31.2030563,0-13.8438339-9.0840378-25.6033096-21.5901489-29.678688l.0622101-.0000076ZM37.4250082,5.7553015c18.6658401,0,31.6697083,7.4041166,31.6697083,14.0304899,0,1.7732544-.9332886,3.5776176-2.6443253,5.2886562-1.2754974,1.3066082-3.0176392,2.5509968-5.1642151,3.670948-5.6308594,2.9554253-13.9371567,5.0708847-23.8922729,5.0708847s-18.2614098-2.1154633-23.8922749-5.0708847c-2.1154633-1.1199532-3.8576059-2.3643398-5.1642151-3.6709499-1.7110357-1.7110329-2.6443281-3.5465107-2.6443281-5.2886543,0-6.6263733,13.0038691-14.0304899,31.6697092-14.0304899,0,0,.0622139-.0000029.0622139,0ZM8.3996271,32.4163399c6.8130322,4.3864708,17.2036839,7.1552353,29.0253811,7.1552353,1.8665848,0,3.7020607-.0933304,5.506424-.2177658-3.3598518,3.4531822-5.9419594,7.6529922-7.4352226,12.350563-9.3951416-.2799873-17.2347946-2.3954506-22.4923344-5.319767-2.0532417-1.151062-3.7331676-2.3954506-4.9464474-3.7020607-1.4932656-1.6177063-2.3021193-3.3287392-2.3021193-4.9775581,0-1.7732544.9332924-3.5776176,2.6443186-5.2886467ZM8.0574211,50.0866699c6.190836,4.1375961,15.4926481,6.8441429,26.1943922,7.3107872-.1555481,1.2443886-.2488785,2.4887772-.2488785,3.7642746,0,2.7376556.3733177,5.3508682,1.0577316,7.8707657-9.1151524-.3110962-16.7059288-2.3643417-21.8701439-5.1953278-2.0843525-1.1199493-3.7642775-2.3954544-5.008666-3.670948-1.5554867-1.648819-2.4265585-3.3909607-2.4265585-5.0708847s.8088536-3.3598518,2.3021193-4.9775581c0,0,.0000029-.0311165.0000038-.0311089ZM37.4250082,86.6094933c-18.6658401,0-31.6697083-7.4041214-31.6697083-14.0304947,0-1.6799316.8399639-3.4220734,2.4265585-5.0708847,6.7508116,4.479805,17.1725702,7.2796707,29.056489,7.310791,2.1465721,4.4175797,5.3197632,8.2129669,9.208477,11.168396-2.7998734.4044266-5.817524.6222-8.9907112.6222,0,0-.031105,0-.031105-.0000076ZM65.2059988,86.6094933c-14.0304909,0-25.4477615-11.4172668-25.4477615-25.4788666s11.4172745-25.4788666,25.4477615-25.4788666,25.4788666,11.4172745,25.4788666,25.4788666-11.4172668,25.4788666-25.4788666,25.4788666Z"/>
          <path d="M62.0016874,49.620018c2.9865303-1.4932671,7.2485771-1.5865974,10.8261833-.2799873,1.4932632.5599747,3.1420746-.2177658,3.7020569-1.7110329s-.2177658-3.1420822-1.7110291-3.7020607c-5.0708923-1.8665848-10.9506302-1.6799278-15.3682098.497757-3.9509392,1.9599113-6.8441429,5.5375328-8.33741,9.9240074h-2.4576721c-1.5865974,0-2.8620949,1.2754974-2.8620949,2.8620949s1.2754974,2.8620949,2.8620949,2.8620949h1.3688316c0,.3422089-.0622215.6844063-.0622215,1.0266151,0,.528862.0933304.9955139.1244431,1.5243759h-1.4310455c-1.5865974,0-2.8620949,1.2754974-2.8620949,2.8620987s1.2754974,2.8620987,2.8620949,2.8620987h2.6132164c.6844139,1.9288025,1.648819,3.6709518,2.8932076,5.1953201,3.1731949,3.8576126,8.1196442,5.9730606,13.2216339,5.9730606,2.5509949,0,5.1642151-.528862,7.5907745-1.6177063,1.4310455-.6533051,2.084343-2.3643341,1.4310455-3.7953949-.6533051-1.4310455-2.3332291-2.084343-3.7953949-1.4310455-4.8842239,2.208786-10.9195175,1.0266266-14.0304909-2.7687607-.3733177-.4666443-.7155228-.9955139-1.0266228-1.5243759h9.8928986c1.5865936,0,2.8620911-1.2754974,2.8620911-2.8620987s-1.2754974-2.8620987-2.8620911-2.8620987h-11.6039276c-.0311089-.497757-.1244431-.9955139-.1244431-1.5243759,0-.3422089,0-.6844101.0622215-1.026619h11.6661491c1.5865936,0,2.8620911-1.2754974,2.8620911-2.8620949s-1.2754974-2.8620949-2.8620911-2.8620949h-10.1106644c.9955101-1.9599113,2.4887772-3.670948,4.6975708-4.7597923,0,0-.0310974.0000114-.0311012.0000153Z"/>
        </g>
      </g>
    </g>
  </g>
</svg>