<?xml version="1.0" encoding="UTF-8"?>
<svg xmlns="http://www.w3.org/2000/svg" version="1.1" viewBox="0 0 96.3779489 96.3779525">
  <!-- Generator: Adobe Illustrator 28.7.4, SVG Export Plug-In . SVG Version: 1.2.0 Build 166)  -->
  <g>
    <g id="Ebene_1">
      <g id="Ebene_1-2">
        <g>
          <path d="M48.1889726,0C21.5582238,0,0,21.5870475,0,48.1889762s21.5870458,48.1889763,48.1889726,48.1889763,48.1889763-21.5870438,48.1889763-48.1889725S74.7909127.0000081,48.1889726,0ZM48.1889726,91.0748671c-23.6621685,0-42.8858833-19.252533-42.8858833-42.8858871S24.5556222,5.3030933,48.1889726,5.3030933s42.885891,19.2525306,42.885891,42.8858829-19.252533,42.885891-42.885891,42.885891Z"/>
          <path d="M69.3437005,19.6560324l-31.9914856,18.0420494c-1.3257713.7493515-2.3056908,1.9886627-2.7091904,3.429718l-9.7127266,33.9225006c-.3458557,1.2393112.9799194,2.2768707,2.1039429,1.642807l32.0491257-18.1285095c1.3257713-.7493515,2.2768745-1.9886627,2.7091904-3.429718l9.6550865-33.8648605c.3458481-1.2393112-.9799194-2.2768707-2.1039429-1.6428051,0,0,0,.0288277,0,.0288181ZM51.3593026,53.693817c-3.1415062,2.0751228-7.4358597.6052399-9.1651306-2.4209785-1.9310188-3.3432541-.8934555-7.3205757,2.2480507-9.1939507,3.400898-2.046299,7.2917557-1.1528435,9.1363068,1.8733749,2.3345108,3.8043938,1.3545914,7.6952477-2.1904106,9.7127266,0,0-.02882.0288277-.0288162.0288277Z"/>
        </g>
      </g>
    </g>
  </g>
</svg>