<?xml version="1.0" encoding="UTF-8"?>
<svg xmlns="http://www.w3.org/2000/svg" version="1.1" viewBox="0 0 83.2003489 83.0462642">
  <!-- Generator: Adobe Illustrator 28.7.4, SVG Export Plug-In . SVG Version: 1.2.0 Build 166)  -->
  <g>
    <g id="Ebene_1">
      <path d="M83.2003489,43.7930369v3.244091c-1.3952255,2.3266373-3.1230621,2.3981552-4.8051987.2564468-.5450516-.6940117-1.1840515-1.3503647-1.8899231-1.8772202-4.0743637-3.0439262-10.0263748-2.1290169-13.1240387,1.9246178-.4164124.5450516-1.0338287,1.0782585-1.6673279,1.2860374-1.2229843.4015961-2.1438217-.1959305-2.8979263-1.221714-3.4713326-4.7252159-10.3065186-5.0971909-14.2238846-.8163147-.3846703.4202194-.5695992.8459358-.5683327,1.4379616.0198936,8.4034843.0308952,16.8073921.0050812,25.2112999-.0105782,3.4264832-1.4311905,6.2173462-4.300766,8.0856857-1.2314529.8014984-2.7515106,1.1616211-4.1403847,1.7223358h-2.6000099c-.1735039-.0567093-.3440437-.1290741-.5213547-.1684265-3.3109512-.734642-5.6900635-2.6215973-7.1208305-5.6993713-.9237976-1.9872513-.8319702-4.1010284-.8040428-6.2067642.019043-1.4438858,1.0583725-2.5128403,2.4188919-2.5208817,1.3617897-.008461,2.4159279,1.054985,2.4476662,2.4916763.0186195.8370514-.019043,1.6757889.0135422,2.5119934.0634766,1.614006.7532578,2.9237442,2.0871162,3.8369598,1.5814209,1.0829163,3.288105,1.2187576,4.9926682.336853,1.761692-.9115295,2.6533279-2.4260864,2.6558685-4.4065628.0122719-8.4555359.0139656-16.9114914-.0181961-25.3670311-.0016937-.4240265-.258564-.9314156-.5543633-1.2576866-3.9042473-4.2999191-10.7347794-3.9017067-14.2150002.8044624-1.3550243,1.8319397-3.1763802,1.8391342-4.5275936.0181961-2.3185978-3.1251755-6.0709209-4.4607239-9.847374-3.5128059-2.2999754.5776367-4.1056786,1.8497162-5.494977,3.7650185-1.0482092,1.4451599-2.9131575,1.538681-3.9469872.2374077-.2128553-.2682953-.3698549-.5801811-.5526714-.8721733v-3.244091c.0461302-.2090492.1180696-.4164047.1345739-.6275711.531086-6.7238884,2.5551519-12.9717026,6.2050695-18.6406059C13.0588789,14.0896964,22.5482378,7.7123885,34.8001146,5.4978919c1.4265366-.2577133,2.8759193-.3884783,4.3629723-.5844088,0-.7748375-.0059242-1.5289412.0012703-2.2826252.014389-1.5217485,1.0058975-2.6067839,2.3951912-2.6304817,1.4231491-.0236979,2.4603615,1.0744524,2.4764442,2.6313276.007618.7739916.0012703,1.5479898.0012703,2.3059034.1828117.041894.2589836.0698214.3364258.0753231,6.4247017.4392643,12.4588089,2.2144957,17.9834061,5.5127535,11.0191498,6.5787354,17.8031311,16.1679688,20.2080612,28.7880058.2818375,1.4798584.4265594,2.985527.6351929,4.4793472"/>
    </g>
  </g>
</svg>