<?xml version="1.0" encoding="UTF-8"?>
<svg xmlns="http://www.w3.org/2000/svg" version="1.1" viewBox="0 0 70.7867289 90.7086639">
  <defs>
    <style>
      .cls-1 {
        fill: #1a1a18;
      }
    </style>
  </defs>
  <!-- Generator: Adobe Illustrator 28.7.4, SVG Export Plug-In . SVG Version: 1.2.0 Build 166)  -->
  <g>
    <g id="Ebene_1">
      <path class="cls-1" d="M70.7867289,0h-14.7178726L22.0798082,90.7086639h14.7178726L70.7867289,0ZM17.5764132,23.5989094c-.4850731-1.1178665-1.1478081-2.1059761-1.9842091-2.9643364-.8403931-.8543701-1.8085442-1.5310707-2.9064465-2.0261269-1.0979004-.4930611-2.2596817-.7405891-3.4853382-.7405891-1.2915325,0-2.4852505.2475281-3.5831528.7405891-1.0979023.4950562-2.0660534,1.1717567-2.9044514,2.0261269-.8403931.8583603-1.5011301,1.8464699-1.9862032,2.9643364-.4830761,1.1218567-.7266121,2.3075867-.7266121,3.5572014,0,1.3194752.243536,2.5371494.7266121,3.6570072.4850731,1.1198654,1.1458101,2.107975,1.9862032,2.9643402.838398.8563614,1.8065491,1.5310745,2.9044514,2.0241318,1.0979023.4950523,2.2916203.7425804,3.5831528.7425804,1.2256565,0,2.3874378-.2475281,3.4853382-.7425804,1.0979023-.4930573,2.0660534-1.1677704,2.9064465-2.0241318.836401-.8563652,1.499136-1.8444748,1.9842091-2.9643402.4850693-1.1198578.7266083-2.337532.7266083-3.6570072,0-1.2496147-.241539-2.4353447-.7266083-3.5572014M17.5764132,50.9206963c-.4850731-1.1517982-1.1478081-2.1578751-1.9842091-3.0142365-.8403931-.8543701-1.8085442-1.5310745-2.9064465-2.0261307-1.0979004-.4930573-2.2596817-.7405853-3.4853382-.7405853-1.2915325,0-2.4852505.2475281-3.5831528.7405853-1.0979023.4950562-2.0660534,1.1717606-2.9044514,2.0261307-.8403931.8563614-1.5011301,1.8624382-1.9862032,3.0142365-.4830761,1.1537971-.7266121,2.3554993-.7266121,3.6071091,0,1.317482.243536,2.5351562.7266121,3.655014.4850731,1.1218529,1.1458101,2.0919991,1.9862032,2.9144325.838398.826416,1.8065491,1.4831619,2.9044514,1.9782181,1.0979023.4930573,2.2916203.7405853,3.5831528.7405853,1.2256565,0,2.3874378-.2475281,3.4853382-.7405853,1.0979023-.4950562,2.0660534-1.1518021,2.9064465-1.9782181.836401-.8224335,1.499136-1.7925797,1.9842091-2.9144325.4850693-1.1198578.7266083-2.337532.7266083-3.655014,0-1.2516098-.241539-2.4533119-.7266083-3.6071091"/>
    </g>
  </g>
</svg>