<?xml version="1.0" encoding="UTF-8"?>
<svg xmlns="http://www.w3.org/2000/svg" version="1.1" viewBox="0 0 85.2671676 90.7086639">
  <defs>
    <style>
      .cls-1 {
        fill: #1a1a18;
      }
    </style>
  </defs>
  <!-- Generator: Adobe Illustrator 28.7.4, SVG Export Plug-In . SVG Version: 1.2.0 Build 166)  -->
  <g>
    <g id="Ebene_1">
      <path class="cls-1" d="M85.2671676,76.5173798c-2.0503159-1.3408737-4.415123-2.9572296-7.0944214-4.8490753-2.6817398-1.8918457-5.2050171-3.7056808-7.5698242-5.4414978,3.5472107-4.885643,6.2265167-10.268631,8.0427856-16.1416435,1.8113937-5.8730125,2.6792984-11.7679634,2.6012802-17.6799812h-17.9774094c.1584702,4.0201683-.3144913,8.1403008-1.4188843,12.3579445-1.1043854,4.2176514-2.759758,8.1012955-4.9660988,11.6485062v-.1170197c-3.31073-2.5232735-6.6238976-5.1050568-9.9346275-7.7477951-3.31073-2.6402931-6.2289543-5.1026154-8.7522278-7.3918495,4.8100662-3.8617058,8.3377762-7.5868874,10.5855598-11.1755447,2.2477875-3.586216,3.3692436-7.5088749,3.3692436-11.7679672,0-5.5975227-1.9113464-10.0321474-5.7340508-13.3038692C42.5933547,1.6358657,37.0153365,0,29.6844344,0c-4.0226135,0-7.611269.5509801-10.7635326,1.6553679-3.1547031,1.1043873-5.7950001,2.6012917-7.9233265,4.4931316-2.1283283,1.8918486-3.7446842,4.0811214-4.8490744,6.5653906-1.1043892,2.4818287-1.6553669,5.1050587-1.6553669,7.8623734,0,3.5496521.7289476,6.940834,2.1868382,10.1711121,1.4578934,3.235157,3.8446436,6.8213768,7.1553736,10.7635307-4.1786423,3.0742493-7.5283794,6.5239487-10.0516529,10.3466454-2.525713,3.8251381-3.7836928,8.2207565-3.7836928,13.1868515,0,3.1547012.5119686,6.1704407,1.5359063,9.0472183,1.0239372,2.8792114,2.6622372,5.4219894,4.9075851,7.628334,2.2477856,2.2087784,5.085557,3.9616623,8.5157461,5.2635269,3.430191,1.2994232,7.5868893,1.9503555,12.4774094,1.9503555,6.3069649,0,12.0044479-.887413,17.090004-2.6597977,5.0831146-1.774826,9.4787292-4.1591415,13.1844101-7.1553726.9483643.7094421,2.0698166,1.5383453,3.3716812,2.4842682s2.6597977,1.9332886,4.0811234,2.9547882c1.4188843,1.0263748,2.9157791,2.0917587,4.4931335,3.1937103,1.574913,1.1043854,2.9962311,2.0893173,4.2566528,2.9572296l11.3535156-14.1912842ZM32.522203,25.4862862c-1.2628555,1.9308586-2.9182205,3.7641907-4.9685326,5.4975739-2.0015564-2.5208397-3.3521786-4.6881733-4.0445557-6.504446-.6948147-1.8113937-1.0410023-3.4277477-1.0410023-4.8490696,0-1.8113956.5656033-3.3107319,1.6992493-4.4931374,1.1312046-1.1824055,2.5939732-1.774826,4.3907413-1.774826,2.0283699,0,3.5130806.5924206,4.4492493,1.774826.9361725,1.1824055,1.4066963,2.6012878,1.4066963,4.2566547,0,2.1307621-.6314278,4.1615715-1.8918457,6.0924244M37.9027495,72.1168823c-2.3258018.8045273-4.8295708,1.2067871-7.508873,1.2067871-1.8942871,0-3.5496521-.2949905-4.9685364-.8825378-1.4188824-.5875473-2.6427345-1.3725662-3.6666718-2.3501816-1.0239353-.9800491-1.7943268-2.0990677-2.3062954-3.3521729s-.767952-2.5476532-.767952-3.8812103c0-3.4496956,1.930851-6.9774055,5.7949963-10.5855675,1.1824036,1.0263786,2.542778,2.2477875,4.0811195,3.6666718,1.5359077,1.4188881,3.171772,2.8792152,4.907589,4.3761177,1.7333794,1.4993362,3.5082054,2.9962311,5.3220367,4.4931335,1.8113937,1.4993362,3.6666679,2.9572296,5.5585175,4.3761139-1.9722977,1.1507111-4.1201286,2.1283264-6.4459305,2.9328461"/>
    </g>
  </g>
</svg>