<?xml version="1.0" encoding="UTF-8"?>
<svg xmlns="http://www.w3.org/2000/svg" version="1.1" viewBox="0 0 85.0076962 85.0077209">
  <!-- Generator: Adobe Illustrator 28.7.4, SVG Export Plug-In . SVG Version: 1.2.0 Build 166)  -->
  <g>
    <g id="Ebene_1">
      <g>
        <path d="M46.8685131,19.5704117c-2.6625061-.4980946-5.4866295-.532505-8.1650314-.098053-11.3838921,1.8412247-19.6601849,11.5083809-19.77145,23.032692.1112652,11.2408371,8.1517868,20.8656006,19.2071571,22.9346695,2.6651573.4954147,5.4866295.5298538,8.1676826.0953903,11.3812218-1.8412476,19.6601677-11.5084038,19.768795-23.0300598-.1086273-11.2434731-8.1517868-20.8682327-19.2071533-22.934639ZM45.8167477,62.5069885c-1.0861931.1748581-2.1962357.262291-3.3089294.262291-1.2795982,0-2.5618324-.1139374-3.8043365-.3470535-9.6035767-1.7962112-16.5923347-10.1519814-16.7035999-19.9171753.1112652-10.0115585,7.3040218-18.404438,17.1937084-20.00457,1.0835533-.1748619,2.1935959-.2623081,3.3062897-.2623081,1.2822342,0,2.5618324.1165848,3.8043365.3470688,9.6062317,1.7962093,16.5949898,10.1519794,16.7036018,19.9198093-.1086121,10.0089226-7.3040199,18.4017868-17.1910706,20.0019379Z"/>
        <rect x="40.9697218" width="3.0682554" height="15.2557564"/>
        <rect x="40.9697247" y="69.7519646" width="3.0682602" height="15.2557564"/>
        <rect x="69.7519436" y="40.9695969" width="15.2557526" height="3.0682564"/>
        <rect y="40.969593" width="15.2557549" height="3.0682564"/>
        <rect x="59.536966" y="16.3087617" width="15.2557536" height="3.0682566" transform="translate(7.0552985 52.7187772) rotate(-45)"/>
        <rect x="10.2148795" y="65.6308272" width="15.2557555" height="3.0682528" transform="translate(-42.2667715 32.2888941) rotate(-45)"/>
        <rect x="65.6308185" y="59.5369957" width="3.0682528" height="15.2557536" transform="translate(-27.8205799 67.1649237) rotate(-45)"/>
        <rect x="16.3087339" y="10.2149053" width="3.0682566" height="15.2557536" transform="translate(-7.3906989 17.8428387) rotate(-45)"/>
      </g>
    </g>
  </g>
</svg>