<?xml version="1.0" encoding="UTF-8"?>
<svg xmlns="http://www.w3.org/2000/svg" version="1.1" viewBox="0 0 90.620183 77.7180587">
  <!-- Generator: Adobe Illustrator 28.7.4, SVG Export Plug-In . SVG Version: 1.2.0 Build 166)  -->
  <g>
    <g id="Ebene_1">
      <path d="M90.6156573,17.4652092c0-4.8495655-.0003204-9.6994553-.0035477-14.5493431-.0009689-1.3949566-.7816162-2.1978884-2.1413727-2.2024107-5.7984848-.0216398-11.7268066-.0222855-18.1228027-.0022602-1.4382401.0045214-2.1707611.7596521-2.1772232,2.2443972-.0080719,1.8833046-.006134,3.7672558-.0041962,5.6505604l.0016174,2.4630547-.0003281.6430569.0003281,1.254137h-10.883831l-.2270546-.5367966c-1.845192-4.3638-4.9962006-6.0223103-9.6358261-5.0633793l-.8920746.1837769-.1521263-.8978882c-.5222588-3.0776892-2.0790291-5.0788822-4.7594528-6.1179132-2.6148567-1.0144844-5.1628571-.5823355-7.5742378,1.2819128l-.5535889.4282742-.541317-.4437771C30.9157786.1349956,28.2401996-.3911408,25.7900634.3937036c-2.4972916.8003483-4.354435,2.8309326-5.0956764,5.5711069l-.2341614.8662357-.8613911-.2522488c-2.2301865-.6530685-4.2998524-.4289188-6.1524734.6656647-1.8913784,1.1188068-3.0679998,2.7895908-3.597044,5.1082745l-.1559992.6837502h-.7011929c-.6281986,0-1.2528448.0064602-1.8752298.0132427-1.4188576.0151806-2.8855162.0303612-4.3302116-.0368195-1.4259629-.0620117-2.2724972.3853168-2.7866836,1.5050926v14.7912579c.517416,1.1391525,1.3594284,1.5903587,2.7692423,1.5015373,1.0965219-.0675011,2.1978889-.0529671,3.26405-.0397263.4631557.0061378.9217892.0164719,1.3888197.0116272h2.3148079l.0006456,44.3915329c0,1.8765182.6585598,2.5418625,2.5173168,2.5418625,10.6722755.0019379,21.3451958.0025864,32.0190849.0012894,1.9052658-.0006409,2.5489693-.6556473,2.5499382-2.5954742l-.0006485-3.5967178c-.0019379-3.3157272-.0041962-6.7444992.0248718-10.1190109.006134-.7028046.298111-1.487648.7441483-1.9986115l2.4507828-2.8151016c3.333168-3.8324966,6.7800255-7.7954788,10.2846947-11.5963249,2.4204254-2.6245461,2.8092957-6.0197258,1.0400009-9.0809441-.4986801-.8626823-.9657135-1.7586365-1.4175644-2.6248703-.2096176-.4017906-.4202003-.8058395-.6362724-1.2111816l-.6889191-1.292572h9.5431328l-.001297,5.4923019c-.0012894,2.7937889-.0029068,5.5875778.0038757,8.3813667.0035553,1.5199509.74189,2.2679749,2.2569962,2.2847672,1.7201996.0206718,3.4413681.0161514,5.1628571.0109825.8316803-.0012894,1.6649704-.0025826,2.4940643-.003231h.0022583c.7942123,0,1.3994827-.2603226,1.9052658-.8190804,3.3086243-3.6567955,6.6240311-7.3071289,9.943634-10.9532661.4676743-.5132179.6850433-1.078434.6843948-1.7789803-.0041962-5.3120766-.0041962-10.6241531-.0045242-15.9362259ZM9.6920257,26.7037689h-5.6195536v-9.621294h5.6195536v9.621294ZM46.4137187,14.5296299c.0287437-1.9614658,1.4937897-3.4313526,3.4132652-3.4313526h.0313301c1.9046211.0155029,3.3544846,1.476347,3.3719254,3.3977642.0200272,2.1426582.0161514,4.2856388.0119514,6.4941864l-.003231,4.3166447-2.5199013-1.4559975c-1.2257118-.7060394-2.3832779-1.372673-3.5305099-2.0690193-.4960976-.3032799-.7615891-.9653931-.7690163-1.4634304-.0303612-2.1035767-.032299-3.9972172-.0058136-5.7887955ZM35.5386119,17.6531841c-.0038757-3.4058399-.0074272-6.8113556.0164719-10.2168713.0138893-1.9042988,1.3897896-3.3273535,3.2708321-3.3838758.9721756-.0303602,1.8716774.3074789,2.5386353.9466591.6298141.6033297.9834785,1.4272547.9957504,2.3202982.0381126,2.8131676.0306816,5.6289196.0235786,8.3519764-.0029068,1.0629311-.0054932,2.1135902-.0054932,3.1468067v.5758762l-5.4096146,2.3567963-.4189072.3210411-.4906082-.2419128c-.3830566-.188942-.489315-.5587578-.512249-.8261852l-.100769-.5077267.094635-.0410194-.0022621-2.8018627ZM25.7254672,4.9603378c.6256161-.613019,1.465044-.9272795,2.432373-.9085464,1.6032791.0306835,2.901989,1.0910311,3.2311058,2.6377888.1114273.5222607.1272545,1.0396767.1285477,1.4321003.0061378,2.5951557.0058136,5.1899872.0051689,7.7844963l-.0003242,2.2230816.0012932,3.0453911c.0016136,2.3813419.0032272,4.7623615-.0067825,7.1433811-.0048447,1.1404457-.4008217,2.1442719-1.1159019,2.8260841-.6104355.5823364-1.4259644.8982124-2.3112564.8982124-.0536156,0-.1072273-.0012932-.1614914-.0035515-1.5826073-.0684738-2.8590298-1.1494904-3.1765194-2.6901131-.0739632-.3581848-.1117516-.748024-.1127205-1.158535-.0054913-6.7616158-.0087223-13.5222607-.0006466-20.2822609.0016155-1.2334671.3775654-2.2524719,1.0871544-2.9475288ZM13.7657905,21.0790474l.0012913-2.9494667-.0022602-1.2974148c-.0025845-.9815407-.0054913-1.9634056.0054893-2.944622.023901-2.1187572,1.4663372-3.6577644,3.4297409-3.6597023h.0038757c1.9588814,0,3.3929195,1.5390072,3.4106827,3.6609936.0138874,1.6933918.0109806,3.3871059.0080738,5.0804977l-.0058136,3.0101852c.0009689.4515305.0025845.9030571.0042,1.354908.0058136,1.7205238.0119495,3.4995041-.0151806,5.2532921-.0164719,1.0916786-.4424839,2.044796-1.1992302,2.6830063-.6013908.5074043-1.3594284.7735405-2.1791553.7735405-.1996021,0-.4024353-.0158272-.607851-.0474777-1.6966209-.2629051-2.8415909-1.7088928-2.8486958-3.5986595-.0083981-2.4398003-.0067825-4.8792801-.005167-7.3190804ZM42.7591853,73.652343H13.7822623v-5.7606964h28.976923v5.7606964ZM57.5042529,42.0757438l-3.6787567,4.1683998c-3.3883972,3.8415413-6.7771187,7.6830788-10.1794052,11.5123482-.6107597.6879501-.8701134,1.3836517-.8410454,2.2550583.0213165.6459579.0164719,1.292572.0113068,1.9630814-.0025864.2990799-.0048447.6033249-.0048447.9146805v.879158H13.8061633v-28.1268387l.997366.1353302c3.7624092.5106354,4.3802738.3843498,7.3549328-1.4983101l.4579868-.2897148.464447.2787323c5.0449696,3.0276299,7.8119526,2.4627342,11.8398533-2.4165459l.6039734-.7315521.6834297.6579132c1.9156036,1.8432541,4.2013397,3.0718765,6.6214409,4.3725204.8849678.4754295,1.8002968.9673309,2.6862373,1.4876518.4560471.2687225.9104843.2241516,1.2105331.1395302.5264587-.1476021,1.0012436-.535183,1.2699623-1.0364494.5209694-.9721718.2021866-2.0961494-.758358-2.6726685-1.4392052-.8639755-2.9239502-1.7153549-4.3596039-2.5386353-.6210938-.3562469-1.2425079-.7124977-1.8623123-1.0710068l-.158905-.0884972c-.1156273-.0633049-.2306099-.1272545-.3410683-.1973419-1.622982-1.0309563-2.1475029-2.9853172-1.2218399-4.5462837.919529-1.5516052,2.8477287-2.0357513,4.4881516-1.1249466.6947327.3862877,1.3771896.7974434,2.0590057,1.2089195,1.1943855.7208939,2.3225594,1.401741,3.5246964,1.9556541,3.3121719,1.5270538,5.5568924,3.8602715,6.862709,7.1327209.2819595.7070045.6676025,1.3813896,1.0755272,2.0951805.2373886.4150314.4744606.8303833.6924706,1.2538109.7993813,1.5506363.6659889,2.6155052-.4925461,3.9281006ZM68.1057925,26.6281921h-10.7985573v-9.5363503h10.7985573v9.5363503ZM86.5780673,31.7174103c-.0029068.6918259-.3029556,1.4757004-.7648163,1.9973145-1.4072342,1.5851936-2.832222,3.1535912-4.2572174,4.7219887-1.0823135,1.1911545-2.1649475,2.3826332-3.2391815,3.5808945-.5703888.6369209-1.2147369.937294-2.0170212.937294-.051033,0-.1030273-.0012932-.1553497-.0038757-.6856918-.0310097-1.3713837-.0239029-2.0984116-.0180893-.3113556.003231-.6249695.0064583-.9421387.0064583h-.879158V4.7830211h14.3765488l.0006485,6.2861862c.0012894,6.8827343.0025864,13.7657909-.0239029,20.6482029Z"/>
    </g>
  </g>
</svg>