<?xml version="1.0" encoding="UTF-8"?>
<svg xmlns="http://www.w3.org/2000/svg" version="1.1" viewBox="0 0 96.3779521 96.2025185">
  <!-- Generator: Adobe Illustrator 28.7.4, SVG Export Plug-In . SVG Version: 1.2.0 Build 166)  -->
  <g>
    <g id="Ebene_1">
      <g id="Ebene_1-2">
        <path d="M93.7728616,82.289875l-22.8502655-21.1726494c-1.9668579-1.8222351-4.5989761-2.4585724-7.0575485-1.9668579,5.2063904-6.2476654,8.3302231-14.2886467,8.3302231-23.0527344-.0000076-19.9288998-16.1687393-36.0976334-36.0976372-36.0976334S0,16.1687317,0,36.0976295s16.1687318,36.0976334,36.0976335,36.0976334c8.1277504,0,15.6191673-2.6899719,21.6354408-7.2021713-.7231102,2.776741.0289268,5.8138046,2.2850304,7.8963623l22.8502693,21.1726532c1.5329895,1.4462204,3.4998474,2.1404114,5.4667053,2.1404114,2.1693268,0,4.3097382-.8677292,5.9005737-2.5742722,3.0081406-3.2684555,2.8345871-8.3302231-.4338684-11.3672867,0,0-.028923.0289078-.028923.0289154ZM36.0976373,66.7864037c-16.8918419,0-30.6598492-13.7680092-30.6598492-30.6598511S19.2057954,5.466701,36.0976373,5.466701s30.6598511,13.7680078,30.6598511,30.6598477-13.7680092,30.6598549-30.6598511,30.6598549Z"/>
      </g>
    </g>
  </g>
</svg>