<?xml version="1.0" encoding="UTF-8"?>
<svg xmlns="http://www.w3.org/2000/svg" version="1.1" viewBox="0 0 82.8384399 96.3779926">
  <!-- Generator: Adobe Illustrator 28.7.4, SVG Export Plug-In . SVG Version: 1.2.0 Build 166)  -->
  <g>
    <g id="Ebene_1">
      <path d="M56.012146,32.6129131h-.0280762c-2.1629639,0-4.2977905,1.0112305-5.6742554,2.6123657-1.3764038-1.6011353-3.5393677-2.6123657-5.6742554-2.5842896-3.904541,0-6.9382935,3.0056763-6.9102173,6.8259277,0,4.7191772,4.2978516,8.5675659,10.8709717,14.2698975l1.7697144,1.7416382,1.7696533-1.7416382c6.5450439-5.7304077,10.8428955-9.5787964,10.8148193-14.2979736,0-3.8483887-3.0338135-6.8259277-6.9383545-6.8259277Z"/>
      <path d="M78.2877808,29.1016235h-.0280762c-2.9494629-4.213562-6.9663696-7.5844116-11.9664917-10.0001831-4.1854858-2.022522-8.7641602-3.1461182-13.6237793-3.4551392v-4.4101562c0-6.2079468-5.0281982-11.236145-11.236145-11.236145H11.236145C5.0281982,0,0,5.0281982,0,11.236145v73.9057026c0,6.2079468,5.0281982,11.236145,11.236145,11.236145h30.1971436c6.2079468,0,11.236145-5.0281982,11.236145-11.236145v-13.9047241c5.8146973-.1404419,8.9046021-1.2078857,13.7080688-3.5675049,5.000061-2.4438477,9.0169678-5.8146973,11.9384155-10.0563354,3.0056152-4.3259277,4.522522-9.1293335,4.522522-14.2698975,0-5.1405029-1.5449829-9.9158936-4.5506592-14.2417622ZM19.9160767,3.8764644h12.7810669c.4213867,0,.7865601.617981.7865601,1.3483276,0,.0048218-.0007935.0092773-.0008545.0140381.000061.0047607.0008545.0092773.0008545.0140991,0,.7303467-.3651733,1.3483281-.786499,1.3483281h-12.7811279c-.4213257,0-.786499-.617981-.786499-1.3483276,0-.0046387.0008545-.0089111.0008545-.0135498-.000061-.0049438-.0009155-.0096436-.0009155-.0145874,0-.7303467.3651733-1.3483276.7865601-1.3483281ZM26.3206787,93.4284687c-1.4887695,0-2.7247925-1.2078857-2.7247925-2.7247314,0-1.5169067,1.2078857-2.7247925,2.7247925-2.7247925,1.5168457,0,2.7247314,1.2078857,2.7247314,2.7247925,0,1.5168457-1.2078857,2.7247314-2.7247314,2.7247314ZM47.6412354,85.0575581H5.0562744V9.8878174h42.5568848v5.7584839c-3.4551392.2247314-6.7978516.8989258-10.0001831,2.0505981-3.9607544,1.4326172-7.4439087,3.3708496-10.3652954,5.8428345-2.9495239,2.4719238-5.3372192,5.4776001-7.0787964,8.904604-1.7977905,3.5112915-2.6966553,7.2192383-2.6685791,11.0957031,0,4.4382935,1.1798096,8.6518555,3.4550781,12.5001831,1.7977905,3.0337524,6.8821411,7.8372192,6.9945068,7.949585.1685791.1404419-.1685181.6460571-.1685181.6460571-1.7977905,3.0056763-4.0450439,5.0562744-4.6630249,5.6461792-2.0224609,1.7697144-1.1516724,4.4663696,1.1517334,5.4776001,3.8764648,1.713562,8.9888916,1.1236572,13.0057983.1685791,1.6854248-.3932495,3.1461182-.9550781,4.6630249-1.7977905.6460571-.3651733,1.2921753-.7584229,1.882019-1.1798096.2528687-.1965942,1.7416382-1.4606934,2.2753296-2.0224609.4775391.0842285,1.0112915.1404419,1.5449829.1965942v13.9328003ZM74.0180664,55.1132183l-.0561523-.0280762c-2.4439087,3.5394287-5.7866211,6.3203735-9.9721069,8.3709755-3.5112915,1.713501-7.2753906,2.6685791-11.3203735,2.9494629-.8146362.0561523-1.6292725.1404419-2.4719849.1404419h-.0842285c-.618042,0-1.5449829-.0561523-2.500061-.1123657-1.1517334-.0842896-2.3596191-.1966553-3.2022705-.2808838-2.4157715,2.5-7.022583,6.2079468-14.0452271,6.2079468-1.9663086,0-2.9494629-.1966553-3.427002-.3651733-.2247314-.0842896-.2528076-.3370972-.0842896-.5056152.8427124-.7584839,3.1742554-2.9495239,5.0843506-6.1237183,2.022522-3.3708496,1.1517334-3.7640991,1.1517334-3.7640991-3.2022705-2.1348877-5.7585449-4.7472534-7.6124878-7.8652954s-2.7809448-6.4888916-2.7809448-10.0844116c0-3.118042.7022705-6.0956421,2.1629639-8.9327393,1.4606934-2.8371582,3.3989258-5.2810059,5.8427734-7.331604s5.3652954-3.7078857,8.7642212-4.9157715c2.6123657-.927002,5.3371582-1.5169067,8.1742554-1.713562.8146362-.0561523,1.6573486-.1123657,2.500061-.1123657h.0561523c.8427124,0,1.6573486.0842896,2.500061.1405029,4.0169067.2808838,7.7810059,1.2359619,11.2642212,2.9213867,4.213562,2.0505981,7.5562744,4.831543,10.0001831,8.3428345,2.4438477,3.5112915,3.6798096,7.3596191,3.7078857,11.5170288,0,4.1573486-1.2078857,8.0057373-3.6517334,11.5451012Z"/>
    </g>
  </g>
</svg>