<?xml version="1.0" encoding="UTF-8"?>
<svg xmlns="http://www.w3.org/2000/svg" version="1.1" viewBox="0 0 59.4688187 90.7086572">
  <!-- Generator: Adobe Illustrator 28.7.4, SVG Export Plug-In . SVG Version: 1.2.0 Build 166)  -->
  <g>
    <g id="Ebene_1">
      <path d="M59.2888718,53.295144c-.1323929-1.9859314-.4714203-3.9119949-1.2784576-5.6403198-.2233963-.5330009-.4635544-1.0341911-.7375793-1.4714012-1.2134552-1.9339294-3.1549149-3.3146744-5.7843475-4.1179428-.0208664-.0065002-.0920258-.0225792-.1607895-.0383148-.1081085-.0379753-.2032089-.0824471-.3140564-.1190529-.1269226-4.363575-.6941376-23.3864403-.9880066-25.9019547-.5829468-5.004343-2.0499039-8.4124136-4.3598099-10.1297913-1.4519043-1.07969-3.2226486-1.4717445-5.1097107-1.1344271-3.2335968.5757666-4.7197113,3.7364931-5.4196625,7.7490683-.0714989-.6982403-.1320534-1.2202959-.1772118-1.4960346-.8169518-4.9721842-2.4412766-8.3084126-4.8284988-9.9156322-1.5004807-1.0092158-3.2842293-1.3184805-5.1562386-.8949523-5.4689255,1.2384276-5.5927658,9.2437339-5.2048187,18.7926269.1895256,4.6807098.4823723,10.9652157.7280045,16.0797176.1775551,3.6954422.2918167,6.0542679.4177132,7.6060677-.675663-.4060822-2.0978012-1.215847-3.0799904-1.463192-.8220825-.206974-1.583271-.3927383-2.3078537-.3927383-1.7067719,0-3.531229.949688-5.4251347,2.8223839-1.8939056,1.8733788-2.8545418,3.7488098-2.8545418,5.5736084,0,.5364227.1375275,1.2699013.4201069,2.2414856.2483692.851162.6287937,1.8884315,1.1306648,3.0858078-2.956831.6924248-5.1695805,1.9500122-6.5811138,3.7426529-1.4717445,1.8720131-2.2175388,4.536335-2.2175388,7.9204597,0,3.0146484.7136345,6.0005569,2.1210632,8.8742599,1.4033241,2.8654861,3.5353355,5.6201324,6.333086,8.185936,2.454277,2.3372726,5.4278698,4.1846542,8.8386784,5.4915009,3.4046516,1.302742,6.9666672,1.9636917,10.5865059,1.9636917,9.1770248,0,16.8190155-3.1651764,22.7142029-9.4106827,5.8893738-6.240036,8.8752823-14.3657608,8.8752823-24.1500244,0-1.387928-.0643158-2.6653557-.1799469-3.8528061ZM32.9510765,56.374791c1.1973763.2189484,2.4672775.3776855,3.7860985.4707413-.8391876.6007385-1.6588783,1.2699013-2.446064,1.9979057-.8795586.8128471-1.7344818,1.7146378-2.5476723,2.6875992-.2818947-.9989548-.6267395-2.0239067-1.0283737-3.0557022-.3889771-.9934807-.8268738-1.9992752-1.3058243-3.0009651,1.1340866.3776855,2.3211975.6801071,3.5418358.9004211ZM38.9660034,23.305354c.0314751-3.3998604.124527-13.7479153,2.3755913-14.1488647.874424-.1566849,1.3410606.0889482,1.6489563.3181601,1.2247429.9106894,2.1662254,3.4805975,2.5822258,7.050828.223053,1.9168262.6934509,16.6062222.9182129,24.1739712-2.4009094-.5357399-4.9715004-.9886894-7.3566704-1.3506393-.0721855-3.0037003-.2210007-10.1458702-.1683159-16.0434551ZM25.9652481,4.557886c.8655319-.1963692,1.3410606.0253162,1.6612701.2408438,1.2651138.8518467,2.3249588,3.3752289,2.9072266,6.9221954.2798424,1.7071152,1.3957977,16.0027428,2.2004318,26.8020401-.7786369-.0807381-1.4337692-.1399231-1.8870621-.1710548-2.3003273-.1587372-4.1737061.034893-5.6735039.5661888-.2644501-5.4080276-.6794243-14.0896797-.9236908-20.1230812-.3701591-9.1055222.2073174-13.8957062,1.7153282-14.2371321ZM13.4803925,47.0291108c.9147949-.9517403,1.7399559-1.4341125,2.4532509-1.4341125.9168472,0,1.9151154.4693718,2.9677773,1.3957977,1.0892677.9572144,2.2182236,2.4036446,3.3574371,4.3016548,1.5682182,2.5658035,2.8955956,5.2109756,3.9448357,7.8629875,1.2989807,3.2787514,1.5719833,4.5336037,1.5719833,5.0084419,0,.6157913-.2374229,1.178215-.7252655,1.7173767-.4796333.5309525-.9862938.7895813-1.548378.7895813-.8025818,0-1.9397469-.6171646-3.3796768-1.8350601-1.483036-1.256218-3.0847778-3.0310669-4.7635002-5.2848701-1.6061935-2.0649567-2.9024353-4.0382309-3.8524666-5.8637161-.9366875-1.7967453-1.4115334-3.1487541-1.4115334-4.0197563,0-.7964249.46595-1.684536,1.3855362-2.6383247ZM47.2001801,77.8276452c-4.9930534,5.5243454-11.2789307,8.3255157-18.6828079,8.3255157-4.0296783,0-7.7552261-.8183212-11.0733223-2.431694-3.31707-1.6092682-6.1346645-3.9451752-8.3758087-6.9461441-1.4823494-1.9376907-2.6284084-3.8918076-3.4063606-5.8076096-.7717934-1.9007492-1.1631641-3.6427536-1.1631641-5.1795044,0-1.8870621.5514774-3.5442276,1.6373253-4.9249725,1.0687428-1.3588486,2.2387486-2.0471687,3.4778614-2.0471687.3643436,0,1.0502682.2216835,2.2414856,1.2781105,1.0037422.8908463,2.2873268,2.3304367,3.8155212,4.2790756,1.3376389,1.6818008,2.4012489,3.2089615,3.1607285,4.5377121.9223213,1.6147461,1.1166382,2.3769608,1.1166382,2.7327499,0,.394104-.2504234.7936859-.7447662,1.1877975-.5230827.4187393-1.0991898.6226349-1.7615089.6226349-2.0410118,0-4.3303909-1.7283249-6.80793-5.1425552-.9472942-1.2521133-1.7098503-2.2319031-2.2681694-2.9120178l-.2346859-.2860031-.2620544.2627411c-.2730007.272316-.4673176.6034775-.5781612.9825287-.1053696.3612671-.1587372.7745285-.1587372,1.2261124,0,2.3660126,1.3034286,4.7990799,3.8736782,7.2307739,2.5637493,2.4275894,5.1394749,3.6578064,7.6532764,3.6578064,1.6277466,0,3.0502281-.5460052,4.2263908-1.624321,1.1891632-1.0837936,1.7919579-2.4057007,1.7919579-3.93013,0-.2531586-.0307884-.5911636-.0906601-1.0016861-.0331841-.2367401-.076973-.4789505-.1303444-.7252655.1830292.046524.355793.0848389.5186348.1149445.6520576.124527,1.4874802.1518936,2.1299591-.1053696.1450539-.0588455.29216-.1341095.4392662-.2244186.0157356,3.1077042.5254784,5.6379242,1.5169029,7.5208817.9548225,1.817955,2.2548294,2.8798599,3.8750458,3.1172791,1.1676102.171051.9014511-1.3068466.895977-1.3684311-.0338669-.372551-.2032127-1.1737671-.9093208-3.2883301-.5843201-1.7515869-.8805847-3.2664413-.8805847-4.5034943,0-2.0156937.6948204-4.1914978,2.0673523-6.4658279,1.3810883-2.2880096,3.2339401-4.2941284,5.5048447-5.9595032,1.0482178-.749897,2.6034355-1.5271645,4.622551-2.3085403,1.9698563-.7608452,3.2825165-1.4436913,4.0214691-2.0546951.7406616-.6123734-.120079-1.9534302-.490242-2.4118538-.3937683-.4871597-.9202652-.7348442-1.5654831-.7348442h-2.3769608c-2.4282761,0-4.8048935-.0834732-6.9844589-.2466583l.0006828-.0174484c-3.4101219-.1614761-10.6340561-1.6557999-11.1916924-5.2431335l-.037632-.2367363c-.1662636-1.0502701-.3947906-2.4891701.1943169-3.1330147.2962646-.3229485,1.3540611-1.0475311,4.732708-.8176346,2.3926964.1648941,12.7722282,1.3506393,18.8713112,3.2671242.2418671.0759468.4707413.1556587.6931076.2374229.9500351.4317398,1.7125854.8785324,2.2702255,1.3410606.8251648.6438446,1.428978,1.7043762,1.7953796,3.1508064.3783722,1.4997978.5696106,3.5497017.5696106,6.0936127,0,8.3405685-2.5363846,15.3756638-7.5393524,20.9123154Z"/>
    </g>
  </g>
</svg>