<?xml version="1.0" encoding="UTF-8"?>
<svg xmlns="http://www.w3.org/2000/svg" version="1.1" viewBox="0 0 59.9950104 56.3203125">
  <!-- Generator: Adobe Illustrator 28.7.4, SVG Export Plug-In . SVG Version: 1.2.0 Build 166)  -->
  <g>
    <g id="Ebene_1">
      <g>
        <path d="M26.1843262,16.656189c3.4526672,0,6.9057007,1.3125,9.5353851,3.9414062.2837982.2852173.4952087.6094055.6667938.9491882.0253143.0508118.0549011.093811.0776978.1446228.1499176.3358765.2428131.6835938.2884064,1.0390015.0071106.0546875.0110931.1094055.0157013.164093.0304871.3710938.0134125.742218-.0675049,1.1054993-.0039825.0155945-.0111084.0350952-.0151978.0506897-.1523743.6407166-.4665833,1.2500305-.9658966,1.75-1.4332886,1.4375-3.7648773,1.4375-5.2016907,0-1.4875946-1.4881897-3.5561981-2.0467834-5.482193-1.6795959h-.0007019c-.4013977.0741882-.7958069.1914062-1.1781006.3475952-.729126.3008118-1.4125977.7421875-2.0036926,1.3320007l-5.7514343,5.75c-.0016785.0039978-.0036011.0039978-.0052795.0079041l-6.9530945,6.9530945c-2.387207,2.3867188-2.387207,6.273407,0,8.6640015,2.3134766,2.3125,6.3511658,2.3125,8.6647034,0l5.2879028-5.2890015c2.2250671,1.523407,4.736969,2.5390015,7.3966675,3.0078125l-7.4828796,7.4804993c-2.6278076,2.6288757-6.0818176,3.9453125-9.5340881,3.9453125-3.45224,0-6.9062195-1.3164368-9.5342102-3.9453125-5.2554932-5.257782-5.2554932-13.8085938,0-19.0664062l12.7098999-12.7109985c2.6277771-2.6289062,6.0801086-3.9414062,9.5328064-3.9414062h0Z"/>
        <path d="M59.9950104,13.4842834c0,3.6016235-1.4027863,6.9883118-3.9496002,9.531311l-2.3298035,2.3358765c-.0030975.0039368-.0067902.0039368-.0096893.007843l-10.3703918,10.3671875c-2.5470123,2.5469055-5.9328308,3.9491882-9.5341949,3.9491882-3.6011963,0-6.98703-1.4022827-9.532135-3.9491882-1.4371948-1.4375-1.4371948-3.765625,0-5.2030945,1.4368286-1.4336243,3.7683105-1.4336243,5.2015991,0,2.313324,2.3163757,6.3496094,2.3163757,8.6629181,0l10.3688049-10.3633118c.0027924-.0039062.0046997-.0078125.0078888-.0117188l2.3314209-2.3320007c1.1582794-1.1562805,1.7960815-2.695282,1.7960815-4.3320923,0-1.6366882-.6378021-3.1756897-1.7944031-4.3319702-2.3116913-2.3125305-6.3475952-2.3164368-8.6629028,0l-5.2926788,5.2929688c-2.2669067-1.546875-4.7926178-2.5469055-7.3997955-3.0039062l7.4906769-7.492157c2.545105-2.546936,5.9311066-3.9492188,9.5323029-3.9492188,3.603302,0,6.9889984,1.4022827,9.5343018,3.9492188,2.546814,2.546875,3.9496002,5.9335632,3.9496002,9.5350647h0Z"/>
      </g>
    </g>
  </g>
</svg>