<?xml version="1.0" encoding="UTF-8"?>
<svg xmlns="http://www.w3.org/2000/svg" version="1.1" viewBox="0 0 87.4969965 87.6077999">
  <!-- Generator: Adobe Illustrator 28.7.4, SVG Export Plug-In . SVG Version: 1.2.0 Build 166)  -->
  <g>
    <g id="Ebene_1">
      <g>
        <path d="M62.4327649,18.7268421c-.3368988.0697937-.5241394.0986519-.7060089.1476479-2.5079727.6764851-5.0159492,1.3570004-7.523922,2.0341606-5.6125717,1.5147152-11.2244759,3.0301037-16.8383865,4.5387821-.8905754.2395897-1.7905464.5919247-1.8563156,1.6079979-.1093941,1.6918945-.0295296,3.3958702-.0295296,5.1756783,9.0366211-2.4469032,17.9920387-4.8716583,26.9541626-7.2984238v-6.205843ZM62.4515637,44.3280288v-15.070652c-2.4965668.6738052-4.9380989,1.3314972-7.3782883,1.9918785-6.178997,1.6717644-12.3539658,3.3609695-18.541687,4.9991722-.8496361.2254944-1.1811676.5187721-1.1744576,1.4784737.0516777,7.0977592-.0704689,14.1975288.0530205,21.2939491.1241531,7.0863495-8.2285957,11.8962555-14.5055771,8.8245468-3.8958454-1.9073257-5.3072128-6.2615433-3.3710327-10.1976585,2.2603302-4.5958252,8.0500774-6.9044762,12.8754272-5.1347351.2362328.0865746.478508.1583862.8288345.2738152v-1.1281509c0-7.8796082-.0013466-15.7592239.0006676-23.6388359.0006714-3.4938469,1.6737709-5.6508274,5.0676231-6.5716,8.0285988-2.1784554,16.0551872-4.3642941,24.0831146-6.5461025,2.8972244-.7878914,5.3481522.4040184,6.0769882,2.9797726.122139.4301872.1624146.8972855.1630859,1.3476086.008049,10.5479813.0261688,21.0966377-.0046997,31.644619-.0134201,4.6119308-3.8294144,8.6352921-8.6849594,9.313797-3.0421829.4254913-5.7904167-.1583862-7.9802818-2.4207306-2.6723938-2.7589722-2.7133331-6.8944054-.1885834-10.1667862,2.8193741-3.6549187,7.7299538-5.0629234,12.088871-3.4676704.1771774.0644226.3583755.1181145.5919342.1952896"/>
        <path d="M14.5850457,21.72882v-8.7379723c0-3.4817686.0140934-6.9642038-.0080547-10.4459734-.006712-1.0630484.2395897-1.9402056,1.3073406-2.3784466,1.0288258-.4221325,1.813364.0087247,2.5301208.7315278,1.947588,1.9643579,3.9126263,3.910605,5.8622265,5.8729606.7127285.7167559.9268169,1.5549793.471796,2.4952183-.3939457.8140707-1.2791519,1.2959318-2.1918755,1.0744658-.475153-.1154366-.9509754-.4147549-1.3180771-.7503147-.8040009-.7342052-1.5388775-1.5442467-2.5032749-2.5294466v1.3368673c-.0013428,6.5085144.0140934,13.0170345-.010067,19.5255489-.0140934,3.7931671-1.9086647,6.5098572-5.1535263,8.2379913-3.4045887,1.8140335-6.9272938,2.0402031-10.2882595-.129528-3.5213633-2.2737503-4.2877817-6.7044792-1.9227567-10.4003372,2.529449-3.9528923,7.8051181-5.7870636,12.2600083-4.2602654.270462.0926151.5368958.1986504.9643993.3577042"/>
        <path d="M81.2440442,57.0786964v1.3355255c-.0013504,6.5091858.0140915,13.0177002-.0093994,19.5262146-.0140915,3.7925034-1.9093323,6.5098648-5.1535263,8.2379913-3.4045944,1.8140411-6.9272919,2.0402069-10.2882614-.1295242-3.5220337-2.2730789-4.2877808-6.7038116-1.9227524-10.4003372,2.5287781-3.9528885,7.8044434-5.7870636,12.2593384-4.2602615.2697906.0926132.5355453.1979752.9107056.3375702.0208054-.4221344.0516739-.7623901.0516739-1.1019745.0033569-5.9884033.0120773-11.9761276-.0060425-17.9638557-.0033493-1.0872116.1879196-2.0187263,1.3073425-2.476429,1.1274872-.4610596,1.9180603.1060371,2.6697159.8677559,1.8972549,1.9220886,3.8193436,3.8200111,5.7226257,5.7360573.712738.7174263.9274902,1.5556564.4724808,2.4958954-.3939514.814064-1.2791595,1.295929-2.1918793,1.0744629-.4751511-.1154327-.9509735-.4147568-1.3187485-.7496414-.8040009-.7342072-1.538208-1.5442467-2.503273-2.5294495"/>
      </g>
    </g>
  </g>
</svg>