<?xml version="1.0" encoding="UTF-8"?>
<svg xmlns="http://www.w3.org/2000/svg" version="1.1" viewBox="0 0 59.3939972 48.3121033">
  <!-- Generator: Adobe Illustrator 28.7.4, SVG Export Plug-In . SVG Version: 1.2.0 Build 166)  -->
  <g>
    <g id="Ebene_1">
      <path d="M52.4259796,7.6463318c2.4879913-.3013306,4.8139038-.9691162,6.9680176-1.9275208-1.5832062,2.4552917-3.6616211,4.5877075-6.0418091,6.3001099.021698.5386963.021698,1.0552979.021698,1.5939941,0,16.1217041-12.2559052,34.6991882-34.6779938,34.6991882-6.8710022,0-13.2897034-2.0137024-18.6958923-5.4816895.9692688.1187134,1.9167786.1618042,2.9185791.1618042,5.7077942,0,10.973999-1.928009,15.1419983-5.2125854-5.3312073-.0862427-9.8433838-3.6295471-11.3942871-8.4756165.7539062.1400146,1.5075073.2153015,2.3045959.2153015,1.1091919,0,2.197113-.1509094,3.1985168-.4200134-5.5679016-1.1309204-9.778717-6.0522766-9.778717-11.9649048v-.1400146c1.6369934.8940125,3.5216064,1.4646301,5.5248108,1.5293274-3.2738342-2.197113-5.4169922-5.9338989-5.4169922-10.1665039,0-2.2292786.6030884-4.3294983,1.647583-6.1387939,6.009491,7.388092,15.0021057,12.2558899,25.1253967,12.7515869-.2048035-.8939819-.2907715-1.8310852-.2907715-2.7788696,0-6.7523193,5.4276733-12.1911316,12.1803741-12.1911316,3.4894867,0,6.6878967,1.4753113,8.8634033,3.8448181,2.8106995-.5493164,5.4279022-1.5615234,7.7541046-2.9617004-.8722076,2.8432922-2.8433075,5.244812-5.3526154,6.7632141h0Z"/>
    </g>
  </g>
</svg>