<?xml version="1.0" encoding="UTF-8"?>
<svg xmlns="http://www.w3.org/2000/svg" version="1.1" viewBox="0 0 62.6187275 56.5429993">
  <!-- Generator: Adobe Illustrator 28.7.4, SVG Export Plug-In . SVG Version: 1.2.0 Build 166)  -->
  <g>
    <g id="Ebene_1">
      <path d="M62.6187275,28.2753601L35.8702229.155365c-.0982056-.1034851-.230011-.155365-.3624115-.155365-.1239777,0-.2479858.0458984-.344696.1377563l-7.8894958,7.5040283c-.0961914.0916138-.151886.2165833-.1552734.3494873-.0030212.1328125.0463562.2607117.1376953.3574219l18.9539795,19.9266663-18.9461975,19.9189148c-.0912781.0967102-.1405945.2246094-.1376953.3575134.0033875.132782.0596008.257782.155304.3495789l7.8894958,7.5039368c.0966797.0917664.2207031.1376953.3448029.1376953.1318054,0,.2640839-.0518188.3622894-.155304l26.7407074-28.1123352h0ZM35.5000294,28.2753601L8.7521351.155365c-.0982056-.1034851-.230011-.155365-.3623352-.155365-.1239624,0-.2480774.0458984-.3446655.1377563L.1554249,7.6417847C.059203,7.7333984.0036,7.8583679.0001209,7.991272c-.0028992.1328125.0464172.2607117.1376953.3574219l18.9539795,19.9266663L.2125233,48.1229858c-.0913086.0967102-.1405945.2247009-.1376953.3575134.003479.132782.059082.257782.155304.3495789l7.889679,7.5039062c.0966187.0917969.2207336.1376953.344696.1376953.1318054,0,.2642212-.0517883.3623352-.155304l26.6731873-28.0410156h0Z"/>
    </g>
  </g>
</svg>