<?xml version="1.0" encoding="UTF-8"?>
<svg xmlns="http://www.w3.org/2000/svg" version="1.1" viewBox="0 0 47.2640381 90.7086639">
  <defs>
    <style>
      .cls-1 {
        fill: #1a1a18;
      }
    </style>
  </defs>
  <!-- Generator: Adobe Illustrator 28.7.4, SVG Export Plug-In . SVG Version: 1.2.0 Build 166)  -->
  <g>
    <g id="Ebene_1">
      <path class="cls-1" d="M44.2528229,22.6549168c-2.0086823-7.4317703-5.4103775-14.9834118-10.2032509-22.6549168l-10.5192604,4.6748199c3.3562851,6.1132336,5.9025536,12.5860672,7.6424484,19.4185047,1.7362595,6.8324375,2.606205,14.0553493,2.606205,21.665102,0,7.4335899-.8699455,14.5511665-2.606205,21.352726-1.7398949,6.8015594-4.257103,13.1690521-7.5516396,19.1024857l10.1578445,4.4950256c4.8546257-7.5516434,8.3162498-15.1341553,10.3830528-22.7439117,2.0686188-7.6115723,3.1020203-15.1632118,3.1020203-22.6549187,0-7.671505-1.0043488-15.2231483-3.0112152-22.6549168M17.3971024,26.1092739c-.4449615-1.0188732-1.0479317-1.9178753-1.8161697-2.6970139-.7682419-.7773247-1.6545334-1.3929996-2.6570587-1.8434124-1.0043411-.448597-2.066803-.6738033-3.1891975-.6738033-1.1805115,0-2.2738457.2252064-3.276371.6738033-1.004343.4504128-1.8888187,1.0660877-2.6570587,1.8434124-.76824.7791386-1.3730259,1.6781406-1.8161716,2.6970139-.4431458,1.020689-.6629009,2.099493-.6629009,3.2364216,0,1.2004852.2197552,2.3083534.6629009,3.3254051.4431458,1.0206871,1.0479317,1.9196892,1.8161716,2.6970139.76824.7809525,1.6527157,1.3948174,2.6570587,1.8434105,1.0025253.4504089,2.0958595.6738014,3.276371.6738014,1.1223946,0,2.1848564-.2233925,3.1891975-.6738014,1.0025253-.4485931,1.8888168-1.062458,2.6570587-1.8434105.7682381-.7773247,1.3712082-1.6763268,1.8161697-2.6970139.4431458-1.0170517.6647186-2.1249199.6647186-3.3254051,0-1.1369286-.2215729-2.2157326-.6647186-3.2364216M5.039875,47.5055847c-1.2404442.8990059-2.1249199,2.0086861-2.6570587,3.3254089-.5303211,1.3203545-.7246513,2.7133598-.5757256,4.1808281.1452942,1.4692802.7173882,2.7732887,1.7162819,3.9102135.8227253.9607544,1.3948193,1.919693,1.7180977,2.8768158.3232784.9589386.3523369,2.0086823.0889912,3.1474228-.2651596,1.1369247-.8227253,2.3955307-1.674509,3.7758179-.8517838,1.378479-2.0704346,2.9058762-3.6559525,4.5840225l5.4884701,4.9454346c4.6039944-3.9556274,7.8513088-7.8531265,9.7401257-11.6870651,1.8888168-3.8357544,2.8332253-7.2501526,2.8332253-10.2486534,0-3.0566139-.7991142-5.5138969-2.3937111-7.3718376-1.5927849-1.8561287-3.6014671-2.7878227-6.0224266-2.7878227-1.8306999,0-3.3653641.4504089-4.6058083,1.3494148"/>
    </g>
  </g>
</svg>