<?xml version="1.0" encoding="UTF-8"?>
<svg xmlns="http://www.w3.org/2000/svg" version="1.1" viewBox="0 0 52.1065826 60.6654053">
  <!-- Generator: Adobe Illustrator 28.7.4, SVG Export Plug-In . SVG Version: 1.2.0 Build 166)  -->
  <g>
    <g id="Ebene_1">
      <path d="M52.1065826,24.6719971c0,.3598938-.2829742.6524963-.6385803.6696167-.4975128.0469666-.9973145.0715942-1.496109.0725708h-.0031891c-4.8961029,0-9.4655151-2.1421814-12.5806122-5.8155823v22.3717041c0,10.3091736-8.385788,18.6950989-18.6939087,18.6950989C8.3861694,60.6654053,0,52.27948,0,41.9703064c0-10.3069153,8.3861694-18.6929016,18.6941833-18.6929016.2969055,0,.5874023.0192261.8778076.0396118l.2765808.0180969c.3534241.0213013.6289368.3139954.6289368.6684875v8.8822937c0,.1922302-.0821228.3737183-.2252197.5007935-.1430664.1281128-.3287964.1869202-.5253906.1644287l-.2937012-.0393982c-.2434082-.0332031-.486908-.0694885-.7390137-.0694885-4.7027893,0-8.5299683,3.8272705-8.5299683,8.5301819,0,4.7028809,3.827179,8.5301208,8.5299683,8.5301208,4.8236084,0,8.8994904-3.8540039,8.8994904-8.4158325l.0887146-41.4187012c.0009155-.368988.3000031-.6679993.6694946-.6679993h8.4981995c.3426208,0,.6300049.2583923.6663055.5996094.7677155,7.3052979,6.6431122,12.9964905,13.9699097,13.5314941.3500977.0256042.620285.3172302.620285.6684875v9.872406h0Z"/>
    </g>
  </g>
</svg>