<?xml version="1.0" encoding="UTF-8"?>
<svg xmlns="http://www.w3.org/2000/svg" version="1.1" viewBox="0 0 59.8080791 59.8516039">
  <!-- Generator: Adobe Illustrator 28.7.4, SVG Export Plug-In . SVG Version: 1.2.0 Build 166)  -->
  <g>
    <g id="Ebene_1">
      <path d="M59.8080413,24.9922289c.0082092,4.539093-1.3213806,8.7382812-3.9842987,12.5859985-2.6618958,3.8514709-6.2846985,6.8983765-10.8638916,9.1366882-4.5783081,2.2382812-9.5828094,3.3632812-15.013382,3.3711243-1.5558167.0038757-3.170105-.0977173-4.8392029-.304718-2.6332092,2.742218-10.7938232,10.070282-18.4473267,10.070282-3.6369934,0-4.2077942-.6328125-4.2077942-.6328125,0,0,3.2935181-2.6444702,5.9085999-7.0038757,2.2109985-3.6874695,2.9550171-7.5312805,2.9550171-7.5312805-3.4987183-2.3164368-6.2554932-5.1795959-8.2759094-8.5937195C1.0194671,32.6757922.0073211,29.007915.0000274,25.0977282c-.0053711-3.390625.7784119-6.6367188,2.3535156-9.7305298,1.5751038-3.093689,3.6940002-5.7616882,6.3605042-8.0116882,2.6665039-2.2460938,5.8439941-4.0350952,9.5352783-5.3594055C21.9397247.6719164,25.810849.007915,29.8607452.0000414c5.4286957-.007843,10.4376984,1.0976868,15.0233154,3.3203735,4.5864868,2.2225952,8.2202911,5.2578125,10.8968811,9.0975952,2.6755981,3.843811,4.0187988,8.0351868,4.0270996,12.5742188h0Z"/>
    </g>
  </g>
</svg>