<?xml version="1.0" encoding="UTF-8"?>
<svg xmlns="http://www.w3.org/2000/svg" version="1.1" viewBox="0 0 48.6515687 64.7961981">
  <!-- Generator: Adobe Illustrator 28.7.4, SVG Export Plug-In . SVG Version: 1.2.0 Build 166)  -->
  <g>
    <g id="Ebene_1">
      <path d="M31.6010953,22.9360907c3.6319122,1.2557983,5.5708008,5.2313843,4.3243103,8.8637085-.2646942.7674866-.9859009,1.2503967-1.7559052,1.250885-.1986847,0-.4008942-.0322876-.5990906-.1000977-.9662933-.3334961-1.4815216-1.3895874-1.1504059-2.3553772.5840149-1.703125-.3246918-3.5664062-2.0259094-4.1538086-.4677734-.1611938-.8446808-.4947205-1.0614777-.940033-.2162933-.4442749-.2471161-.9471741-.0863953-1.414978.3319855-.9656982,1.3871765-1.480896,2.3548737-1.1502991h0ZM31.5499173,18.9356024c-.331604.9657898.1835785,2.0219727,1.1478882,2.3544922,4.3656921,1.5093079,6.6983185,6.2913818,5.2002106,10.6605835-.332016.9667053.1835785,2.0232849,1.1498871,2.3554077.1987.0683289.401413.1005249.6006165.1005249.7694855,0,1.4901886-.4829102,1.7548828-1.2504272,2.1611023-6.2992859-1.2017059-13.1941833-7.4985962-15.3714905-.9663086-.3314819-2.0238953.1846008-2.3548889,1.1509094h0ZM46.8814145,34.5125983c-.1611023.468689-.4951172.8461914-.9409027,1.063385-.2564087.1250305-.5326996.1880188-.8101044.1880188-.2030945,0-.4072113-.0336914-.6049042-.101532-.9653931-.3334961-1.4804993-1.389679-1.1503906-2.3549805,2.4149933-7.0360107-1.3399048-14.7366028-8.3706055-17.1683044-.4687958-.1611023-.8471985-.4950867-1.0639954-.9408875-.2167969-.4443054-.2476196-.9468079-.0868835-1.4144897.3329773-.9673157,1.3890686-1.4829407,2.3558655-1.1504211,8.9620056,3.0975952,13.7486267,12.9125061,10.6719208,21.8792114h0ZM46.7208158,58.6024115l-3.6328125,3.5131836c-1.7026978,1.6846008-3.995697,2.6440125-6.4360962,2.6801758-.0350952.0004272-.069809.0004272-.1049957.0004272-6.805603,0-17.1510925-4.012085-28.1085815-22.9920959C-2.5758914,22.7267096-.8102969,11.7564948,2.6111203,5.9132941c1.2714844-2.1285095,3.2631836-3.6455994,5.6195679-4.2911987L13.0358945.2475836c3.2476196-.9325867,6.6322937.8457947,7.710907,4.0505066l3.9867096,11.7894897c1.0390015,3.1118164-.5018158,6.5448914-3.5052032,7.8260193l-2.9828796,1.2588196c.4745789,1.7822571,1.3119812,4.1845703,3.9208679,8.7029724,2.6160126,4.5307922,4.2760925,6.4516296,5.576004,7.746521l2.5659027-1.9423218c2.625-1.9673157,6.3676147-1.5908813,8.5307007.8490906l8.2368011,9.3764038c2.2304993,2.5274048,2.0762024,6.3492126-.3548889,8.6973267h0ZM43.3228055,53.2092841l-8.2328949-9.3719788c-.4341125-.4907227-1.2328949-.5689087-1.7728882-.1641235l-3.9273071,2.9727173c-1.1562042.8896179-2.8427887.7836914-3.9076996-.2573853l-.4526062-.4345093c-1.6414032-1.5630188-3.6931915-3.5166321-7.193222-9.5786133-3.4989624-6.0598755-4.1674805-8.821106-4.7045593-11.0398865l-.155304-.6313171c-.3657227-1.4286194.3779907-2.9028015,1.7729797-3.4832764l4.5259094-1.909729c.605896-.2582703.9320984-.9912109.7192078-1.6297913l-3.9858093-11.785675c-.1836243-.5465088-.6880188-.8926392-1.2333984-.8926392-.1192017,0-.2402954.0166321-.3609009.0507202l-4.8354187,1.3833923c-1.132782.3099976-2.0693665,1.0253906-2.6645813,2.0214844-2.7397156,4.679718-3.9589844,13.8486023,5.8540039,30.8453979,9.7676086,16.9179382,18.2966766,20.492218,23.755188,20.4926147.0254059,0,.0503082-.0003967.0756989-.0003967,1.121109-.0170898,2.1919098-.4629211,2.9927063-1.2548828l3.6532898-3.5337219c.0005035-.0004883.0010071-.0010071.0019073-.0014648.503006-.4858093.5366974-1.2749329.0756989-1.796936h0Z"/>
    </g>
  </g>
</svg>