<?xml version="1.0" encoding="UTF-8"?>
<svg xmlns="http://www.w3.org/2000/svg" version="1.1" viewBox="0 0 65.698359 90.7086639">
  <defs>
    <style>
      .cls-1 {
        fill: #1a1a18;
      }
    </style>
  </defs>
  <!-- Generator: Adobe Illustrator 28.7.4, SVG Export Plug-In . SVG Version: 1.2.0 Build 166)  -->
  <g>
    <g id="Ebene_1">
      <g>
        <path class="cls-1" d="M26.5963878,42.0426178c2.5385437.0006599,5.0770912-.0229378,7.6149864.0072136,2.2134438.0262184,3.6403542,1.7094078,3.2575684,3.7734108-.2811852,1.5193291-1.5822449,2.5005264-3.3886604,2.5044632-4.6340103.0104866-9.2680244.008522-13.9020348-.0013084-.7059174-.0013123-1.424942.0045853-2.113163-.1258469-1.3554649-.256279-2.3281479-1.4524765-2.3982811-2.8144913-.07341-1.4301834.7668724-2.7325592,2.0974312-3.143528.4699554-.1448479.9864464-.1881104,1.4826202-.1920471,2.4494057-.0183525,4.8994675-.0085182,7.3495331-.0078659"/>
        <path class="cls-1" d="M26.5643329,30.3809662c2.5378914,0,5.0764389-.007206,7.6143303.0026245,1.9912491.0072098,3.3467178,1.270256,3.3532677,3.0969887.0065575,1.8227959-1.3613625,3.131073-3.32967,3.1350021-5.0764389.0111465-10.1528778.0118027-15.2293167-.0006561-1.9453697-.0045853-3.3231163-1.3403893-3.3093529-3.1559753.0131073-1.7808533,1.3685722-3.0642166,3.2864113-3.0747032,2.5378914-.0137672,5.0764389-.0032806,7.6143303-.0032806"/>
        <path class="cls-1" d="M46.9171466,39.1505241c.0471954-11.1838989-8.9894562-20.3103447-20.1746635-20.3758888-11.2265015-.0655479-20.409317,8.9907684-20.466341,20.1844978-.057024,11.2900772,8.9737301,20.4053841,20.2697086,20.4597855,11.2120781.0544052,20.323452-9.0110893,20.3712959-20.2683945M23.4508266,88.5646973c.0603027-1.8509903.0176964-3.7059021.0176964-5.6643753h-2.9606552c-1.5344009-.0006561-3.069458.0124512-4.6038589-.0045929-1.2112694-.0137634-1.7972374-.5990753-1.8182125-1.7952652-.0157299-.8848572-.0137634-1.771019-.0006542-2.6558762.0183525-1.2099533.5715485-1.7867508,1.7998581-1.8005142,2.1839485-.0235977,4.367897-.0078659,6.5518494-.008522h.9916916v-10.9951248C10.6643619,63.1143341,2.3722972,55.8395195.3692512,42.8144722c-1.653038-10.7539215,2.2573605-19.7407589,11.4637737-25.7020531,10.466835-6.7766676,21.0385437-6.1238461,31.1258812.8966541,3.8979416-3.8946686,7.8109665-7.8037596,11.7751083-11.7639713-.937294,0-1.8968658.0013103-2.8557892,0-1.1214676-.0019608-2.2435913.0196629-3.3637466-.0157223-.4503021-.0144215-1.5573463-.4535704-1.5376816-1.4806576.0235977-1.2407646.0235977-2.7030697.0235977-3.3008389,0-.9838214,1.0120087-1.4478831,1.6150208-1.4478831h15.2168655c1.4629517,0,1.8693314,1.3725128,1.8660583,2.0069776-.0288391,4.9283109-.0091782,9.8572783-.0163879,14.7862391-.0019684,1.449192-.5341949,1.9702721-1.9755173,1.9787941-.8265228.0052452-1.653038.0137653-2.4789047-.0019665-1.1955338-.023592-1.7788849-.6102219-1.7867508-1.8227978-.0137634-2.0010815-.0039291-4.0015068-.0039291-5.8721514-3.8691025,3.8697596-7.7742615,7.7749147-11.7685547,11.7685575-.0032806-.004591.126503.214983.2759399.4201412,11.3038483,15.5065689,3.3513031,36.8544846-14.615818,41.5324173-.9182816.2385788-3.6285553.830452-3.6285553.830452l.0235977,11.0069275s5.2304688-.005249,7.3554268.0052414c1.5226021.0072098,2.0069809.5007629,2.0155029,2.0187759.0045891.7963715.0104866,1.5933914-.0019684,2.390419-.0183525,1.2722168-.5735168,1.8404922-1.8391838,1.847702-2.2429428.0131073-4.4858818.0032806-6.7294769.0058975-.232029.0006561-.4634018.0235977-.8114471.0426102,0,1.9060364-.0321159,3.7865143.0137672,5.6643753.0235939.9510498-.4824104,2.1000519-1.5724182,2.1000519h-3.1238632c-.8782997,0-1.6104317-1.1863632-1.5789719-2.1439667"/>
      </g>
    </g>
  </g>
</svg>