<?xml version="1.0" encoding="UTF-8"?>
<svg xmlns="http://www.w3.org/2000/svg" version="1.1" viewBox="0 0 85.6884756 67.9720567">
  <!-- Generator: Adobe Illustrator 28.7.4, SVG Export Plug-In . SVG Version: 1.2.0 Build 166)  -->
  <g>
    <g id="Ebene_1">
      <path d="M25.2764082,41.581597c-.0189056-.7643394-.4399891-1.544239-1.3299828-2.0083237-.9111252-.4752121-1.8860054-.4770622-2.6703548.1782913-.9552307.7980652-1.8459663,1.6939926-2.6532974,2.6418114-.6646214.7802734-.679451,1.74366-.2149925,2.6670151.4696465.9341049,1.2795734,1.3829918,2.2981911,1.3922577,1.5987282.0144577,4.5648785-3.0224915,4.5704365-4.8710518M43.366889,59.5964552c-.0151978-.6772232-.4707565-1.4541626-1.4041214-1.9160233-.9344749-.4626007-1.8834038-.3940277-2.6596031.2705917-.9048195.7743454-1.7558899,1.6272659-2.5339432,2.5291214-.696125.8077087-.7317162,1.796669-.2516823,2.7389297.4841003.9496765,1.312191,1.4096832,2.3841858,1.3755798,1.5979843-.0507812,4.4662781-3.0388031,4.4651642-4.9981995M29.2278204,56.7055555c.2160988,1.1679993.7165146,1.9582825,1.7017708,2.3893738,1.0193596.4455566,1.9897919.2824554,2.7867432-.4848404,1.3655739-1.3147888,2.7185402-2.6455154,4.0207253-4.0225754,1.0493851-1.109436.9856262-2.6888885-.0548592-3.6800766-1.0141716-.9656143-2.5313492-.942627-3.6122437.1056442-1.320713,1.2810516-2.6455116,2.562851-3.8883896,3.918045-.439621.4796524-.6423798,1.1765289-.9537468,1.7744293M26.2127371,53.273831c.255024-.0985947.8532982-.1645737,1.2035866-.4941101,1.5609169-1.4701004,3.1118279-2.9609604,4.544487-4.5541267.8833237-.9822922.6427536-2.5354233-.3098869-3.4068871-.9607887-.8788719-2.4442368-.9226112-3.4235611.0051918-1.4367447,1.3607521-2.8382683,2.7611656-4.1993885,4.1979103-.7357922.7765656-.8303165,1.7570038-.4007034,2.7304001.4336891.9833984,1.2425079,1.4630585,2.5854664,1.5216217M81.7074118,20.0871969c-4.1801224-5.4285507-8.3031464-10.7822247-12.4358139-16.14888-2.3085709,1.4708443-4.525589,2.8831196-6.7867126,4.3235683,4.4781418,5.6950684,8.8773193,11.2896824,13.304306,16.9191418,2.0090637-1.7292023,3.9280548-3.3809357,5.9182205-5.0938301M17.9103289,3.9168192c-4.6490173,5.7584553-9.2605972,11.4705772-13.8985014,17.2156811,1.988307,1.7091904,3.9243507,3.3742676,5.9196997,5.089386,4.9348125-6.0116234,9.822546-11.9654274,14.7655144-17.9866867-2.2818851-1.4519405-4.5026035-2.8653297-6.7867126-4.3183804M68.9313116,37.5638357c1.5194016-3.1796608,2.8938675-6.0968819,4.3143005-8.9918633.2720795-.5545311.2346344-.9192772-.1493835-1.4041214-4.4974136-5.6802406-8.9766617-11.3753052-13.4425735-17.0807571-.3276749-.4188614-.6564636-.5763988-1.1839371-.5726948-3.4005814.0237274-6.8015366.0063019-10.2024918.0200176-.4103394.0018539-.8332787.0667248-1.2284164.1797771-3.6652489,1.046051-7.3271599,2.1039619-10.9838753,3.1792946-.2665215.0782127-.5827065.2620621-.7131882.4900303-2.0768967,3.6237297-4.1452713,7.2522774-6.1717529,10.9045486-.5901146,1.0627289-.2709656,2.3434143.6286659,3.10812,1.2673416,1.0764465,3.0918121.7094727,3.9803238-.8373566,1.4975281-2.607708,2.9817162-5.2231979,4.4410667-7.8527718.4748383-.8551521,1.1135101-1.2388039,2.1032181-1.1617012,2.7778473.2168427,5.5586586.4040375,8.3398438.5734367.8299408.0504112,1.4541626.3803139,2.0405731.9700623,5.8388901,5.8692818,11.7000237,11.7163277,17.5489159,17.5756073.2146301.2149887.371048.4878082.6787109.9003716M41.7411032,54.0322386c.0685768.0559692.0882225.0848846.1123123.0896988,3.9273148.7558136,5.8477898,4.7932129,4.4221687,8.2178955-.0804367.1931229.0485611.5882645.2153625.750618,1.132412,1.1027603,2.7077866,1.1227798,3.7367859.0904465,1.0297394-1.0334473,1.0074997-2.5884323-.1008186-3.7445755-1.1965485-1.2476959-2.4331245-2.4572144-3.6448593-3.6904526-.8992615-.9155655-.9689522-1.9149094-.2005386-2.6429214.7246704-.6864929,1.7162323-.5882568,2.5821304.2776413,1.2032166,1.2024689,2.3578682,2.4568405,3.6100159,3.6055679.4633446.4251633,1.1164742.7572861,1.7329102.8770142,1.056057.2057266,2.0705986-.4362869,2.5313454-1.385582.4889221-1.0074997.3265648-2.1247177-.5274734-3.0047073-1.8448524-1.9000854-3.7212181-3.7701416-5.5827484-5.6542892-.5878944-.5949364-1.2002525-1.1694832-1.7458878-1.801487-.5941925-.6879768-.5237656-1.6691551.0923004-2.2718735.6175461-.6042023,1.5735207-.6320038,2.2792816-.0522652.2146263.1760712.4036713.3840218.599762.5819588,2.1966248,2.2203522,4.3943634,4.4395866,6.5869102,6.6640205.7354279.74617,1.5913086,1.135376,2.6414413.8640442,2.0142517-.5204315,2.6006622-2.8879395,1.0801468-4.4351425-3.4402466-3.5006638-6.901619-6.9802017-10.3533516-10.4693756-.1960907-.1979408-.4021873-.3903236-.5693588-.611618-.5326653-.7046509-.4674225-1.6002045.1427078-2.2055206.5897484-.5853004,1.5308952-.6446075,2.2114563-.1115761.2835655.2220345.5300636.493.7847176.7506218,3.3742676,3.4091072,6.7377853,6.8285942,10.1242828,10.2251015,1.1683655,1.1720772,2.7444839,1.2106285,3.7998047.1612434,1.062355-1.055687,1.017868-2.6332817-.1464233-3.7998009-6.4631119-6.4727478-12.930294-12.9410477-19.4152794-19.3919258-.2624359-.2613258-.7057648-.4388771-1.0812569-.4718704-2.0268593-.1786652-4.0615005-.2720718-6.0872459-.4581566-.5652809-.0518913-.8432884.0952682-1.1135101.5856705-1.2499199,2.2692795-2.5213394,4.5266953-3.8268623,6.7640991-1.3885536,2.3801117-4.0196114,3.5069656-6.5639305,2.8697739-3.8731956-.9700584-5.7039661-5.1872406-3.7408676-8.7394295,1.9401207-3.5106735,3.9488144-6.9831696,5.9256325-10.4734573.1567955-.2772598.2969093-.5634232.4752045-.9037037-1.5560951-.4266491-2.9976578-.8510742-4.4584923-1.1935768-.2516899-.0593109-.6831551.1478996-.866272.3688202-3.8928413,4.7035084-7.762701,9.4266644-11.6362667,14.1468563-1.1624413,1.4167213-2.3230267,2.8353004-3.4962139,4.2672195,2.1851311,2.9427986,4.3228207,5.8214722,6.4801579,8.7260895,1.8404064-1.4556465,3.8116665-1.8878517,5.9552822-1.1520615,2.1940346.7532158,3.3953972,2.4127312,3.911377,4.6564331,1.8960114-.2880135,3.6051941.0159416,5.0778923,1.2332382,1.4645462,1.2106323,2.0976562,2.8230743,2.1688271,4.6579208,4.2027245.4711266,6.275177,3.042511,5.8774414,7.2333755M85.6884756,20.9134298c-1.9886856,1.7733192-3.9028549,3.6404152-5.9879074,5.2925148-1.9497528,1.5446091-3.398735,3.346096-4.3595276,5.6550369-1.0786667,2.5932503-2.3956757,5.087162-3.5885162,7.634079-.1141663.2439041-.195343.6027184-.1015625.8299408,1.9049072,4.6100998-.247612,8.3850632-5.1801987,8.9344101-.3725281,3.6014862-2.3359985,5.6824646-6.0049515,6.0390549-.9151993,4.1519394-2.2559357,5.4937897-6.07798,6.033493-.178669,2.5810242-1.3407364,4.5834122-3.8283424,5.5471725-2.4857521.9630127-4.7042503.305069-6.662159-1.5750046-1.724762,2.0031357-3.7864609,3.1285095-6.4445801,2.4879837-2.6429214-.6368256-4.0907784-2.4309006-4.602314-5.152771-.5159798,0-1.0412331.0518951-1.5531349-.0085297-2.8330803-.3350906-4.9070129-2.4249649-5.2206039-5.2465515-.0492973-.4451752-.0834045-.74617-.6813011-.8128891-3.2786312-.3647461-5.4007549-2.8364182-5.3488598-6.149147.0029697-.190155.0003738-.3799438.0003738-.5890045-.4655685-.120842-.9022293-.2031326-1.3177567-.3465805-3.7345619-1.288475-5.172781-5.8381538-2.8293705-9.0596962.3799458-.5219154.3210049-.8151207-.0289135-1.2803192-2.2114506-2.9409447-4.3736076-5.9189568-6.6021099-8.8465576-.5156126-.6772232-1.2009926-1.2343521-1.8496761-1.799263-2.1451044-1.8670921-4.3139296-3.7071304-6.4623709-5.5708923-.348804-.3028412-.6394129-.6731491-.9567127-1.0123138v-1.1713371C5.3173504,14.1630503,10.6335859,7.5794703,15.9524183.9977442c.9481888-1.1731873,1.6002102-1.2829094,2.8668137-.4807663,2.612154,1.6539593,5.2035503,3.3409042,7.837944,4.9574203.7921371.4859581,1.6687851.8866634,2.5587769,1.1494732,2.5880661.7635918,5.1991043,1.450079,7.8105164,2.1317558.3792076.0989685.8329124.0915604,1.2121124-.0133438,2.6814728-.740984,5.3484879-1.5345993,8.0299606-2.2763252.6075401-.1679173,1.2525101-.2754097,1.881176-.2798557,3.5121613-.0266914,7.0246887.0037041,10.5364761-.0315094.4933701-.0051937,1.0475311-.1616173,1.4663925-.4210892,2.7689514-1.7177143,5.5063934-3.485836,8.2582932-5.2306099,1.2465897-.7902822,1.9434586-.6649952,2.8560638.5193176,4.6089859,5.9815998,9.21315,11.9665356,13.8195496,17.9503613.1986771.2579918.4010696.5130157.6019821.7695274v1.1713295"/>
    </g>
  </g>
</svg>