<?xml version="1.0" encoding="UTF-8"?>
<svg xmlns="http://www.w3.org/2000/svg" version="1.1" viewBox="0 0 55.6448212 64.693512">
  <!-- Generator: Adobe Illustrator 28.7.4, SVG Export Plug-In . SVG Version: 1.2.0 Build 166)  -->
  <g>
    <g id="Ebene_1">
      <path d="M40.1648102,59.9570007c0-2.6123962,2.1180115-4.7350159,4.7316132-4.7350159,2.6181946,0,4.7359772,2.1226196,4.7359772,4.7350159,0,2.6173096-2.1177826,4.7365112-4.7359772,4.7365112-2.6136017,0-4.7316132-2.1192017-4.7316132-4.7365112h0ZM27.8184204,64.693512c2.6174927,0,4.7354889-2.1192017,4.7354889-4.7365112,0-2.6123962-2.1179962-4.7350159-4.7354889-4.7350159-2.6135254,0-4.73172,2.1226196-4.73172,4.7350159,0,2.6173096,2.1181946,4.7365112,4.73172,4.7365112h0ZM6.0082092,59.9570007c0-2.6123962,2.118103-4.7350159,4.73172-4.7350159,2.617981,0,4.7359924,2.1226196,4.7359924,4.7350159,0,2.6173096-2.1180115,4.7365112-4.7359924,4.7365112-2.6136169,0-4.73172-2.1192017-4.73172-4.7365112h0ZM27.8224182,48.9635925c-4.3728027,0-8.5101929-.8876953-12.1925049-2.4699097l-13.9382935,3.4848022,2.9786987-11.9154968C1.7201233,34.1766968,0,29.5066833,0,24.4821777,0,10.9609985,12.4567261,0,27.8224182,0c15.3656006,0,27.822403,10.9609985,27.822403,24.4821777,0,13.5203247-12.4568024,24.4814148-27.822403,24.4814148h0ZM38.5694122,23.7123718c0-.7948608-.6446838-1.43927-1.4395142-1.43927h-.3517914v-3.5771179c0-4.9343872-4.0067902-8.9424744-8.959198-8.9424744-4.9453125,0-8.9522095,4.0080872-8.9522095,8.9424744v3.5771179h-.3518066c-.7948608,0-1.4393616.6444092-1.4393616,1.43927v12.6205139c0,.7951355.6445007,1.4395142,1.4393616,1.4395142h18.6150055c.7948303,0,1.4395142-.6443787,1.4395142-1.4395142v-12.6205139h0ZM22.4493103,18.6967163c0-2.9607239,2.4039917-5.3662109,5.3712158-5.3662109,2.970993,0,5.3751068,2.4054871,5.3751068,5.3662109v3.5763855h-10.7463226v-3.5763855h0Z"/>
    </g>
  </g>
</svg>