<?xml version="1.0" encoding="UTF-8"?>
<svg xmlns="http://www.w3.org/2000/svg" version="1.1" viewBox="0 0 52.0019665 63.531189">
  <!-- Generator: Adobe Illustrator 28.7.4, SVG Export Plug-In . SVG Version: 1.2.0 Build 166)  -->
  <g>
    <g id="Ebene_1">
      <path d="M34.2823792,41.1271973v5.3096924H5.25V8.578186c0-1.8348999,1.4926758-3.3280945,3.3276062-3.3280945h22.3766785c1.8349152,0,3.3280945,1.4931946,3.3280945,3.3280945v10.0870056c0,1.449707,1.1753082,2.625,2.625,2.625,1.4497223,0,2.625-1.175293,2.625-2.625v-10.0870056c0-4.730011-3.848175-8.578186-8.5780945-8.578186H8.5776062C3.8480835,0,0,3.848175,0,8.578186v46.375824c0,4.7294006,3.8480835,8.577179,8.5776062,8.577179h22.3766785c4.7299194,0,8.5780945-3.8477783,8.5780945-8.577179v-13.8268127c0-1.449707-1.1752777-2.625-2.625-2.625-1.4496918,0-2.625,1.175293-2.625,2.625h0ZM34.2823792,49.5872803v5.3667297c0,1.8343811-1.4931793,3.327179-3.3280945,3.327179H8.5776978c-1.8348999,0-3.3276062-1.4927979-3.3276062-3.327179v-5.3667297h29.0322876ZM22.7233887,54.2797852c0-1.6328735-1.3237-2.9569702-2.9566956-2.9569702s-2.9570007,1.3240967-2.9570007,2.9569702c0,1.6331177,1.3240051,2.9570007,2.9570007,2.9570007s2.9566956-1.3238831,2.9566956-2.9570007h0ZM35.6998901,33.0341187c-.722702.7225647-.722702,1.8982849,0,2.6210632.3608093.3608093.8348999.5415344,1.3095093.5415344.4747009,0,.9496918-.1807251,1.3125-.5426331,2.7123871-2.7187195,2.7119904-7.1418152-.0019073-9.8614807-.7231903-.7212219-1.8989105-.7212219-2.621109.00177-.7207031.7228088-.7207031,1.8976135,0,2.6193237,1.2710266,1.274292,1.2710266,3.3469849.0010071,4.6204224h0ZM42.6485901,22.1713867c4.7056122,4.7167969,4.7056122,12.388092.0024109,17.1033936-.3628082.3612061-.8383026.5419006-1.3128967.5419006-.4747162,0-.9488068-.1802063-1.3091125-.5409851-.7221985-.7241211-.7216949-1.8994141,0-2.6211243,3.262207-3.2695007,3.262207-8.5909729-.0009918-11.861084-.7207031-.7220764-.7207031-1.8970032,0-2.6195984.7216949-.7216797,1.8969879-.7232056,2.6205902-.0025024h0ZM46.9776917,18.5516968c-.7230988-.7214966-1.8989105-.7206116-2.621109.0019836-.7206879.7228088-.7206879,1.8981323,0,2.6196289,5.2549133,5.2666931,5.2549133,13.8358765.0010071,19.1019897-.722702.7220764-.722702,1.8978882-.0010071,2.6190796.3496094.3505249.8150177.5439148,1.3096008.5444031h.0014038c.4952087,0,.9605103-.1929016,1.3121033-.5439148,6.696701-6.7103882,6.696701-17.630188-.0019989-24.3431702h0Z"/>
    </g>
  </g>
</svg>