<?xml version="1.0" encoding="UTF-8"?>
<svg xmlns="http://www.w3.org/2000/svg" version="1.1" viewBox="0 0 57.5608902 90.7083034">
  <defs>
    <style>
      .cls-1, .cls-2 {
        fill: #1a1a18;
      }

      .cls-3 {
        fill: none;
        stroke-width: 4.0566297px;
      }

      .cls-3, .cls-2 {
        stroke: #1a1a18;
        stroke-miterlimit: 10;
      }

      .cls-2 {
        stroke-width: 1.3766843px;
      }
    </style>
  </defs>
  <!-- Generator: Adobe Illustrator 28.7.4, SVG Export Plug-In . SVG Version: 1.2.0 Build 166)  -->
  <g>
    <g id="Ebene_1">
      <g>
        <path class="cls-1" d="M28.9169859,85.3333107c-2.6538239,0-5.3083534.0007095-7.9621773,0-1.1126442-.0007019-1.5687141-.4179459-1.6061325-1.5277634-.0282402-.8246002-.0204735-1.6513138-.0007057-2.475914.019062-.7779999.4716034-1.1768875,1.32444-1.1182938.777298.0543671,15.2374229,2.0636215,16.8520279,2.3191833.6721039.1059036.9297905.4257126.9636803,1.1041718.0522423,1.0738144-.5294952,1.6837921-1.6082497,1.6837921h-7.962883v.0148239Z"/>
        <path class="cls-1" d="M28.9050535,90.7027336c-.8994331,0-1.7988663-.012001-2.6975937.0049438-.4927826.0091782-.9608574-.0804825-1.3195-.4080658-.7257614-.6636276-1.4331627-1.3498535-2.1095047-2.0629044-.3113403-.3282852-.160965-.66716.2894592-.7659988.1708488-.0374222.3515816-.0402451.5273743-.0409546,3.5525513-.0021133,7.1058083-.0014114,10.6583633-.0014114.0592995,0,.1205902.0035324.1757889.0035324.3917923,0,.6114922.120575.7095222.3240509.0646172.1341248-.079071.5033722-.2372131.66716-.6219788.6445694-1.2729034,1.2630234-1.9393616,1.8610001-.362175.3247528-.8224792.4299469-1.3152618.4228821-.9135551-.0141144-1.8278122-.0042343-2.7420731-.0042343"/>
        <path class="cls-1" d="M37.1465239,75.0741249c.7907066.0042343,1.2531357.4264145,1.2976112,1.2178345.0543633.9552078.0571861,1.9153519.0254173,2.8719711-.0233002.6819916-.4313622,1.0582809-1.1380615,1.0081558-1.0858154-.0776596-15.8826981-2.1165619-17.075119-2.3100052-.5774994-.093895-.8083611-.3473434-.9050827-.9248428-.1807327-1.0759354.4673691-1.8405228,1.5609474-1.8405228"/>
        <path class="cls-3" d="M28.7950605,70.5423561c-1.9887772,0-3.9782639.0014191-5.967041,0-2.0014877-.0021133-2.4024925-.3268738-2.8345604-2.2930603-.5683212-2.5853424-1.0942879-5.1812744-1.7169724-7.7532043-.5979729-2.4674377-1.8532257-4.6581306-3.1042442-6.8389397-1.621666-2.8260841-3.3541679-5.5914574-4.6383667-8.5989799-1.2086582-2.831028-1.9598351-5.7630119-1.7473316-8.8644333.3014603-4.4159851,1.9803085-8.265049,5.0167789-11.4808426,3.872364-4.1004009,8.6900558-6.1527176,14.2963371-6.466177,9.0049286-.503376,17.6406174,5.6331062,20.072052,14.2786846,1.2093658,4.3016052.6233902,8.4351921-1.1034622,12.4748764-1.259491,2.9446907-2.864212,5.707943-4.5458794,8.4175377-2.3996696,3.8646049-3.7226982,8.0850258-4.4872894,12.522892-.187088,1.0858078-.4532433,2.1582108-.7066956,3.2306137-.1899147.8055344-.7109337,1.2644348-1.5510635,1.2926712-1.1712418.038826-2.3424835.0628357-3.5144272.0755386-1.1557121.0127106-2.3121262.0028229-3.4678345.0028229Z"/>
        <path class="cls-2" d="M30.3567175,7.446096V2.1568065c0-.8104806-.6579857-1.4684644-1.4691696-1.4684644-.8111877,0-1.4691696.6579838-1.4691696,1.4684644v5.2892895c0,.8111858.6579819,1.4691696,1.4691696,1.4691696.8111839,0,1.4691696-.6579838,1.4691696-1.4691696Z"/>
        <path class="cls-2" d="M16.3997511,12.2621608c.7024612-.4052372.943203-1.3039608.5379639-2.0071306l-2.2041054-3.8180075c-.4052391-.7024584-1.3032646-.9439096-2.0064316-.537961-.7024612.4052372-.9439125,1.3039665-.5379639,2.0071306l2.2033997,3.8180075c.4038277.7003412,1.3025551.9453211,2.0071373.537961Z"/>
        <path class="cls-2" d="M43.3824057,11.7242647l2.2033997-3.8180017c.4059525-.7031698.1652069-1.6018944-.5372543-2.0071373-.7038727-.4059429-1.6018982-.1644917-2.0071373.5379667l-2.2041092,3.8180075c-.4052353.7031641-.1644936,1.6018944.5379677,2.0071316.7003441.4038315,1.5990715.1673203,2.0071335-.5379667Z"/>
        <path class="cls-2" d="M7.2479757,21.9454036c.4059467-.7024593.1652031-1.6011887-.5379658-2.0071316l-3.817297-2.204813c-.7024632-.4052372-1.6011906-.1652031-2.0071354.5379658-.4059448.7024593-.1652031,1.6004829.5379658,2.0071316l3.8172989,2.204813c.6996365.4038334,1.6004829.1666145,2.0071335-.5379658Z"/>
        <path class="cls-2" d="M50.3129171,21.9454036c-.4059525-.7024593-.1652069-1.6011887.5379639-2.0071316l3.8172989-2.204813c.7024612-.4052372,1.6011887-.1652031,2.0071335.5379658.4059448.7024593.1651993,1.6004829-.5379639,2.0071316l-3.8172989,2.204813c-.6996384.4038334-1.6004868.1666145-2.0071335-.5379658Z"/>
      </g>
    </g>
  </g>
</svg>