<?xml version="1.0" encoding="UTF-8"?>
<svg xmlns="http://www.w3.org/2000/svg" version="1.1" viewBox="0 0 63.0447831 89.3073682">
  <defs>
    <style>
      .cls-1 {
        stroke: #000;
        stroke-miterlimit: 10;
        stroke-width: .6862082px;
      }
    </style>
  </defs>
  <!-- Generator: Adobe Illustrator 28.7.4, SVG Export Plug-In . SVG Version: 1.2.0 Build 166)  -->
  <g>
    <g id="Ebene_1">
      <path class="cls-1" d="M29.0634361,45.7159273l-1.7113876,43.2483368h8.4570312c-.6117973-13.6587067-1.4654236-39.6484985-1.6555786-43.2462692-.8198662.1846428-1.6672935.2879868-2.5429649.2879868-.8742981,0-1.7244797-.103344-2.5471001-.2900543ZM3.3382049,54.0007211l19.9682465-11.5360107c-1.3669014-1.4165077-2.3383408-3.1368523-2.8405952-4.9867249L.4686695,49.0319139l2.8695354,4.9688072ZM34.5799728,23.3011743l-.0234261-22.9576588-5.7397614.006886.0241127,22.8984084c1.8608932-.4602261,3.8320198-.4554024,5.7390747.0523643ZM36.7956787,37.4104654c1.6335335-2.85989.6386681-6.5072632-2.2239761-8.1449318-2.8591995-1.6328468-6.5086441-.6407356-8.1442413,2.2212219-1.6335373,2.85989-.640049,6.5051994,2.2225952,8.1414871,2.8626442,1.6376686,6.5065765.6428032,8.1456223-2.2177773ZM62.5760208,49.0326006l-19.858696-11.4595375c-.2514725.8915215-.6000862,1.7678833-1.0775414,2.609108-.5077667.8818741-1.1230125,1.6624718-1.80233,2.3548775l19.8690376,11.4643631,2.8695297-4.968811Z"/>
    </g>
  </g>
</svg>