<?xml version="1.0" encoding="UTF-8"?>
<svg xmlns="http://www.w3.org/2000/svg" version="1.1" viewBox="0 0 96.3779488 95.9100754">
  <!-- Generator: Adobe Illustrator 28.7.4, SVG Export Plug-In . SVG Version: 1.2.0 Build 166)  -->
  <g>
    <g id="Ebene_1">
      <g id="Ebene_1-2">
        <g>
          <path d="M87.1879463,0H24.0944881c-1.7043266,0-3.0744705,1.3701437-3.0744705,3.0744698s1.3701439,3.07447,3.0744705,3.07447h61.9572582c2.3058472,0,4.177269,1.8714185,4.177269,4.1772695v75.2576714c0,2.3058472-1.8714218,4.177269-4.177269,4.177269H23.9942436c-1.7043266,0-3.0744705,1.3701401-3.0744705,3.0744629s1.3701439,3.0744629,3.0744705,3.0744629h63.193718c5.0795593,0,9.1899872-4.1104279,9.1899872-9.1899872V9.1899912C96.3779488,4.110431,92.2675209.0000002,87.1879463,0Z"/>
          <path d="M38.1301079,62.7592881c-2.0385094,2.0385056-2.0385094,5.3134842,0,7.3519974.9691277.9691315,2.3058548,1.5372314,3.6759987,1.5372314s2.7068672-.5346909,3.6759987-1.5372314l20.0508881-20.0508881c1.1696396-1.1696358,1.1696396-3.1078873,0-4.3109436l-19.9840508-19.9840508c-.9691277-.9691296-2.2724342-1.5372314-3.6759987-1.5372314s-2.7068672.5346909-3.6759987,1.5372314c-2.0385094,2.0385094-2.0385094,5.313488,0,7.3519936l9.5910072,9.5910034H5.2132292c-2.8739595,0-5.2132292,2.3392715-5.2132292,5.2132301s2.3392696,5.2132301,5.2132292,5.2132301h42.5078821l-9.5910034,9.5910034v.0334244Z"/>
        </g>
      </g>
    </g>
  </g>
</svg>