<?xml version="1.0" encoding="UTF-8"?>
<svg xmlns="http://www.w3.org/2000/svg" version="1.1" viewBox="0 0 69.396055 90.7089024">
  <defs>
    <style>
      .cls-1 {
        fill: #1a1a18;
        stroke: #1a1a18;
        stroke-miterlimit: 10;
        stroke-width: 1.7017711px;
      }
    </style>
  </defs>
  <!-- Generator: Adobe Illustrator 28.7.4, SVG Export Plug-In . SVG Version: 1.2.0 Build 166)  -->
  <g>
    <g id="Ebene_1">
      <path class="cls-1" d="M64.9551086,43.8063887c0-5.940033,0-11.8792114-.0008469-17.8183975,0-1.3044052.030632-2.6088104-.0161667-3.91152-.0782852-2.156992-1.9408722-3.6732693-4.0799942-3.3669491-1.8336563.2620716-3.0240479,1.7536716-3.0257492,3.8485508-.0085144,7.3593121-.0025558,14.7186184-.0051117,22.0779324-.0008469.3463058.0102158.7011261-.0527496,1.038929-.1642227.8866234-.924057,1.4652252-1.8106842,1.4192772-.851738-.0433922-1.5188293-.6492271-1.6311493-1.51968-.0476532-.3718376-.0425415-.7513313-.0425415-1.1274261-.0017014-9.5026894,0-19.0062313-.0051117-28.5097713-.0008469-.4901066-.0170135-.98703-.0952988-1.4703274-.2918472-1.8038807-1.9161911-3.0589352-3.7319794-2.9134359-1.9970284.1591196-3.2810173,1.6447611-3.2835693,3.8587694-.0085106,8.4305725-.0034027,16.8619938-.0034027,25.2934246,0,1.9621391-.5420113,2.8317451-1.7757988,2.8504639-1.2397385.0187187-1.8183403-.8747101-1.8183403-2.8070717,0-10.6335144,0-21.2670326-.0008507-31.8997002,0-.3769436.0033989-.7538862-.0178719-1.1291218-.0842361-1.4354477-1.0151062-2.6428528-2.3858833-3.1099863-1.3928986-.4747992-2.910881-.0467987-3.8553581,1.0687103-.7224045.8525858-.8636551,1.8608837-.8636551,2.9287491.0051079,10.8070936.0034065,21.6133451.0034065,32.4204397,0,1.6643333-.5666885,2.4888382-1.7281456,2.5237274-1.1810303.0357361-1.8081322-.8406754-1.8081322-2.5305328-.0008545-8.4024925.0017014-16.8041382-.0059586-25.2066326-.0008507-.5181904-.025528-1.0474434-.1335907-1.552021-.332695-1.5562649-1.6787949-2.6471043-3.2937737-2.7236814-1.5375557-.0731745-3.0180931.8959837-3.4724655,2.3714132-.1744308.5675488-.2067642,1.1955013-.2076149,1.7962208-.0110626,11.8792191-.0076599,23.7575798-.0110626,35.636795,0,.4339485-.0017014.8721581-.061264,1.3001518-.2637749,1.9170418-1.557972,3.3873749-3.3252602,3.8111153-1.8566322.4450111-3.5626602-.1931496-4.7088013-1.8106842-2.1927338-3.09552-4.3531303-6.214016-6.5509663-9.3061333-1.337595-1.8804588-3.4886341-2.3007965-5.2380543-1.0712662-1.6405087,1.1529465-1.9859676,3.3516388-.7419701,5.1699791,6.2301826,9.1053276,12.4339905,18.2302246,18.7382011,27.2836456,3.4103508,4.8976974,8.1948776,7.8392105,14.0191879,9.0602341,5.5545845,1.1640091,10.876873.4220352,15.7515984-2.4820328,7.5116119-4.4739609,11.230835-11.2010574,11.2708282-19.9354019.0297775-6.5186348.0059509-13.0381165.0059509-19.5567551ZM40.5959625,89.8580168c-1.7834587-.3488617-3.601799-.5743484-5.3435631-1.0687103-5.8183556-1.6498642-10.6471291-4.8381348-14.1170425-9.8226242-6.3527107-9.1248932-12.6245899-18.3059464-18.8785973-27.4980698-2.6513605-3.8962021-1.4320421-8.6203194,2.6436996-10.7109489,3.1006279-1.5903015,7.0359745-.4671326,9.2559338,2.6649742,2.0761623,2.9295998,4.1310482,5.8745193,6.1961498,8.8117752.2918549.4152298.5045738.9640541,1.1920929.7487755.69347-.2161217.662838-.7879181.662838-1.3469467-.0008507-11.9064445.0017014-23.813736-.002552-35.7201805-.0008507-1.926405.3412056-3.7336864,1.6098747-5.2754889,2.0991364-2.5492554,5.4150352-3.3541918,8.4654579-2.0361671.1778336.0765762.3624802.138689.6381645.2433491-.0944481-2.4471464.5666885-4.5267105,2.3646088-6.1570082,1.3503571-1.2235699,2.9525757-1.8259969,4.7487946-1.8396168,4.0425568-.0297775,6.479496,2.6683788,7.2146606,7.9183416,5.2805939-2.5849857,10.9508972,1.3061123,10.6164932,7.1610537.6373138-.2212257,1.2388916-.4832973,1.8676987-.6381645,4.051918-.9972363,8.8475113,1.826004,8.8143234,7.435894-.0391388,6.6922131-.0093613,13.384428-.0093613,20.076643v20.2493782c.0008545,3.5915833-.4850082,7.1006393-1.8651428,10.4412155-2.8130264,6.8113403-7.6298904,11.6426697-14.4344177,14.4735641-2.3935471.9963837-4.8976974,1.5715866-7.4860916,1.7698441-.1693268.0127563-.3352509.0782776-.5020218.1191177h-3.6520004Z"/>
    </g>
  </g>
</svg>