<?xml version="1.0" encoding="UTF-8"?>
<svg xmlns="http://www.w3.org/2000/svg" version="1.1" viewBox="0 0 88.9976215 96.4072616">
  <!-- Generator: Adobe Illustrator 28.7.4, SVG Export Plug-In . SVG Version: 1.2.0 Build 166)  -->
  <g>
    <g id="Ebene_1">
      <g id="Ebene_1-2" data-name="Ebene_1">
        <path d="M88.9233375,7.3321608c-.1562653-3.6073084-2.487793-6.5600781-6.0288315-7.1619487-1.629982-.2769412-3.4486542-.2205737-5.0443573.2031627l-42.9041176,11.6434994c-1.6486969.4557285-3.2946739,1.2146235-4.7060432,2.1790752-3.2633362,2.2301111-4.2838287,5.6385012-4.2879639,9.4123011l-.0063114,44.2228775c-.6778259-.2143707-1.1839371-.3630142-1.6824322-.5336456-8.2570915-2.8252335-17.7073689.6524734-22.1503963,8.1538239-3.6154697,6.1041336-2.5283804,13.3738098,2.7809467,17.5431595,4.3969994,3.4530029,9.4265556,4.1099396,14.7531853,2.7573318,7.2813225-1.8489227,14.0751419-8.3323898,13.7552185-17.5472946l-.1643143-36.667881c-.0007629-2.225975.3856506-2.7076035,2.6370888-3.3156776l45.5530739-12.2798653v26.7690582c-.5241776-.1645317-.9622726-.2917404-1.393631-.4388618-8.2045288-2.7979202-17.3587189.3770523-22.0019684,7.6333466-4.9334717,7.7097397-1.920742,17.1272583,6.5321121,20.3707886,2.9373169,1.1271362,5.9772491,1.1571655,9.0490646.7373505,8.2590485-1.1288757,15.4669189-8.2631836,15.3832397-17.4207382,0,0-.0735626-56.2598648-.0735626-56.2598619ZM80.4470878,18.5049141l-46.8532219,12.671608.0377617-9.5001163c.0538635-1.3929768,1.2781715-1.9832039,2.4800644-2.3294621l45.3834229-12.2227364.0211105,9.91852c.0368881.8580284-.2096939,1.2318172-1.0691376,1.4621868Z"/>
      </g>
    </g>
  </g>
</svg>