<?xml version="1.0" encoding="UTF-8"?>
<svg xmlns="http://www.w3.org/2000/svg" version="1.1" viewBox="0 0 72.2834625 96.3779511">
  <!-- Generator: Adobe Illustrator 28.7.4, SVG Export Plug-In . SVG Version: 1.2.0 Build 166)  -->
  <g>
    <g id="Ebene_1">
      <g id="Ebene_1-2">
        <g>
          <path d="M64.3576431,0H7.9258175C3.545002,0,0,3.5450034,0,7.925818v80.5263138c0,4.3808212,3.5450039,7.9258194,7.9258175,7.9258194h56.4318256c4.3808212,0,7.9258194-3.5449982,7.9258194-7.9258194V7.9258189C72.2834625,3.5450044,68.7384644.000001,64.3576431,0ZM66.9227295,87.4145722c0,1.9886551-1.6139908,3.6026459-3.6026459,3.6026459H8.9633789c-1.9886589,0-3.602644-1.6139908-3.602644-3.6026459V8.9922013c0-1.9886589,1.6139851-3.6026449,3.602644-3.6026449h54.3567047c1.9886551,0,3.6026459,1.613986,3.6026459,3.6026449v78.4511871-.0288162Z"/>
          <path d="M30.1181068,22.1634717h-14.6987915c-1.5851612,0-2.8821163,1.2969513-2.8821163,2.8821182v14.8428974c0,1.5851631,1.2969551,2.8821144,2.8821163,2.8821144h14.6987915c1.5851631,0,2.8821144-1.2969551,2.8821144-2.8821144v-14.8428955c0-1.5851612-1.2969551-2.8821163-2.8821144-2.8821201ZM28.5329475,38.2456727h-11.5284615v-11.5284615h11.5284615v11.5284615Z"/>
          <path d="M56.2588959,26.7172112l-11.0673256,7.4358559-2.2768745-3.2567863c-.8646317-1.2393112-2.5362587-1.527523-3.7755699-.6628857-1.2393112.8646336-1.527523,2.5362606-.6628838,3.7755718l3.6891098,5.303093c.8934555,1.2969551,2.6515465,1.6139832,3.9773178.7493515l13.1424484-8.8192711c1.2393112-.8358154,1.5851593-2.5074425.7493439-3.7755699-.8358154-1.2393112-2.5074387-1.5851612-3.7755661-.7493591Z"/>
          <path d="M30.1181068,51.9069047h-14.6987915c-1.5851612,0-2.8821163,1.2969551-2.8821163,2.8821144v14.8428993c0,1.5851593,1.2969551,2.8821182,2.8821163,2.8821182h14.6987915c1.5851631,0,2.8821144-1.2969513,2.8821144-2.8821182v-14.8428955c0-1.5851631-1.2969551-2.8821144-2.8821144-2.8821182ZM28.5329475,68.0467591h-11.5284615v-11.7013893h11.5284615v11.7013893Z"/>
          <path d="M56.2588959,56.4606462l-11.0673256,7.4358597-2.2768745-3.2567902c-.8646317-1.2393112-2.5362587-1.527523-3.7755699-.6628838-1.2393112.8646317-1.527523,2.5362587-.6628838,3.7755699l3.6891098,5.303093c.8934555,1.2969513,2.6515465,1.6139908,3.9773178.7493439l13.1424484-8.8192711c1.2393112-.8358154,1.5851593-2.5074425.7493439-3.7755699-.8358154-1.2393112-2.5074387-1.5851631-3.7755661-.7493515Z"/>
        </g>
      </g>
    </g>
  </g>
</svg>