<?xml version="1.0" encoding="UTF-8"?>
<svg xmlns="http://www.w3.org/2000/svg" version="1.1" viewBox="0 0 87.7922297 91.2274618">
  <defs>
    <style>
      .cls-1 {
        fill: #1a1a18;
        stroke: #1a1a18;
        stroke-miterlimit: 10;
        stroke-width: .5187978px;
      }
    </style>
  </defs>
  <!-- Generator: Adobe Illustrator 28.7.4, SVG Export Plug-In . SVG Version: 1.2.0 Build 166)  -->
  <g>
    <g id="Ebene_1">
      <path class="cls-1" d="M80.1073355,59.7077288c-.7883072.8343163-.9391708,2.1055489-.3375931,3.0925484,0,.0183868.7689972,1.3457565.863739,3.1670532.1306229,2.4854431-1.0513992,4.6848297-3.52948,6.5631638-.8830566.6825409-1.2399597,1.859024-.863739,2.9214554,0,.0184174.8067245,2.5231705-.5068359,4.8945541-1.2583694,2.2747955-4.0556335,3.906601-8.2989273,4.8163528-3.3979416.7404785-8.0174561.8738708-13.686512.4185181h-.2630882c-12.0721588.2658386-24.2758636-1.32827-24.4064789-1.34758h-.0193138l-1.8958244-.2271881c.1122322-.530777.1683464-1.1001587.1683464-1.6695328v-30.8436394c0-.8150063-.1306458-1.6115952-.3560066-2.3511467.3375893-1.2712555,1.2767601-4.0979652,3.491787-6.5070534,8.4304428-6.7526512,16.6723557-29.5337524,17.0292587-30.5207539.1499329-.3983097.1867332-.8343201.1122055-1.2703295-.3201027-2.1248617-.2069473-4.7234602.2437744-5.5007381.9952812.0184145,3.6803436.3026409,5.2946625,2.5599728,1.9151382,2.6749258,1.8397102,7.4553995-.2262573,13.7904577-3.1532707,9.6556892-3.4163589,14.7388039-.9189568,16.9777489,1.2390594,1.1185455,2.8911057,1.17556,4.0933609.7395515,1.1452141-.2658424,2.2334137-.4939499,3.2663956-.6641235.0745087-.0193138.1683502-.0377274.243782-.0570412,5.7637939-1.2712288,16.090065-2.0485039,19.6756668,1.251915,3.0419617,2.8073959.8821487,6.5254402.6383743,6.9237518-.6944962,1.0624275-.4884491,2.4468155.4507217,3.3004456.01931.0193138,1.9896698,1.8967247,2.0834808,4.4198952.0754318,1.6879234-.712883,3.4145012-2.3465424,5.1217422ZM8.069879,85.1067424c-1.5214596,0-2.7411757-1.251915-2.7411757-2.7696686v-30.8436394c0-1.5352402,1.2381306-2.7696953,2.7411757-2.7696953h11.4512691c1.521431,0,2.7420731,1.2528419,2.7420731,2.7696953v30.8242989c0,1.5370941-1.2390575,2.7706223-2.7420731,2.7706223h-11.4512691v.0183868ZM84.9135794,61.9264064c1.8397064-2.3713608,2.7227631-4.9129181,2.6096039-7.5299034-.1122055-2.8837547-1.3889618-5.1401596-2.440361-6.5254707,1.2206421-3.0732079,1.6897812-7.9098244-2.3842697-11.6655693-2.9858475-2.7503815-8.0542297-3.9839096-15.0763931-3.642643-4.9377899.2281418-9.0679245,1.1581001-9.2371979,1.1958275h-.0183868c-.9382439.1701736-1.9344521.3789711-2.9481239.6061821-.0745277-1.2142143.1324425-4.2294807,2.3474731-11.0207901,2.6280174-8.0799961,2.4780846-14.2641687-.4884491-18.3989086C54.1610083.600667,49.1855178.2593989,47.7211013.2593989c-1.4083023,0-2.7034454.5877657-3.6233025,1.6686115-2.0834808,2.4477415-1.8397064,6.9614496-1.5775452,9.0486107-2.4780884,6.7149239-9.4239006,23.1803074-15.3008575,27.7510853-.1131554.0763283-.2060471.1710701-.2998886.2658119-1.728405,1.8406372-2.8920059,3.8321266-3.67939,5.577095-1.1084404-.6071091-2.3668098-.9493027-3.7189693-.9493027h-11.4512691c-4.3187227,0-7.8104801,3.5478745-7.8104801,7.8914375v30.8243256c0,4.3628464,3.5110712,7.8914108,7.8104801,7.8914108h11.4512691c1.6713619,0,3.2295952-.5316772,4.5063534-1.4423294l4.4116135.532608c.6770058.0938187,12.6921501,1.629982,25.0273972,1.3843842,2.2334137.1701736,4.3361855.2649155,6.2890472.2649155,3.361145,0,6.2899475-.2649155,8.7303391-.7965927,5.7444839-1.232605,9.6694946-3.6987305,11.6582108-7.3220596,1.5214615-2.7687454,1.5214615-5.5200272,1.2776871-7.2649918,3.7364578-3.414505,4.393219-7.1895905,4.2616806-9.8451996-.0754318-1.536171-.4130249-2.8451233-.7698975-3.8128128"/>
    </g>
  </g>
</svg>