<?xml version="1.0" encoding="UTF-8"?>
<svg xmlns="http://www.w3.org/2000/svg" version="1.1" viewBox="0 0 62.5257921 61.9993172">
  <!-- Generator: Adobe Illustrator 28.7.4, SVG Export Plug-In . SVG Version: 1.2.0 Build 166)  -->
  <g>
    <g id="Ebene_1">
      <path d="M62.3830838,23.8876572l-16.6263123,14.6993103c-.2371826.2108765-.3697815.6288757-.2969818.9375l5.236496,22.0780945c.0727997.3085632-.0830994.4178772-.3491974.2499695l-18.557312-11.9257812c-.2661743-.1719055-.6965027-.1719055-.9617004,0l-18.5152893,11.992218c-.2661133.171875-.4230042.0585938-.3511047-.2500305l5.1599121-22.093811c.0718994-.3085632-.0625916-.7303772-.3006897-.9375L.144177,23.9931564c-.2380981-.2070007-.1745911-.3945007.1409912-.4219055l21.727417-1.710907c.3155823-.023407.6648254-.281311.7796936-.5780945L31.0129819.2197495c.1148071-.2929993.3023987-.2929993.4182129,0l8.2944946,21.0350952c.1157837.2929993.4659119.5508118.7814941.5742188l21.7330017,1.6367798c.3157043.023407.3791046.210907.1428986.421814h0Z"/>
    </g>
  </g>
</svg>