<?xml version="1.0" encoding="UTF-8"?>
<svg xmlns="http://www.w3.org/2000/svg" xmlns:xlink="http://www.w3.org/1999/xlink" version="1.1" viewBox="0 0 77.3184052 100">
  <defs>
    <style>
      .cls-1 {
        fill: none;
      }

      .cls-2 {
        clip-path: url(#clippath);
      }
    </style>
    <clipPath id="clippath">
      <rect class="cls-1" width="77.3180008" height="100"/>
    </clipPath>
  </defs>
  <!-- Generator: Adobe Illustrator 28.7.4, SVG Export Plug-In . SVG Version: 1.2.0 Build 166)  -->
  <g>
    <g id="Ebene_1">
      <g class="cls-2">
        <path d="M75.3651962,8.5055008c-1.0100021.1959991-2.0839996.3930054-3.2009964.590004v-4.7740021l-1.9530029.3799973c-1.2910004.25-2.6809998.503006-4.1389999.7540054V.0005035l-1.9530029.3789978C47.8922005,3.5345001,17.221199,6.9125061,1.837204,5.0475006L.0001984,4.824501v90.0339994l1.3050003.2719998c6.5910034,1.3729999,22.5930023,3.26,38.5250015,4.1969998,12.6469994.7440002,30.0059967,1.3669999,36.4129944-.9819999l1.0750046-.395V8.1255035l-1.9530029.3799973ZM64.9962006,90.2195005l1.0759964-.3940001V8.7845001c.9720001-.1660004,1.9140015-.3309937,2.810997-.4949951v83.5319958c-5.4679947,1.6769996-14.772995,2.4349995-24.8429947,2.5969996,8.3390007-.9660001,15.9659996-2.369,20.9560013-4.1989999M3.2801971,8.4985046c16.1280022,1.4729996,43.8230019-1.6580048,59.512001-4.5309982v83.5459938c-14.1899986,4.6620002-47.7169991,6.2870002-59.512001,4.4800005V8.4985046ZM74.0382004,95.6255002c-3.427002,1.0510001-10.3740005,1.375-17.5699997,1.5090001,6.007-.497,11.1669998-1.3269999,14.6199951-2.5929997l1.076004-.395V12.426506c.6399994-.1119995,1.2699966-.2229996,1.8740005-.3330002v83.5319943Z"/>
        <path d="M22.5723991,39.2691002c-1.4920006,1.1810036-3.4890003,1.7740021-5.4099998,1.7740021-2.4030008,0-4.7860003-.5820007-6.7980003-2.2249985l2.2209997-3.7299995c1.2390003,1.0159988,2.7060003,1.9389992,4.3989992,1.9389992,1.1640015,0,2.3050003-.3490028,2.3050003-1.5990028,0-1.298996-1.8470001-1.3689957-2.9109993-1.6419983-2.2979994-.586998-5.158-1.3590012-5.158-5.5139999,0-3.6119995,2.7560005-5.9729996,6.5740004-5.9729996,1.9209995,0,4.3689995.8830032,6.0629997,1.7799988l-2.1150017,3.5159988c-.9719982-.6279984-2.5449982-1-3.2879982-1-.9099998,0-2.0760002.2550049-2.0760002,1.2460022,0,1.0390015,1.1520004,1.2369995,2.1989994,1.5169983,0,0,1.2859993.2800064,1.8339996.4599991,2.3670006.776001,4.1329994,1.6100006,4.1329994,4.7570038,0,1.7699966-.4549999,3.4909973-1.9719982,4.6939964"/>
        <path d="M33.6539993,22.657196h-7.8959999v17.8440018h5.0839996v-5.887001h2.5879974c4.493,0,5.946003-2.5809937,5.946003-6.0739975,0-2.5970001-1.1840019-5.8830032-5.7220001-5.8830032M31.2269993,30.7121964h-.394001v-4.1689987h.394001c1.8029995,0,3.3449993.0009995,3.3449993,2.0830002,0,2.1829987-1.6599998,2.0859985-3.3449993,2.0859985"/>
        <path d="M48.0305977,22.7301025h-7.5340004v17.843998h7.5340004c4.9340019,0,7.9720001-3.9399986,7.9720001-8.9449959,0-5.0040054-3.0139999-8.8990021-7.9720001-8.8990021M46.0806007,36.417099h-.552002v-9.5299988h.5999985c2.9740028,0,4.7830009,1.9430008,4.7830009,4.6650009,0,3.2389984-2.0690002,4.8649979-4.8309975,4.8649979"/>
      </g>
    </g>
  </g>
</svg>