<?xml version="1.0" encoding="UTF-8"?>
<svg xmlns="http://www.w3.org/2000/svg" version="1.1" viewBox="0 0 63.1248035 91.6745873">
  <defs>
    <style>
      .cls-1 {
        fill: #1a1a18;
        stroke: #1a1a18;
        stroke-width: .9659244px;
      }
    </style>
  </defs>
  <!-- Generator: Adobe Illustrator 28.7.4, SVG Export Plug-In . SVG Version: 1.2.0 Build 166)  -->
  <g>
    <g id="Ebene_1">
      <path class="cls-1" d="M23.4793002,64.6570191c-1.7271729-1.2208557-3.6052132-2.9674454-5.6323318-5.2424469-1.9265747-2.075634-3.4932251-4.0577698-4.6964264-5.9472771-1.204977-1.8895035-1.8498249-3.3291168-1.9362659-4.3188667-.0829144-.9482689.3537312-2.0147667,1.3090782-3.1994476.9562054-1.1847038,1.8674564-1.8154182,2.7336979-1.8912811,1.0717735-.0934944,2.2511787.3325729,3.539959,1.2799492,1.2878914.9465179,2.6410637,2.397625,4.0586281,4.3506355,1.9327393,2.61549,3.5911369,5.3068428,4.9760742,8.0740814,1.3849144,2.7672119,2.1117859,4.5429306,2.1805954,5.3253632.0643921.7427597-.1640816,1.4590225-.6845284,2.1479721-.5222015.6907196-1.1335335,1.0656052-1.8339157,1.1273651-.9491806.0829086-2.2864723-.4860458-4.0145645-1.7060471ZM8.3579566,67.4445328c-.0731964.3599243-.0890789.7665787-.0493984,1.2199707.2134781,2.4337769,1.7704372,4.8005219,4.6734886,7.1028519,2.9021912,2.3014679,5.6526604,3.3388367,8.2513809,3.1112518,1.648674-.1437759,3.023922-.8150864,4.1248016-2.0130157,1.1000137-1.1961441,1.5834198-2.5581436,1.4502182-4.0850906-.0220451-.246994-.0820503-.5848389-.1817093-1.0126877-.1005745-.4269257-.2319984-.861824-.3951912-1.3055191.4225121.0881882.8018456.1481934,1.1379204.1808167.3352089.0335159.688942.0335159,1.0594444.0008926.3713646-.0326538.7065773-.1235123,1.0047188-.2743454.2981682-.1508331.599865-.384613.9050598-.7030487l.0485344.5566025c.2919769,3.3406143,1.0514793,5.9657974,2.2785034,7.873848,1.2261658,1.9080276,2.751358,2.8448257,4.5782204,2.8095627l.0750008-.5681-.0379333-.4331207c-.0397072-.4525299-.4639969-1.6107483-1.270256-3.4729233-.8080406-1.8612671-1.2702599-3.4729004-1.3893547-4.8340225-.1949577-2.2273483.3510933-4.6531906,1.6380959-7.2801743,1.2870293-2.6269608,3.0883179-4.9557495,5.4038887-6.9872856,1.0823555-.925354,2.6798859-1.9062767,4.7916985-2.9436455,2.1117859-1.0364838,3.4887848-1.915081,4.1327438-2.6366501-.1993713-.8556595-.493988-1.4846268-.8812332-1.8868675-.3890305-.4022446-.8715439-.5777893-1.4493332-.527504l-2.5361061.2222824c-7.0111084.6130791-12.1389046.42873-15.3833313-.5557442-3.2444572-.9835548-4.9884033-2.8774757-5.2345352-5.6817322-.1040726-1.1961746.1314507-2.0685768.7065773-2.6181564.5751495-.5486603,1.6054688-.8882866,3.0900917-1.0179596,5.3200874-.4657478,10.4716797-.355484,15.4565582.3307953,4.9848747.6854172,8.3828011,1.6566162,10.1973381,2.9101334,1.0126572.6598129,1.7968674,1.786293,2.3526077,3.3785172.5539703,1.5940018.9526825,3.7719574,1.1944046,6.5338936.7903748,9.0320396-1.2640991,16.7850151-6.161644,23.260685-4.898407,6.4747772-11.3687973,10.0641327-19.4102249,10.7680664-4.3717957.3819733-8.4383698-.1446686-12.200634-1.5825272-3.7622375-1.4360886-7.0022793-3.6775818-9.7200947-6.7226639-1.7924843-1.9627304-3.2029972-3.9483643-4.2297897-5.9569626-1.0285683-2.008606-1.61516-3.8583984-1.7633572-5.5494232-.1843758-2.1038742.2637386-3.9819107,1.3461208-5.6350021,1.0805779-1.6522293,2.3429222-2.5422935,3.7869511-2.6684418.6589279-.0582008,1.5781193.3510971,2.7557449,1.223526,1.1776276.8741837,2.6834106,2.2899704,4.5173531,4.249176,1.601944,1.688385,2.8783684,3.2179871,3.8301849,4.5887985.9509048,1.3725815,1.4537201,2.366745,1.507534,2.9850998.0467606.5363388-.2170029,1.0788345-.7930145,1.6275177-.5751534.5495834-1.2552643.8582993-2.0377045.9262238-2.3102951.2020035-4.9892883-1.4537201-8.0396767-4.9689941-1.1502743-1.2702637-2.044754-2.2308807-2.6834106-2.881897-.2258339.269043-.3757782.5839844-.4472523.9429932ZM36.3741824,57.0769524c-1.0047455,1.1070671-1.9477348,2.3208733-2.828968,3.6449165-.4419518-1.2490692-.9782829-2.5113869-1.6089973-3.7860603-.6316032-1.2746735-1.3346519-2.5422668-2.1091461-3.8054733,1.4898987.410183,3.0415573.6906929,4.6549683.8397751,1.6125221.1499748,3.3088188.1887665,5.0898361.1155701-1.1273651.8882866-2.1938362,1.8859787-3.1976929,2.991272ZM27.265391,35.9633469c-.7462807.0238228-1.2429047.0458717-1.4907875.0679207-.7833252.0688057-1.3937683.2152252-1.8313026.4410591-.4375381.2249451-.7595024.5751534-.9676781,1.0506172-3.5549507-7.3771973-6.2595482-13.3535728-8.1137619-17.9282646-1.8551006-4.5755806-2.8651485-7.8112068-3.0309772-9.7086535-.0970478-1.1132336.0926323-2.0235682.5716248-2.7301712.4781036-.7065754,1.1502743-1.098238,2.0165157-1.174099,1.1132317-.0970211,2.2097206.5654325,3.2903252,1.9874134,1.0806084,1.4228697,2.7010727,4.5120764,4.8631439,9.2675924l8.3695869,18.7160072c-1.7060432-.0158844-2.9312935-.0132446-3.6766891.0105782ZM38.4304034,36.0462593l4.6223412-18.4195862c1.0708885-4.3735714,2.1206169-7.572154,3.1491547-9.5948601,1.0285721-2.0218182,2.1197586-3.0839033,3.2744446-3.1844769.9068375-.0793877,1.6478195.1887913,2.2211914.8027344.5733719.6148586.9121094,1.5207787,1.0170746,2.7160645.0970459,1.1132336-.4137115,4.1812534-1.5322495,9.2040596-1.1193924,5.021946-2.7328033,11.4076176-4.8384247,19.1552906l-7.9135323-.6792259ZM55.5127284,17.9080433c.958847-4.9460564,1.3602295-8.3254623,1.2014465-10.1408567-.2099457-2.3914328-1.0056305-4.2447844-2.3879013-5.5573888-1.383194-1.3126044-3.1253586-1.8771486-5.2283478-1.6927991-4.2897644.3749185-8.6527557,9.4007931-13.0898323,27.0767632-.6201363,2.4223118-1.099987,4.2941837-1.4422531,5.6111736-.6765862-1.561348-1.6610603-3.7816467-2.9507027-6.660902C24.1603037,9.7422451,18.4944255,1.5111636,14.6183955,1.8499011c-2.2679501.198483-3.9960155,1.1088181-5.184248,2.7292819-1.1882057,1.6213531-1.6698627,3.7102032-1.4466667,6.2666035.162302,1.8559904,1.1785145,5.163949,3.0503864,9.9247694,1.8709564,4.7608185,4.7872543,11.4975815,8.749752,20.2102928-1.1273384-.5248642-2.1144485-.884758-2.9621696-1.0814667-.8485794-.1949539-1.6433716-.2611237-2.3861275-.1958427-1.7316189.151722-3.4931984,1.2826157-5.2821579,3.3917618-1.7898197,2.1100349-2.6022453,4.0921745-2.4399433,5.9481621.0467606.536335.2575741,1.2861443.6324921,2.2511787.3748913.9641495.9359093,2.141777,1.6804428,3.5302429-3.2382908.9906387-5.5353413,2.5211067-6.8911533,4.5923233-1.356699,2.0729942-1.8798141,4.8816948-1.5692883,8.4287071.2778702,3.1756134,1.292305,6.2136459,3.0415573,9.1149521,1.7501106,2.9012985,4.2289009,5.582962,7.4362869,8.0449829,2.8148613,2.2476196,6.0857525,3.9042664,9.8162518,4.9698486,3.7287521,1.0656128,7.5121765,1.4308167,11.347641,1.0956039,9.7324486-.8521347,17.4333878-4.8604813,23.1019058-12.0259781,5.6694031-7.1663589,8.0493698-15.9452362,7.1398926-26.3384171-.4578018-5.2371483-1.5578156-9.0055771-3.2956009-11.3061562-1.7386703-2.2988281-4.4944153-3.6370049-8.2681503-4.0136719,2.1223907-8.0396538,3.6634674-14.5329514,4.62323-19.4790363Z"/>
    </g>
  </g>
</svg>