<?xml version="1.0" encoding="UTF-8"?>
<svg id="Ebene" xmlns="http://www.w3.org/2000/svg" version="1.1" viewBox="0 0 1111.7 161.4">
  <!-- Generator: Adobe Illustrator 29.1.0, SVG Export Plug-In . SVG Version: 2.1.0 Build 142)  -->
  <polygon points="71.9 0 0 71.9 0 0 71.9 0"/>
  <polygon points="192 0 30.6 161.4 0 161.4 0 120.1 120.1 0 192 0"/>
  <polygon points="312.1 0 150.7 161.4 78.9 161.4 240.2 0 312.1 0"/>
  <polygon points="432.2 0 270.9 161.4 199 161.4 360.4 0 432.2 0"/>
  <polygon points="552.4 0 391 161.4 319.1 161.4 480.5 0 552.4 0"/>
  <polygon points="672.5 0 511.1 161.4 439.2 161.4 600.6 0 672.5 0"/>
  <polygon points="792.6 0 631.2 161.4 559.3 161.4 720.7 0 792.6 0"/>
  <polygon points="912.7 0 751.3 161.4 679.5 161.4 840.9 0 912.7 0"/>
  <polygon points="1032.8 0 871.5 161.4 799.6 161.4 961 0 1032.8 0"/>
  <polygon points="1111.7 0 1111.7 41.2 991.6 161.4 919.7 161.4 1081.1 0 1111.7 0"/>
  <polygon points="1111.7 89.5 1111.7 161.4 1039.8 161.4 1111.7 89.5"/>
</svg>