<?xml version="1.0" encoding="UTF-8"?>
<svg xmlns="http://www.w3.org/2000/svg" version="1.1" viewBox="0 0 60.4557228 60.4560165">
  <!-- Generator: Adobe Illustrator 28.7.4, SVG Export Plug-In . SVG Version: 1.2.0 Build 166)  -->
  <g>
    <g id="Ebene_1">
      <path d="M59.577034,5.1212387c1.1715851-1.1715393,1.1715851-3.0709229,0-4.2423096-1.1709137-1.1719055-3.0713196-1.1719055-4.2423096,0l-8.1210938,8.1213684c-4.6603088-3.7364807-10.561615-5.9862671-16.985611-5.9862671-6.4240112,0-12.3252869,2.2497864-16.9857788,5.9862671L5.1211472.8789291C3.9500961-.2927628,2.0497055-.2927628.8789291.8789291-.2929764,2.0503159-.2929764,3.9496994.8789291,5.1212387l8.1210938,8.1210938c-3.7365112,4.6602783-5.9865112,10.5613708-5.9865112,16.9855957,0,6.4239807,2.2499084,12.32547,5.9865112,16.9857788L.8789291,55.3347092c-1.1719055,1.1712952-1.1719055,3.0710144,0,4.242218.5854797.5860596,1.3535156.8790894,2.1210022.8790894.7677002,0,1.5357971-.2930298,2.1212158-.8790894l8.1211853-8.1211853c4.6604004,3.7364807,10.561676,5.9862671,16.9856873,5.9862671,6.423996,0,12.3253021-2.2497864,16.9853973-5.9861755l8.1213074,8.1211548c.5854034.5859985,1.3535004.8790283,2.1210938.8790283.7676086,0,1.5355988-.2930298,2.1212158-.8790283,1.1715851-1.1715698,1.1715851-3.0706787,0-4.2422791l-8.1213074-8.1210022c3.736496-4.6603088,5.9866028-10.5617981,5.9866028-16.9857788,0-6.4242249-2.2498169-12.3255005-5.9865112-16.9855957l8.1212158-8.1210938h0ZM15.4895248,49.2087326l14.7384033-14.7386169,14.7383881,14.7386169c-4.0769958,3.1729736-9.1835938,5.0828857-14.7382965,5.0828857-5.5545044,0-10.6612854-1.9099121-14.7384949-5.0828857h0ZM25.9858017,30.2280197l-14.7385864,14.7385254c-3.1734009-4.0771484-5.0834961-9.1841125-5.0834961-14.7386169,0-5.554718,1.9100952-10.6613159,5.0834961-14.7384033l14.7385864,14.7384949h0ZM44.966423,11.2473373l-14.7384949,14.7385559-14.7384033-14.7385559c4.0772095-3.1730042,9.1839905-5.0829468,14.7384949-5.0829468,5.5547028,0,10.6613007,1.9099426,14.7384033,5.0829468h0ZM49.2086258,15.4895248c3.1732025,4.0770874,5.0835114,9.1836853,5.0835114,14.7384033,0,5.5545044-1.9103088,10.6614685-5.0835114,14.7386169l-14.7386169-14.7385254,14.7386169-14.7384949h0Z"/>
    </g>
  </g>
</svg>