<?xml version="1.0" encoding="UTF-8"?>
<svg xmlns="http://www.w3.org/2000/svg" version="1.1" viewBox="0 0 81.6453057 88.7985852">
  <!-- Generator: Adobe Illustrator 28.7.4, SVG Export Plug-In . SVG Version: 1.2.0 Build 166)  -->
  <g>
    <g id="Ebene_1">
      <g>
        <path d="M39.6204521,88.7985852c-1.83601-.3798828-3.6403198-.8343735-5.2442017-1.8769684-2.057888-1.3376236-3.629097-3.0858536-4.6882744-5.3627014h22.271019c-.7090416,1.688736-1.8218651,3.0922012-3.2072792,4.2835312-1.8413696,1.582428-3.9338799,2.6064911-6.3492165,2.9088364-.1077728.0131683-.1999359.0219421-.3540344.0473022h-2.4280128Z"/>
        <path d="M40.8289024,78.1116193c-7.2889252.023407-14.5734558-.2150574-21.7980042-1.1581726-4.4542046-.5817719-8.8874397-1.4449158-13.2636213-2.4665375-5.3700132-1.2542419-7.4898329-7.2694168-4.1991634-11.702652,2.8625135-3.8553696,5.6231079-7.7638931,7.8375273-12.0347404,2.3831539-4.5961151,4.1577148-9.3945999,4.6726742-14.5841789.1911583-1.9237862.1472702-3.8739014.3906078-5.7893944.8509502-6.6998367,3.9212036-12.2483253,8.9537601-16.7161846,2.2870827-2.0300903,4.8682213-3.6086159,7.7429237-4.6721821.5910339-.2184744.800724-.5154514.8724098-1.1596375.4540024-4.0679827,3.8777962-7.3737731,7.9813805-7.7863226,4.0026398-.402318,7.8897095,2.1495609,9.1844215,6.0415058.172142.5183744.4262085,1.0611258.4028015,1.5814505-.0404739.8987417.4686317,1.1196489,1.1567039,1.4161415,9.142971,3.938755,14.5607719,10.8697395,16.3767891,20.621294.2574844,1.3829803.3140488,2.816185.3359909,4.2284241.0824051,5.2168884,1.5809631,10.0685272,3.7661209,14.7348633,2.288063,4.8848,5.1959305,9.3941078,8.5295105,13.6283836,1.7760315,2.2548981,2.3699875,4.742897,1.4327164,7.4752045-.8841019,2.5762558-2.7747269,4.096756-5.3904953,4.7892227-5.1217957,1.3556671-10.3255234,2.2602615-15.6033707,2.6377029-6.4516182.4617996-19.378273.9982224-19.3816833.9158096"/>
      </g>
    </g>
  </g>
</svg>