<?xml version="1.0" encoding="UTF-8"?>
<svg xmlns="http://www.w3.org/2000/svg" version="1.1" viewBox="0 0 45.6626892 68.9626767">
  <!-- Generator: Adobe Illustrator 28.7.4, SVG Export Plug-In . SVG Version: 1.2.0 Build 166)  -->
  <g>
    <g id="Ebene_1">
      <path d="M8.3747864,11.9821774h-3.6557922v45.5860291c0,1.3007812-1.0559998,2.359375-2.3595276,2.359375-1.3032837,0-2.3594666-1.0585938-2.3594666-2.359375V9.622894c0-1.304718,1.0561829-2.359436,2.3594666-2.359436h6.0153198v4.7187195h0ZM45.6624908,45.872894v6.7030945c0,.1054993-.0472107.1991882-.061203.3007812.0139923.1054077.061203.1953125.061203.304718v4.7342834c0,1.0469055-.6880035,1.968811-1.6899109,2.2618103l-29.3327789,8.6875c-.2200012.0625-.4456177.0975952-.6697083.0975952-.5028992,0-.9993286-.1640015-1.4119873-.468689-.5962219-.4493103-.9476013-1.1484985-.9476013-1.890686V2.3571774c0-.7225952.3332825-1.4100952.9040833-1.8554077.5715942-.4491882,1.3154907-.6054993,2.0192871-.4335938l29.3331146,7.218689c1.0539856.2578125,1.7955017,1.2032166,1.7955017,2.2891235v12.3789062h.0001984v23.9179993h-.0001984ZM40.9435883,52.5759885V11.4275815l-24.61409-6.0585938v58.0741882l24.61409-7.289093v-2.9725952c0-.1094055.0473938-.1993103.0611877-.304718-.0137939-.101593-.0611877-.195282-.0611877-.3007812h0ZM23.8095856,34.8728635c0,1.5976257-.8713837,2.8945007-1.9460907,2.8945007-1.0765076,0-1.9479065-1.296875-1.9479065-2.8945007,0-1.5976868.8713989-2.890686,1.9479065-2.890686,1.074707,0,1.9460907,1.2929993,1.9460907,2.890686h0Z"/>
    </g>
  </g>
</svg>