<?xml version="1.0" encoding="UTF-8"?>
<svg xmlns="http://www.w3.org/2000/svg" version="1.1" viewBox="0 0 89.2725388 89.2583945">
  <defs>
    <style>
      .cls-1 {
        fill: #e3000f;
      }
    </style>
  </defs>
  <!-- Generator: Adobe Illustrator 28.7.4, SVG Export Plug-In . SVG Version: 1.2.0 Build 166)  -->
  <g>
    <g id="Ebene_1">
      <g>
        <path d="M84.0427033,47.2464316c0,10.5172043-.0034256,20.888504.0116425,31.2598114.0006866.47332-.1972733.6445618-.5918198.7932053-5.5627365,2.0953598-11.2734222,3.5666962-17.1889267,4.2516785-10.0466194,1.1637878-19.9082947.2822113-29.4843369-2.9447327-5.5730057-1.8782196-11.0035362-4.1770172-16.5121574-6.2497711-2.8413048-1.0692596-5.5805454-2.298111-7.9087982-4.3009949-6.0655079-5.2168198-9.5554886-13.5222168-5.0736561-22.3009415,1.872056-3.6660156,3.5043631-7.4546509,5.2435322-11.1884804,5.8942661-12.652977,14.6161346-22.8866005,26.2594452-30.599493.6349792-.420578,1.4939423-.6747074,2.2577019-.6966248,2.8159599-.0815153,5.6353416-.0205488,8.4533539-.037674,1.2699585-.0075359,2.1522102.5356531,2.7043037,1.6775169.9610291,1.9843931,1.9282227,3.9653587,2.9289818,5.9298878.2260437.4438648.1746712.7041607-.1726151,1.0459671-2.0686417,2.0391884-4.1249619,4.0920773-6.1600342,6.1655159-.370575.3774223-.6548424.4253712-1.1220016.1822052-1.672039-.8712978-3.366684-1.69944-5.053791-2.5419655-1.2459793-.6219654-2.4844246-1.2603683-3.7420578-1.8569889-1.3733826-.6514149-2.8549995-.1794605-3.5187492,1.0829563-.6568947,1.2487259-.2438507,2.6823883,1.0041847,3.4810772.1589165.1020622.322628.1979599.472641.2897491-.0541153.1294594-.0643921.1911087-.0993271.2315216-.095211.1095943-.1993294.2116585-.3020706.3144073-4.6688347,4.7051392-6.3573189,10.2788334-5.0962639,16.8149242,1.1713181,6.0716743-.6651192,11.17136-5.3497047,15.221653-1.2521477,1.0822716-2.5412846,2.122757-3.8105526,3.1858482-.8480072.7089539-1.2555714,1.6001167-.9939117,2.7022552.4767532,2.0124741,2.7056808,2.6577225,4.3989544,1.2630997,2.7132111-2.2344055,5.3955994-4.5051193,8.1088066-6.7395287,10.1706047-8.3766365,25.0963478-6.0319481,32.2311172,5.0592728.5651093.8781471,1.0582962,1.8049278,1.647377,2.6659431,1.0802155,1.5816269,3.3029785,1.5747757,4.3297653.0020599.6377182-.9767838.5836029-1.9720612-.0280838-2.9481621-1.0452805-1.6658707-2.0926132-3.3303757-3.1755753-5.0531044,4.2126389-4.155098,9.2876663-6.2100449,15.3326263-6.1620941M89.2725388,43.9359152c-.6938858-1.5117493-1.8953552-1.9234276-3.5105286-1.9508247-4.6188354-.0767174-9.0924454.4637337-13.3119354,2.473465-2.5104523,1.1959801-4.7852783,2.7303391-6.7998047,4.6482849-.2089157.1986465-.4233246.3911247-.6425171.5931931-8.738987-6.7381592-18.2081718-8.0642815-28.5171394-3.9509697.1068573-.7507401.220562-1.4740791.3123512-2.2008438.2945442-2.3309898.0664444-4.633213-.3794785-6.9265327-.8493767-4.3742905.330162-8.14991,3.4029884-11.3501396.6623726-.690464,1.3514671-1.356266,2.0802841-2.0850868,1.6836853.8391056,3.3632622,1.6740932,5.0400963,2.5125103,1.9912376.9952793,2.7275963.8747215,4.3160629-.7137508,2.9365158-2.9371948,5.8757706-5.8723431,8.8102341-8.8122826,1.2987213-1.3000965,1.4446259-2.1816654.6397705-3.8221989-1.2377625-2.5262079-2.487854-5.0469398-3.7194481-7.5765762C55.4392487,1.5848901,52.9082429-.0138562,49.3504502.0053232c-2.788559.0143824-5.5771179.0246563-8.3656769-.0047975-1.8665733-.0198584-3.5214882.5233312-5.0688591,1.5569701C23.51638,9.8409664,14.1670682,20.737654,7.8522279,34.2427504c-1.8056116,3.8619232-3.5899906,7.7341232-5.4099846,11.5898819-4.1592112,8.8109131-2.9029555,16.973835,2.9830961,24.5415077,2.7077284,3.4810791,6.1312666,6.1223679,10.2370462,7.7396088,6.6888428,2.6344376,13.381794,5.2723007,20.159687,7.6628876,5.7716484,2.035759,11.7994881,2.9947357,17.9150009,3.3358612.2842636.0157471.5644264.0958939.8466377.1458969h7.1464081c.4288025-.0548019.8569107-.1171341,1.2863998-.1623383,1.9912338-.210289,3.9906921-.3644104,5.9744034-.6322403,6.1292114-.8295135,12.0036087-2.6070404,17.7704773-4.7976074,1.1082916-.4212646,2.0110931-.9761047,2.5111389-2.0775528v-37.6527405Z"/>
        <path d="M53.1649758,36.0033552c.0945206,1.3151665.5383911,2.1460495,1.5316162,2.6125221.9897995.4644165,1.9686317.3589287,2.7625313-.3575592,1.0973358-.9891129,2.1522064-2.0357628,3.135849-3.1372147.9110184-1.0219955.7925186-2.5289536-.1459045-3.4797058-.9363708-.9487038-2.4529228-1.0904961-3.476284-.1835747-1.1267967.9980164-2.1857758,2.0823441-3.1906433,3.2036552-.3602982.4014015-.4767494,1.0213089-.6171646,1.341877"/>
        <path d="M42.1738335,30.8372252c-1.3103714.0842552-2.130291.4911346-2.6159439,1.4357224-.5185318,1.0076065-.4377022,2.0152168.2965965,2.8413048.9822617,1.1035042,2.0323372,2.1556358,3.1331062,3.1399536,1.0487022.9391098,2.5988159.8069077,3.542717-.1794662.9247284-.966507,1.0165138-2.4645615.0979576-3.4838142-.9692497-1.076107-2.0008354-2.1049461-3.0810471-3.0694046-.4260597-.3808479-1.0555573-.5329132-1.3733864-.6842957"/>
        <path class="cls-1" d="M45.8935563,72.6790411l1.3185844-.8671875c4.8044586-2.7673264,7.9588013-4.6489716,8.5382957-7.6032944.4712639-2.4036026-1.0583-4.6407471-3.5002556-5.1195526-1.3459892-.2644005-2.8084259.0945282-3.8735695.9329453-.6692314-1.1781654-1.8878098-2.0638466-3.2331123-2.3275681-2.4419594-.4788017-4.7044525,1.0144577-5.1757202,3.4180603-.5794945,2.9536362,1.6302567,5.8880997,5.0325584,10.2651291l.893219,1.3014679Z"/>
      </g>
    </g>
  </g>
</svg>