<?xml version="1.0" encoding="UTF-8"?>
<svg xmlns="http://www.w3.org/2000/svg" version="1.1" viewBox="0 0 83.672837 70.3393545">
  <!-- Generator: Adobe Illustrator 28.7.4, SVG Export Plug-In . SVG Version: 1.2.0 Build 166)  -->
  <g>
    <g id="Ebene_1">
      <path d="M83.5362252,36.2240591c-.7927246-3.6460571-12.437439-32.0264282-12.437439-32.0264282l-22.8372192-.0325928c-.9603882-2.4358521-3.3217163-4.1650381-6.0985107-4.1650381s-5.1382446,1.7291861-6.0987549,4.1650381H13.2460031S1.3227233,31.9463491.1561593,36.2240591c-.9329224,3.4200439,2.1765747,12.7479248,13.0592651,12.7479248,10.8827515,0,13.2148438-9.1727295,12.437561-12.7479248-.5881348-2.7045898-7.1438599-17.843811-10.4920044-26.0889912h20.9033203c.6657715,1.6881104,2.0933228,2.5236816,2.0933228,2.5236816v51.2869892h-11.0284424c-1.0303955,0-1.8656006.835144-1.8656006,1.8655396v4.5280762h33.145752v-4.5280762c0-1.0303955-.8353882-1.8655396-1.8656616-1.8655396h-10.6669922V12.6587496s1.7192383-.8355713,2.3848877-2.5236816h20.8044434c-3.4493408,8.1262836-10.1644897,22.9279194-11.0263672,26.0889912-.9329834,3.4200439,2.1763306,12.7479248,13.0591431,12.7479248,10.8827515,0,13.2149658-9.1727295,12.437439-12.7479248ZM13.0021676,44.025939c-4.4837646,0-6.762208-2.645752-7.5647593-4.9623413h14.812623c-.6834106,2.329895-2.7371216,4.9623413-7.2478638,4.9623413ZM20.0887765,34.5093374H5.5986022c1.6751709-4.5827637,7.4141855-17.9743061,7.4141855-17.9743061,0,0,5.5421753,13.5075092,7.0759888,17.9743061ZM42.268525,9.8280611c-1.598877,0-2.8948975-1.2960815-2.8948975-2.8948364,0-1.598877,1.2960205-2.8949585,2.8948975-2.8949585,1.5988159,0,2.8948364,1.2960815,2.8948364,2.8949585,0,1.5987549-1.2960205,2.8948364-2.8948364,2.8948364ZM71.0760201,16.5350313s5.5421753,13.5075092,7.0759888,17.9743061h-14.4901733c1.6751709-4.5827637,7.4141846-17.9743061,7.4141846-17.9743061ZM71.0654,44.025939c-4.4837646,0-6.762207-2.645752-7.5647583-4.9623413h14.812561c-.6833496,2.329895-2.7371216,4.9623413-7.2478027,4.9623413Z"/>
    </g>
  </g>
</svg>