<?xml version="1.0" encoding="UTF-8"?>
<svg xmlns="http://www.w3.org/2000/svg" version="1.1" viewBox="0 0 72.7778874 75.0253121">
  <!-- Generator: Adobe Illustrator 28.7.4, SVG Export Plug-In . SVG Version: 1.2.0 Build 166)  -->
  <g>
    <g id="Ebene_1">
      <g>
        <path d="M55.6207043,24.8514802c-.3320312-.0058594-.7480469.1401367-1.0322266.4179688-.2832031.277832-.4384766.6396484-.4375,1.0195312.0029297.7714844.6582031,1.4272461,1.4306641,1.4311523h.0078125c.7695312,0,1.4277344-.6469727,1.4394531-1.4160156.0107422-.7700195-.6337891-1.4355469-1.4082031-1.4526367Z"/>
        <path d="M69.9380871.0531441c-.6230469.175293-1.2353516.3862305-1.8476562.5966797l-.3876953.1328125c-2.1308594.7290039-3.6806641,2.0664062-4.7363281,4.0893555-.0703125.1333008-.1464844.2636719-.2128906.3764648l-.4033203.7026367-.6445312-.2441406c-.2451172-.0932617-.484375-.1889648-.7197266-.2832031-.4746094-.1894531-.9228516-.3691406-1.3720703-.5048828-2.3525391-.7089844-4.5849609-.1040039-7.2138672,1.0234375-.4990234.2148438-.7568359.8955078-.5732422,1.5175781.2871094.9707031.5771484,1.9179688.9511719,2.8203125,1.3994141,3.387207,5.0654297,5.4526367,8.7001953,4.9018555.5517578-.0830078,1.1142578-.2304688,1.7109375-.3867188.296875-.0776367.6015625-.1577148.9169922-.2329102l.7412109-.1777344,1.9785156,6.5356407-1.1689453.6826172-.6064453-.4213867c-.1289062-.090332-.2578125-.1811523-.3896484-.265625-4.3183594-2.7558556-8.5966797-3.4804649-13.0761719-2.2123985-2.7470665.7763672-5.1669884,2.3359337-7.3974571,4.7680626-1.1787109,1.284668-2.4111328,2.2075195-3.7685547,2.8208008-.6894531.3105469-1.2832031.203125-1.8173828-.3325195-6.2885742-6.298336-10.5551758-12.8662071-13.0439453-20.079586-.3525391-1.0205078-.8916016-1.1918945-1.3720703-1.2250977-.4731445-.0322266-1.0136719.059082-1.4873047.9775391-.6123047,1.1855469-1.2333984,2.3666992-1.8544922,3.5483398l-1.1289062,2.1518555c-1.2529316,2.3999023-1.8247089,4.8510742-1.6997089,7.2841797.0483398.9462891.1850586,1.883297.3295898,2.8749962.065918.4521484.1318359.90625.1899414,1.3632812l.1625977,1.2836914-1.2250977-.4169922c-.171875-.0532227-.3012695-.0952148-.4243164-.1508789-6.0253906-2.7294922-10.6035156-5.7060509-14.4077139-9.3671837-.7749023-.7451172-1.3286133-.6459961-1.769043-.4487305C.4361368,13.9501168-.0077108,14.2870308.0001017,15.3104683c.0102539,1.359375.0083008,2.71875.0063477,4.0786133l-.0009766,2.3613243c.0053711,3.0859375.9082031,5.9555664,2.6826172,8.5283203.2773428.4018555.4658194.8071289.5605459,1.2045898,1.184082,4.96875,3.8901367,9.0761719,8.0429688,12.2070312,2.1621094,1.6289062,4.6767578,2.8310547,7.4750977,3.5722656l.6655293.1767578-.0683594.6845703c-.0073242.34375-.168457.546875-.3022461.6572266-.0771484.0751953-.1860352.1787109-.3383808.265625-4.6420898,2.6992188-9.5664062,4.3300819-14.6323242,4.8437538-.6748047.0683594-1.4750967.1611328-2.2558584.1328125-1.1630859-.0136719-1.4663086.4013672-1.6821289.8457031-.2304688.4726562-.2543945.9570312.3759766,1.7910156,1.6279297,2.1523438,3.2519522,4.3076172,4.8764639,6.4628906,2.6704102,3.5429688,5.3408203,7.0869141,8.0258789,10.6181641.2641602.3476562.6318359.6572266,1.0209961.984375.1176758.0996094.2353516.1982422.3510742.2998047h.5820312c.1137695-.1005859.2299805-.1982422.3457031-.296875.3891602-.3291016.7563477-.640625,1.0209961-.9902344,2.4262714-3.2011719,4.7968769-6.3447266,7.1259785-9.5986328,3.4453125-4.8105469,8.1855469-7.25,14.0893555-7.25.0927734,0,.1845703.0009766.2763672.0009766,3.1464844,0,6.1210938-.4814453,8.8447266-1.4326172,4.4462852-1.5527344,7.3515587-4.1298866,8.8818321-7.8769569.7099609-1.7363281,1.0429688-3.6777344,1.0820312-6.2958984.0380859-2.5927734.7900391-4.65625,2.2958984-6.3100586,1.9433594-2.1328125,4.4228516-3.1162109,7.2255859-4.0947266l1.0742188-.3745117v2.9145508c-.0009766,1.2973633-.0019531,2.5654297.0009766,3.8339844.0029297,1.0151367.5595703,1.6791992,1.4179688,1.6928711.3759766-.0058594.7324219-.1220703.984375-.3691406.3076172-.3027344.4775391-.7758789.4785156-1.331543l.0039062-1.9262695c.0058594-2.1479492.0117188-4.2958984-.0146484-6.4433594-.0410156-3.3178711-.4707031-6.5874023-1.2773438-9.7192345-.3027344-1.175293-.6484375-2.340332-.9970703-3.5161133-.1621094-.5458984-.3242188-1.09375-.4833984-1.6459961l-.1835938-.6376953.5888672-.3041992c2.2460938-1.1606445,3.6689453-2.9052734,4.3486328-5.3339844.7167969-2.5566406-.1669922-4.9941406-1.0517578-7.0776367-.2089844-.4936523-.9111328-.7631836-1.5253906-.5888672ZM61.8873058,12.1454293c-.5205078.1494141-1.0546875.2231445-1.5839844.2231445-.9414062,0-1.8671875-.2333984-2.671875-.6889648-1.1386719-.6445312-1.9443359-1.6679688-2.2695312-2.8828125l-.1826172-.6796875.6484375-.2739258c1.2109375-.5102539,2.6464844-.4443359,3.9433594.1865234,1.3359375.6499023,2.3095703,1.7900391,2.6738281,3.1269531l.2080078.769043-.765625.2197266ZM22.0259815,13.1737496c.1967773-.4404297.4233398-.8681641.675293-1.3408203.1166992-.21875.2392578-.4482422.3662109-.6948242l.7441406-1.4428711.7026367,1.4638672c2.6391602,5.5,5.9946289,10.4121056,10.2583008,15.0180626l1.2070312,1.3037109-1.7758789.0527344c-.2524414.0078125-.5039062.0112305-.7529297.0112305-3.027832,0-5.8022461-.5366211-8.362793-1.1259766-1.0805664-.2485352-1.8447266-.8134766-2.4038086-1.777832-2.1640625-3.7338867-2.3857422-7.5917931-.6582031-11.4672813ZM65.9771496,27.8749177c-.5673828.2568359-1.1357422.5014648-1.7011719.7446289-1.2294922.5288086-2.3896484,1.027832-3.5048828,1.6357422-4.2705078,2.3300781-6.4414062,5.9628906-6.6357422,11.1049805-.0458984,1.1933594-.1513672,2.7539062-.5703125,4.2431641-.8886719,3.15625-3.1318321,5.4716797-6.6679649,6.8808632-2.6376953,1.0507812-5.5400391,1.5283203-9.4091797,1.5458984-3.3198242.0166016-6.4291992.8017578-9.2416992,2.3359375-2.4350586,1.3271484-4.5263672,3.1611328-6.2158203,5.4511719-1.4189453,1.9228516-2.8442383,3.8408203-4.2700214,5.7587891l-1.5302734,2.0595703c-.1000977.1347656-.2041016.265625-.328125.4189453l-.8520508,1.078125-10.6552734-14.1376953,1.21875-.2763672c.5551758-.1259766,1.1049805-.2421875,1.6508789-.3583984,1.1713867-.2490234,2.277832-.484375,3.3740234-.7919922,5.8740234-1.6474609,10.696291-4.213871,14.7421894-7.8457069.3920898-.3515625.9746094-1.0722656.46875-1.9365234-.3100586-.53125-.7773438-.7753906-1.5795898-.7412109-.0385742.0009766-.0771484.0009766-.1152344.0009766-3.7929688,0-7.3242207-1.0869141-10.4980488-3.2314453-1.8818359-1.2714844-3.4550781-2.8232422-4.8095703-4.7431641l-1.2231445-1.7338867,2.0664062.480957c.3320312.0771484.6503906.15625.9609375.2329102.6518555.1611328,1.2675781.3134766,1.8745117.4160156.7641602.128418,1.5776367.2041016,2.4165039.2246094.4658203-.0083008.8857422-.137207,1.1777344-.4179688.2661133-.2568359.4086914-.6000977.4130859-.9931641.0087891-.840332-.6293945-1.4238281-1.5888672-1.4526367-5.3842773-.159668-9.8964844-3.4667969-11.4941406-8.4248047-.5185547-1.6098633-.7050772-3.6884766-.4858398-5.425293l.1630859-1.2915001,1.2885742.8520508c.1547852.1000977.3007812.1948242.4418945.296875,6.6416016,4.7866173,13.8486328,8.0678673,21.4204121,9.7529259,4.7036133,1.046875,8.6293945,1.1450195,12.3554688.3076172,3.0839844-.6928711,5.5712891-2.1313477,7.6035156-4.3969727,2.2851562-2.5498047,5.0234337-4.046875,8.1386681-4.4492188,4.4667969-.5761719,10.0673828,2.0908203,11.9824219,5.7119141l.4003906.7592773-.78125.3540039ZM69.5123058,7.6742379c-.6386719,1.5073242-1.8955078,2.6459961-3.2783203,2.9726562l-.6855469.1616211-.2539062-.6572266c-.4697266-1.2158203-.4199219-2.559082.140625-3.7832031.5878906-1.2861328,1.6972656-2.300293,3.0419922-2.7822266l.6269531-.2246094.3398438.5722656c.6142578,1.0322266.6396484,2.3955078.0683594,3.7407227Z"/>
      </g>
    </g>
  </g>
</svg>