<?xml version="1.0" encoding="UTF-8"?>
<svg id="Ebene" xmlns="http://www.w3.org/2000/svg" version="1.1" viewBox="0 0 968.4 284.8">
  <!-- Generator: Adobe Illustrator 29.1.0, SVG Export Plug-In . SVG Version: 2.1.0 Build 142)  -->
  <rect x="854.4" y="57" width="57" height="57"/>
  <rect x="797.5" width="57" height="57"/>
  <rect x="854.4" y="170.9" width="57" height="57"/>
  <rect x="797.5" y="113.9" width="57" height="57"/>
  <rect x="740.5" y="57" width="57" height="57"/>
  <rect x="683.6" width="57" height="57"/>
  <rect x="797.5" y="227.9" width="57" height="57"/>
  <rect x="911.4" width="57" height="57"/>
  <rect x="911.4" y="113.9" width="57" height="57"/>
  <rect x="911.4" y="227.9" width="57" height="57"/>
  <rect x="740.5" y="170.9" width="57" height="57"/>
  <rect x="683.6" y="113.9" width="57" height="57"/>
  <rect x="626.6" y="57" width="57" height="57"/>
  <rect x="569.6" width="57" height="57"/>
  <rect x="683.6" y="227.9" width="57" height="57"/>
  <rect x="626.6" y="170.9" width="57" height="57"/>
  <rect x="569.6" y="113.9" width="57" height="57"/>
  <rect x="512.7" y="57" width="57" height="57"/>
  <rect x="455.7" width="57" height="57"/>
  <rect x="569.6" y="227.9" width="57" height="57"/>
  <rect x="512.7" y="170.9" width="57" height="57"/>
  <rect x="455.7" y="113.9" width="57" height="57"/>
  <rect x="398.7" y="57" width="57" height="57"/>
  <rect x="341.8" width="57" height="57"/>
  <rect x="455.7" y="227.9" width="57" height="57"/>
  <rect x="398.7" y="170.9" width="57" height="57"/>
  <rect x="341.8" y="113.9" width="57" height="57"/>
  <rect x="284.8" y="57" width="57" height="57"/>
  <rect x="227.9" width="57" height="57"/>
  <rect x="341.8" y="227.9" width="57" height="57"/>
  <rect x="284.8" y="170.9" width="57" height="57"/>
  <rect x="227.9" y="113.9" width="57" height="57"/>
  <rect x="170.9" y="57" width="57" height="57"/>
  <rect x="113.9" width="57" height="57"/>
  <rect x="227.9" y="227.9" width="57" height="57"/>
  <rect x="170.9" y="170.9" width="57" height="57"/>
  <rect x="113.9" y="113.9" width="57" height="57"/>
  <rect x="57" y="57" width="57" height="57"/>
  <rect width="57" height="57"/>
  <rect x="113.9" y="227.9" width="57" height="57"/>
  <rect x="57" y="170.9" width="57" height="57"/>
  <rect y="113.9" width="57" height="57"/>
  <rect y="227.9" width="57" height="57"/>
</svg>