<?xml version="1.0" encoding="UTF-8"?>
<svg xmlns="http://www.w3.org/2000/svg" version="1.1" viewBox="0 0 56.8552938 93.3624167">
  <defs>
    <style>
      .cls-1 {
        fill: #1a1a18;
      }

      .cls-2 {
        fill: none;
        stroke: #1a1a18;
        stroke-miterlimit: 10;
        stroke-width: 2.653753px;
      }
    </style>
  </defs>
  <!-- Generator: Adobe Illustrator 28.7.4, SVG Export Plug-In . SVG Version: 1.2.0 Build 166)  -->
  <g>
    <g id="Ebene_1">
      <path class="cls-1" d="M43.3116721,18.7127483c1.1375809-3.3985825,2.2901764-6.5609827,3.2198944-9.7870655.2733307-.9491568.096405-2.1309605-.1866684-3.1163721-.5679016-1.9805965-2.4272919-2.6749988-4.015995-1.3994131-1.2083397.969512-2.1097412,2.3291063-3.0960464,3.5560188-.1459618.1813555-.0937805.6271839.0132561.8907938,1.3021202,3.2021914,2.6316452,6.3937731,4.0655594,9.8560381M25.4465903,47.3936298c-.1211815-2.4777451-.2131805-4.8696404-.3626556-7.2589226-.1839981-2.9527245-2.3211708-4.8643227-5.257103-4.7563934-2.7333641.1008263-4.6944695,2.1884613-4.7068596,5.0500793-.0115013,2.6475677.0088272,5.2942505.0229988,7.9409294.0017548.2972183.0583649.5944405.1105728,1.0880203,2.9819374-3.0235062,6.6653481-1.6037407,10.1930466-2.0637131M12.6555098,46.8000553c0-1.5462418.0062065-3.0925102-.0017548-4.6387482-.0132828-2.58918-1.7771339-4.3848877-4.3388863-4.4291306-2.6086426-.0451126-4.489275,1.7417679-4.5104942,4.3822365-.0265636,3.1730118-.0114994,6.3477745.0380363,9.5207825.0380363,2.4971809,1.869997,4.1876297,4.4273224,4.1734581,2.5201797-.0141449,4.3574829-1.7842064,4.3840218-4.2477493.0176811-1.5869484.0035362-3.1739006.0017548-4.760849M31.840393,26.2210777c-.2530022.2397461-.3308563.2804279-.3556099.3423557-1.4171257,3.5118027-2.8359718,7.0236015-4.2300949,10.5442314-.1087914.2768898-.0796089.6280479-.0495377.9376564.1132469,1.132267.2927933,2.259243.3759651,3.3923988.1450729,1.9823532.2379379,3.96735.3635483,6.1381264,2.3379593,0,4.572422.008831,6.806881-.0026703,3.5197639-.0176811,7.0386391.0919991,10.35672,1.4038391,1.7116699.6767197,3.309227,1.6400223,4.9872894,2.4883537-.0398178-.240612-.0601501-.5219307-.1344681-.7872925-2.2017365-7.881649-4.2442398-15.8137016-6.6697693-23.6263504-1.7479248-5.6286163-3.9567413-11.1165867-6.0620537-16.6293106-.7749023-2.0283508-1.9708519-3.8603382-3.8037033-5.1447506-2.2618904-1.5851684-4.4662781-.7253661-5.1182137,1.9505234-.521904,2.1389246.1105728,4.0938482.8606911,6.0629444,2.5352173,6.6573811,5.0642509,13.3174095,7.5163231,20.0057564.7271194,1.983242,1.1871223,4.0628853,1.7797775,6.0947723.253891.8686562.29282,1.7054863-.7740097,1.9637794-1.0659142.2582893-1.4197426-.5059738-1.593132-1.3896675-.0539665-.2795372-.1344643-.5546494-.2193642-.8262215-1.3321953-4.2681046-2.667038-8.5344505-4.0372391-12.9184742M3.7972754,56.9090946c.2379627,6.5043449.9925117,12.7061501,3.4357281,18.5930595,3.4021187,8.1983337,9.3695278,12.8716125,18.3356609,13.894165,13.6694832,1.5595245,28.99049-9.3898544,27.4610405-26.0563049-.5139389-5.599411-2.9677582-9.9064674-8.4504166-11.9197807-1.8859482-.6926231-3.9434814-1.1844521-5.9408684-1.2543411-6.2319069-.2176094-12.4717522-.2061081-18.7089806-.2458992-1.7408524-.0106125-3.0854111.9748001-3.5825577,2.4556046-.4918251,1.4657402-.0468903,3.1252289,1.4400978,4.0664215,1.21101.7660484,2.5997887,1.4259491,3.9948006,1.6922302,2.9951897.5714378,6.0461273.8500862,9.0722809,1.264061,3.3976936.4644012,5.7763367,2.2468491,7.0519218,5.4676132.3113632.7855148.1689339,1.5038071-.6041832,1.6833801-.4590836.1061478-1.0650482-.3901138-1.5922432-.6395721-.0840378-.0397949-.1079254-.2114029-.1539268-.324646-.9190865-2.2521439-2.6218987-3.4595947-5.006752-3.756813-2.5865059-.3220062-5.1827583-.582077-7.7586861-.9765854-3.6453743-.5581856-6.991745-1.6842422-8.8157692-5.3765068-2.9164734,3.2499733-6.2823086,3.5923004-10.1771469,1.4339142M13.2145842,37.1828449c2.6590424-4.7855759,8.1885872-5.5587234,12.1594696-2.25214.1521721-.2901497.3202209-.5537567.4352188-.8394775,1.3967705-3.4755173,2.8129997-6.9431019,4.1487045-10.4416199.2070007-.5413647.2176094-1.2950497.0132828-1.8346329-1.0243683-2.7023983-2.1619263-5.3605785-3.2366905-8.0435143-.8615875-2.1513147-1.2817688-4.3601303-.8916855-6.6936646.7722549-4.6219583,5.1916428-6.5123091,9.008625-3.7771654.9818764.7032299,1.8001328,1.6347051,2.6926804,2.4608984.6811218-.7801933,1.3472023-1.6612411,2.133606-2.4184346,1.6833763-1.6205592,3.6586266-2.5847528,5.9912987-1.6497679,2.3998642.9615479,3.3782272,3.0703993,3.3897247,5.4808974.0079651,1.5887041-.3617859,3.2296181-.8377151,4.761713-1.0862656,3.4958744-2.3582916,6.9333839-3.5073776,10.4106846-.1220703.3697548.0141754.8589115.126503,1.2667046,2.7669678,10.0002441,5.5542984,19.9960365,8.3212967,29.9971504.724472,2.6183624,1.660347,5.2146149,2.0407181,7.8860779,1.3551941,9.5110321-1.4913864,17.5704727-8.9360657,23.7873459-8.4009056,7.0165329-17.9084053,8.4522018-28.0793724,4.8280716-6.9598923-2.4794998-11.0581665-7.9488983-13.6102009-14.6637497-2.4971809-6.5707016-3.2101555-13.4403763-3.2287273-20.4100151-.0106106-4.1177406.0459995-8.2363701-.0194645-12.3532448-.048645-3.0208359,1.0544128-5.3897629,3.8010559-6.6936378,2.6802902-1.2720222,5.3119335-.9500465,7.6835041.9341202.122963.0981827.2653656.1716118.4016113.2574005"/>
      <path class="cls-2" d="M43.3116721,18.7127483c1.1375809-3.3985825,2.2901764-6.5609827,3.2198944-9.7870655.2733307-.9491568.096405-2.1309605-.1866684-3.1163721-.5679016-1.9805965-2.4272919-2.6749988-4.015995-1.3994131-1.2083397.969512-2.1097412,2.3291063-3.0960464,3.5560188-.1459618.1813555-.0937805.6271839.0132561.8907938,1.3021202,3.2021914,2.6316452,6.3937731,4.0655594,9.8560381Z"/>
      <path class="cls-2" d="M25.4465903,47.3936298c-.1211815-2.4777451-.2131805-4.8696404-.3626556-7.2589226-.1839981-2.9527245-2.3211708-4.8643227-5.257103-4.7563934-2.7333641.1008263-4.6944695,2.1884613-4.7068596,5.0500793-.0115013,2.6475677.0088272,5.2942505.0229988,7.9409294.0017548.2972183.0583649.5944405.1105728,1.0880203,2.9819374-3.0235062,6.6653481-1.6037407,10.1930466-2.0637131Z"/>
      <path class="cls-2" d="M12.6555098,46.8000553c0-1.5462418.0062065-3.0925102-.0017548-4.6387482-.0132828-2.58918-1.7771339-4.3848877-4.3388863-4.4291306-2.6086426-.0451126-4.489275,1.7417679-4.5104942,4.3822365-.0265636,3.1730118-.0114994,6.3477745.0380363,9.5207825.0380363,2.4971809,1.869997,4.1876297,4.4273224,4.1734581,2.5201797-.0141449,4.3574829-1.7842064,4.3840218-4.2477493.0176811-1.5869484.0035362-3.1739006.0017548-4.760849Z"/>
      <path class="cls-2" d="M31.840393,26.2210777c-.2530022.2397461-.3308563.2804279-.3556099.3423557-1.4171257,3.5118027-2.8359718,7.0236015-4.2300949,10.5442314-.1087914.2768898-.0796089.6280479-.0495377.9376564.1132469,1.132267.2927933,2.259243.3759651,3.3923988.1450729,1.9823532.2379379,3.96735.3635483,6.1381264,2.3379593,0,4.572422.008831,6.806881-.0026703,3.5197639-.0176811,7.0386391.0919991,10.35672,1.4038391,1.7116699.6767197,3.309227,1.6400223,4.9872894,2.4883537-.0398178-.240612-.0601501-.5219307-.1344681-.7872925-2.2017365-7.881649-4.2442398-15.8137016-6.6697693-23.6263504-1.7479248-5.6286163-3.9567413-11.1165867-6.0620537-16.6293106-.7749023-2.0283508-1.9708519-3.8603382-3.8037033-5.1447506-2.2618904-1.5851684-4.4662781-.7253661-5.1182137,1.9505234-.521904,2.1389246.1105728,4.0938482.8606911,6.0629444,2.5352173,6.6573811,5.0642509,13.3174095,7.5163231,20.0057564.7271194,1.983242,1.1871223,4.0628853,1.7797775,6.0947723.253891.8686562.29282,1.7054863-.7740097,1.9637794-1.0659142.2582893-1.4197426-.5059738-1.593132-1.3896675-.0539665-.2795372-.1344643-.5546494-.2193642-.8262215-1.3321953-4.2681046-2.667038-8.5344505-4.0372391-12.9184742Z"/>
      <path class="cls-2" d="M3.7972754,56.9090946c.2379627,6.5043449.9925117,12.7061501,3.4357281,18.5930595,3.4021187,8.1983337,9.3695278,12.8716125,18.3356609,13.894165,13.6694832,1.5595245,28.99049-9.3898544,27.4610405-26.0563049-.5139389-5.599411-2.9677582-9.9064674-8.4504166-11.9197807-1.8859482-.6926231-3.9434814-1.1844521-5.9408684-1.2543411-6.2319069-.2176094-12.4717522-.2061081-18.7089806-.2458992-1.7408524-.0106125-3.0854111.9748001-3.5825577,2.4556046-.4918251,1.4657402-.0468903,3.1252289,1.4400978,4.0664215,1.21101.7660484,2.5997887,1.4259491,3.9948006,1.6922302,2.9951897.5714378,6.0461273.8500862,9.0722809,1.264061,3.3976936.4644012,5.7763367,2.2468491,7.0519218,5.4676132.3113632.7855148.1689339,1.5038071-.6041832,1.6833801-.4590836.1061478-1.0650482-.3901138-1.5922432-.6395721-.0840378-.0397949-.1079254-.2114029-.1539268-.324646-.9190865-2.2521439-2.6218987-3.4595947-5.006752-3.756813-2.5865059-.3220062-5.1827583-.582077-7.7586861-.9765854-3.6453743-.5581856-6.991745-1.6842422-8.8157692-5.3765068-2.9164734,3.2499733-6.2823086,3.5923004-10.1771469,1.4339142Z"/>
      <path class="cls-2" d="M13.2145842,37.1828449c2.6590424-4.7855759,8.1885872-5.5587234,12.1594696-2.25214.1521721-.2901497.3202209-.5537567.4352188-.8394775,1.3967705-3.4755173,2.8129997-6.9431019,4.1487045-10.4416199.2070007-.5413647.2176094-1.2950497.0132828-1.8346329-1.0243683-2.7023983-2.1619263-5.3605785-3.2366905-8.0435143-.8615875-2.1513147-1.2817688-4.3601303-.8916855-6.6936646.7722549-4.6219583,5.1916428-6.5123091,9.008625-3.7771654.9818764.7032299,1.8001328,1.6347051,2.6926804,2.4608984.6811218-.7801933,1.3472023-1.6612411,2.133606-2.4184346,1.6833763-1.6205592,3.6586266-2.5847528,5.9912987-1.6497679,2.3998642.9615479,3.3782272,3.0703993,3.3897247,5.4808974.0079651,1.5887041-.3617859,3.2296181-.8377151,4.761713-1.0862656,3.4958744-2.3582916,6.9333839-3.5073776,10.4106846-.1220703.3697548.0141754.8589115.126503,1.2667046,2.7669678,10.0002441,5.5542984,19.9960365,8.3212967,29.9971504.724472,2.6183624,1.660347,5.2146149,2.0407181,7.8860779,1.3551941,9.5110321-1.4913864,17.5704727-8.9360657,23.7873459-8.4009056,7.0165329-17.9084053,8.4522018-28.0793724,4.8280716-6.9598923-2.4794998-11.0581665-7.9488983-13.6102009-14.6637497-2.4971809-6.5707016-3.2101555-13.4403763-3.2287273-20.4100151-.0106106-4.1177406.0459995-8.2363701-.0194645-12.3532448-.048645-3.0208359,1.0544128-5.3897629,3.8010559-6.6936378,2.6802902-1.2720222,5.3119335-.9500465,7.6835041.9341202.122963.0981827.2653656.1716118.4016113.2574005Z"/>
    </g>
  </g>
</svg>