<?xml version="1.0" encoding="UTF-8"?>
<svg xmlns="http://www.w3.org/2000/svg" version="1.1" viewBox="0 0 73.4771767 90.7086563">
  <defs>
    <style>
      .cls-1 {
        fill: #1a1a18;
      }
    </style>
  </defs>
  <!-- Generator: Adobe Illustrator 28.7.4, SVG Export Plug-In . SVG Version: 1.2.0 Build 166)  -->
  <g>
    <g id="Ebene_1">
      <path class="cls-1" d="M70.525959,22.6544628c-1.968689-7.4298058-5.3013-14.9812965-9.9996414-22.6544628l-10.3083763,4.6747332c3.2890205,6.1131048,5.7843895,12.5858068,7.4879265,19.4181051,1.7035294,6.8323021,2.5552979,14.0550652,2.5552979,21.6664848,0,7.4316254-.8517685,14.549057-2.5552979,21.3504791-1.703537,6.8014221-4.1698456,13.1706085-7.3989334,19.10392l9.9542313,4.4949341c4.7582703-7.5514908,8.1489944-15.1338501,10.1758041-22.7452698,2.0268021-7.6096039,3.0402069-15.1610947,3.0402069-22.6544647,0-7.6713486-.9843445-15.2228317-2.9512177-22.654459M42.5102654,22.6544628c-1.968689-7.4298058-5.3013-14.9812965-9.9996414-22.6544628l-10.3083763,4.6747332c3.2890205,6.1131048,5.7843895,12.5858068,7.4879227,19.4181051s2.5553017,14.0550652,2.5553017,21.6664848c0,7.4316254-.8517685,14.549057-2.5553017,21.3504791s-4.1698456,13.1706085-7.4007492,19.10392l9.9560509,4.4949341c4.7582741-7.5514908,8.1489983-15.1338501,10.1758003-22.7452698,2.0268059-7.6096039,3.0402107-15.1610947,3.0402107-22.6544647,0-7.6713486-.9843445-15.2228317-2.9512177-22.654459M15.991066,29.9208145c-.4413204-1.0170288-1.0442772-1.9160156-1.8052387-2.6969528-.7645912-.7773075-1.6454163-1.3929787-2.6442909-1.8415661-.9988728-.4503975-2.0558643-.6755981-3.1709709-.6755981-1.1750393,0-2.2610874.2252007-3.2599621.6755981-.9988728.4485874-1.8796997,1.0642586-2.6424751,1.8415661-.7645931.7809372-1.3657331,1.679924-1.8070545,2.6969528-.4395037,1.0206718-.6610737,2.0994568-.6610737,3.2363548,0,1.2004662.22157,2.3083076.6610737,3.3271599.4413214,1.0188522,1.0424614,1.9178352,1.8070545,2.6969604.7627754.7791176,1.6436024,1.3929749,2.6424751,1.8415604.9988747.4503975,2.0849228.675602,3.2599621.675602,1.1151066,0,2.1720982-.2252045,3.1709709-.675602.9988747-.4485855,1.8796997-1.0624428,2.6442909-1.8415604.7609615-.7791252,1.3639183-1.6781082,1.8052387-2.6969604s.6610737-2.1266937.6610737-3.3271599c0-1.136898-.2197533-2.215683-.6610737-3.2363548M15.991066,54.7782516c-.4413204-1.0479088-1.0442772-1.9632416-1.8052387-2.7423592-.7645912-.7773094-1.6454163-1.3929749-2.6442909-1.84338-.9988728-.4485855-2.0558643-.6737862-3.1709709-.6737862-1.1750393,0-2.2610874.2252007-3.2599621.6737862-.9988728.4504051-1.8796997,1.0660706-2.6424751,1.84338-.7645931.7791176-1.3657331,1.6944504-1.8070545,2.7423592-.4395037,1.0497284-.6610737,2.1430397-.6610737,3.2817574,0,1.1986504.22157,2.3083076.6610737,3.3253441.4413214,1.020668,1.0424614,1.9033051,1.8070545,2.6533661.7627754.7500687,1.6436024,1.34758,2.6424751,1.7979813.9988747.4485855,2.0849228.6737823,3.2599621.6737823,1.1151066,0,2.1720982-.2251968,3.1709709-.6737823.9988747-.4504013,1.8796997-1.0479126,2.6442909-1.7979813.7609615-.750061,1.3639183-1.6326981,1.8052387-2.6533661.4413204-1.0170364.6610737-2.1266937.6610737-3.3253441,0-1.1387177-.2197533-2.232029-.6610737-3.2817574"/>
    </g>
  </g>
</svg>