<?xml version="1.0" encoding="UTF-8"?>
<svg xmlns="http://www.w3.org/2000/svg" version="1.1" viewBox="0 0 60.429 60.429">
  <!-- Generator: Adobe Illustrator 28.7.4, SVG Export Plug-In . SVG Version: 1.2.0 Build 166)  -->
  <g>
    <g id="Ebene_1">
      <path d="M45.4796915,10.196217c0,.5370841-.4395989.9738797-.976683.9738797h-5.7345372c-2.0161965,0-3.0378606.9625236-3.0378606,2.8615405v6.2913157h8.7723978c.2766086,0,.5436489.1181951.7273634.3261808.1838003.2071561.2736909.4847087.2428549.7621468l-1.15768,10.040521c-.0590547.4883129-.4741964.8622351-.9700324.8622351h-7.6149037v27.1411122c0,.5409172-.4367956.9738511-.973894.9738511h-11.231826c-.5370841,0-.9737939-.432934-.9737939-.9738511v-27.2694335h-6.6241614c-.5407169,0-.977627-.4358803-.977627-.976683v-9.9121711c0-.5370269.43691-.9739083.977627-.9739083h6.9530596s-.235246-8.9973604.0694525-10.6254896c.3289268-1.7667482,1.2129016-3.9666305,3.3846082-5.9659645,3.7661393-3.4644443,8.5332758-3.7314989,9.9017733-3.7314989.1838003,0,8.2671794.0065791,8.2671794.0065791.5370841,0,.976683.436767.976683.9738797v9.2157582h0Z"/>
    </g>
  </g>
</svg>