<?xml version="1.0" encoding="UTF-8"?>
<svg xmlns="http://www.w3.org/2000/svg" version="1.1" viewBox="0 0 467.3240051 365.4320068">
  <!-- Generator: Adobe Illustrator 28.7.4, SVG Export Plug-In . SVG Version: 1.2.0 Build 166)  -->
  <g>
    <g id="Ebene_1">
      <g>
        <path d="M304.0704651.0001221h-154.3099823v365.4319839h154.3099823c101.0440063,0,163.2540283-80.6889954,163.2540283-183.182991C467.3244934,79.7571106,405.602478.0001221,304.0704651.0001221M264.1254883,280.3041077h-11.3100128V85.130127h12.2849884c60.9150085,0,97.9690247,39.7939758,97.9690247,95.5489807,0,66.3270035-42.382019,99.625-98.9440002,99.625"/>
        <path d="M53.875,47.5892029C24.1210003,47.5892029,0,71.7102051,0,101.4642029c0,29.753006,24.1210003,53.875,53.875,53.875s53.875-24.121994,53.875-53.875c0-29.7539978-24.1210022-53.875-53.875-53.875"/>
        <path d="M53.875,210.0946045c-29.7539997,0-53.875,24.1210022-53.875,53.875,0,29.7529984,24.1210003,53.875,53.875,53.875s53.875-24.1220016,53.875-53.875c0-29.7539978-24.1210022-53.875-53.875-53.875"/>
      </g>
    </g>
  </g>
</svg>