<?xml version="1.0" encoding="UTF-8"?>
<svg xmlns="http://www.w3.org/2000/svg" xmlns:xlink="http://www.w3.org/1999/xlink" version="1.1" viewBox="0 0 78.9383125 56.0204773">
  <defs>
    <style>
      .cls-1 {
        fill: none;
      }

      .cls-2 {
        clip-path: url(#clippath-1);
      }

      .cls-3 {
        clip-path: url(#clippath-3);
      }

      .cls-4 {
        clip-path: url(#clippath-4);
      }

      .cls-5 {
        clip-path: url(#clippath-2);
      }

      .cls-6 {
        clip-path: url(#clippath-7);
      }

      .cls-7 {
        clip-path: url(#clippath-6);
      }

      .cls-8 {
        clip-path: url(#clippath-8);
      }

      .cls-9 {
        clip-path: url(#clippath-5);
      }

      .cls-10 {
        clip-path: url(#clippath);
      }
    </style>
    <clipPath id="clippath">
      <rect class="cls-1" width="78.9383125" height="56.0204468"/>
    </clipPath>
    <clipPath id="clippath-1">
      <rect class="cls-1" width="78.9383125" height="56.0204468"/>
    </clipPath>
    <clipPath id="clippath-2">
      <rect class="cls-1" width="78.9383125" height="56.0204468"/>
    </clipPath>
    <clipPath id="clippath-3">
      <rect class="cls-1" width="78.9383125" height="56.0204468"/>
    </clipPath>
    <clipPath id="clippath-4">
      <rect class="cls-1" width="78.9383125" height="56.0204468"/>
    </clipPath>
    <clipPath id="clippath-5">
      <rect class="cls-1" width="78.9383125" height="56.0204468"/>
    </clipPath>
    <clipPath id="clippath-6">
      <rect class="cls-1" width="78.9383125" height="56.0204468"/>
    </clipPath>
    <clipPath id="clippath-7">
      <rect class="cls-1" width="78.9383125" height="56.0204468"/>
    </clipPath>
    <clipPath id="clippath-8">
      <rect class="cls-1" width="78.9383125" height="56.0204468"/>
    </clipPath>
  </defs>
  <!-- Generator: Adobe Illustrator 28.7.4, SVG Export Plug-In . SVG Version: 1.2.0 Build 166)  -->
  <g>
    <g id="Ebene_1">
      <g>
        <g class="cls-10">
          <path d="M76.3581429,2.6031284H2.6107378v50.8280849h73.7474051V2.6031284ZM39.5490913.0000153h37.4788284c1.5692902,0,1.9100647.3407822,1.9100647,1.9103622.0002975,17.4000053.0002975,34.8000259,0,52.200325,0,1.5666351-.3434296,1.9094772-1.9121323,1.9097748-25.039093,0-50.0781937,0-75.1172867-.0002975C.3401604,56.0201797.000268,55.6794052.000268,54.108345-.0000286,36.7083359-.0000286,19.3083229.000268,1.90802.000268.3384361.3389826.0000134,1.9109211.0000134c12.5460548.0000019,25.0921116.0000019,37.6381702.0000019"/>
        </g>
        <g class="cls-2">
          <path d="M16.5122204,48.3495483c.1882095.0120773.3443146.0309296.5004177.0309296,14.9320946.0014725,29.8641891-.0002975,44.7962799.0088348.4650726.0002975.667717-.0860062.7734528-.6146927.6403198-3.2054367,2.4016495-5.6333008,5.3143158-7.130722,1.0420685-.535759,2.2090225-.8288231,3.3600693-1.2479477v-22.8857422c-4.928772-.9884644-7.8632355-3.9338264-8.8319626-8.8290119H16.4754028c-.3572712,2.2938461-1.3047943,4.2692966-2.9309273,5.8927784-1.6246605,1.622303-3.6080666,2.5527458-5.8621502,2.9067764v23.0262375c4.9010792.9849281,7.8269997,3.9008408,8.829895,8.8425598M39.4106331,50.9276276H15.9434719c-1.5642796,0-1.8529263-.2665558-1.9554253-1.8016815-.2550678-3.8107071-3.3909931-6.9000931-7.2058239-7.0980225-1.3251171-.0686264-1.6885748-.439743-1.6885748-1.7448311-.0014725-8.1936989-.0014725-16.3873978,0-24.5810928.0002937-1.2612038.3725872-1.6426315,1.6429224-1.7080193,3.9355907-.2026367,7.0635624-3.3462219,7.2585449-7.2944756.0597935-1.2120132.459774-1.6052208,1.6644249-1.6055164,15.8837376-.0017662,31.7671833-.0017662,47.650629.0002956,1.1581192,0,1.5748825.4082279,1.6302567,1.5586834.194397,4.0342617,3.3111801,7.1389637,7.3737106,7.3451405,1.1036301.0559616,1.5286484.4806824,1.5292358,1.5792999.0035324,8.2997322.00383,16.5994644-.0005875,24.8991928-.0008926,1.0509071-.4376831,1.487999-1.4844666,1.5436668-4.1364594.2200165-7.2152481,3.2826042-7.4187698,7.3798943-.0562592,1.1283646-.4812775,1.5259933-1.6638336,1.5262833-7.9551315.0023575-15.9099617.0011826-23.8650818.0011826"/>
        </g>
        <g class="cls-5">
          <path d="M70.0305367,48.3195953c-.0332794.6812668.5051346,1.2835922,1.1866913,1.3277664.7098312.0462494,1.3354263-.5316315,1.3492661-1.2464752.0132523-.6806717-.5437088-1.2659149-1.2273254-1.289772-.6791992-.0232697-1.2753448.5272217-1.3086319,1.2084808M75.1148262,48.3935242c-.0176773,2.120369-1.7566147,3.8280869-3.8702087,3.8006973-2.0750046-.0268097-3.7677078-1.7510223-3.7594604-3.8298569.0085449-2.109169,1.7474823-3.8160095,3.8713837-3.7998047,2.0673447.0161972,3.7756577,1.7566071,3.7582855,3.8289642"/>
        </g>
        <g class="cls-3">
          <path d="M8.9063873,7.6278534c-.0061855-.6862698-.5737572-1.253252-1.2582588-1.2567844-.7171955-.003828-1.30509.6029148-1.2768135,1.3180466.0270977.6839142.6141071,1.2349911,1.2977257,1.2176132.6842079-.0170841,1.2435322-.5952568,1.2373466-1.2788754M7.6472454,3.8250961c2.1130009.0056,3.8295574,1.7486629,3.8045216,3.8631382-.0247402,2.0761833-1.7368793,3.7621059-3.82514,3.7665234-2.0702934.0044174-3.7986307-1.7150803-3.8039322-3.7841988-.0050068-2.1227169,1.7136106-3.851059,3.8245506-3.8454628"/>
        </g>
        <g class="cls-4">
          <path d="M72.5668449,7.6609001c.0126648-.684206-.5416489-1.2679806-1.2252731-1.289772-.7163086-.0232716-1.3189316.5681591-1.3097992,1.2850571.0085449.6853886.5787659,1.2491264,1.2644501,1.2506008.6842041.0014744,1.2579575-.5613823,1.2706223-1.2458858M75.1113472,7.7436619c-.0524292,2.1021061-1.8370285,3.7741871-3.9591522,3.7096806-2.0623474-.062439-3.7255936-1.8387852-3.667572-3.9173241.0589142-2.1106453,1.8411484-3.7815495,3.9576874-3.7102699,2.0685272.0695076,3.7211609,1.8343678,3.6690369,3.9179134"/>
        </g>
        <g class="cls-9">
          <path d="M8.9064751,48.406868c.0141392-.6845016-.5384121-1.2694473-1.2220287-1.2933044-.7160187-.0250397-1.320406.5649185-1.3130417,1.2821121.0070686.6853867.5755234,1.2506027,1.2614975,1.2538376.6836185.0032425,1.2591419-.5584412,1.2735729-1.2426453M11.4518566,48.3868408c-.0032406,2.110939-1.7383518,3.8236694-3.8604851,3.8107071-2.0679369-.0123749-3.7794857-1.7474823-3.7685881-3.8195419.011487-2.1194839,1.7465982-3.8325043,3.8598948-3.8104172,2.0776577.0217972,3.7724171,1.738945,3.7691784,3.819252"/>
        </g>
        <g class="cls-7">
          <path d="M45.2504501,25.060585c.0910149-2.1451035-.9616585-3.8295555-1.940403-5.5210762-.207058-.3572731-.7127762-.7348671-1.0835953-.7372246-.2518272-.0017662-.6202888.5993805-.741642.9914093-.3958588,1.2803497-.7012901,2.5886765-1.043541,3.8858147-.6912727,2.6196022-1.4064102,5.2336082-2.0641098,7.8614578-.234745.9380989.2650833,1.3840294,1.1522255,1.0529709,3.3912888-1.265625,5.7537613-3.6475372,5.7210655-7.5333519M52.2430344,26.0555267c-.2429924,3.6012955-1.3760757,6.3513794-3.957386,8.4202003-.981102.7861176-1.8865013,1.6667786-2.8664246,2.4543686-.9858093.7923012-2.0817833.9790344-3.3285522.5852432-1.1224747-.3543282-2.2926674-.5602074-3.4469566-.8090897-1.0093727-.2176628-1.3595772.0371094-1.5937309,1.0382385-.348732,1.4888802-.7098351,2.9748116-1.086544,4.4569168-.2662621,1.0467796-.7543068,1.369297-1.8508644,1.1121712-1.7504272-.4102936-3.4852448-.8868484-5.2244797-1.3436737-.6373787-.1675911-.9165993-.6674194-.9587173-1.2582588-.0471268-.6647682-.079525-1.354866.0444756-2.002552.3069077-1.606102.7319221-3.188942,1.0620956-4.7909241.3301773-1.6010971.597908-3.214859.9021683-4.8212585.1493263-.7899437.2803955-1.5860786.4903984-2.3604126.2447586-.9033432.6129303-1.1089287,1.545433-1.0008354,1.2040634.1399078,1.4370384-.2079391,1.0361748-1.3389587-.4473991-1.2623825-.8986282-2.5394897-1.1522217-3.8484077-.1343117-.6936302.0812912-1.4835777.2538872-2.2025414.4008636-1.6691322.8668213-3.3229523,1.3153992-4.9806061.3263474-1.2058258.7448807-1.5530853,1.9822273-1.2971344,2.2808876.4721413,4.5464554,1.0267525,6.8023109,1.6096382,1.5837212.409111,3.153595.8836098,4.7016792,1.4108276.4977608.1696548,1.0950813.4995346,1.3239365.9283791,1.1345558,2.1241951,2.2602692,4.2645874,3.1862907,6.4836197.505722,1.2120171.6091042,2.5916252.8194008,3.5550499"/>
        </g>
        <g class="cls-6">
          <path d="M62.3349876,27.4242363c-.1823196-.7289734-.4992371-1.781353-.7015839-2.8552322-.343132-1.8205261-1.2479477-3.3638954-2.2950211-4.8324509-.6126404-.8588676-1.2561951-.7437057-1.613472.2709732-.3110275.884491-.562561,1.7943153-.7781677,2.7076683-.5902481,2.5000229-1.1095123,5.0177193-1.7292175,7.510376-.5820007,2.3421516-1.2709198,4.657795-1.8732529,6.9952316-.0827599.3219261-.0606689.87006.1343117,1.0149727.2544785.1890907.773159.1996918,1.1039238.0804062,2.150116-.7758064,3.9565048-2.1742668,5.3523102-3.8805122,1.5230408-1.8614693,2.2626266-4.1885986,2.4001694-7.0114326M69.9784966,30.043251c.1985168,2.8260765-1.1024551,5.014183-2.8873367,7.0167351-1.6750259,1.8788452-3.6973114,3.3406258-5.7231293,4.7950439-1.4782791,1.061512-2.969223,2.1097603-4.5075836,3.0799675-.4300232.2712631-1.0971451.4403305-1.5722351.3222198-3.1479988-.7834625-6.2771492-1.6438065-9.4036522-2.5106277-1.0924339-.3027802-1.2405815-.6046791-1.058857-1.6985855.0438881-.2642021.0874825-.5307541.098671-.7979012.0406494-.9625435.4842186-1.6470451,1.2938995-2.1807442,2.3830872-1.5713501,4.3620796-3.544445,5.7646561-6.054184,1.2291031-2.1998901,1.8694229-4.4963913,1.1846275-7.0291061-.47509-1.7572021-.8058548-3.5588799-1.3769569-5.2822075-.3831902-1.1563492-1.0491371-2.2240448-1.6355591-3.3061676-.3790665-.6998215-.4052811-1.3339577-.045063-2.0591011.2945366-.5934906.4580002-1.2553139.6491547-1.8956375.2497711-.8376579.6441498-1.1330795,1.4859352-.925724,3.4619751.8529778,6.9174728,1.7330475,10.3750305,2.6048775.1820221.045948.3587494.1502113.5398865.1555138,1.7277451.0506592,2.585144,1.1716652,3.1156006,2.6069374,1.2346954,3.3406296,2.7418365,6.5940742,3.4222183,10.1173134.1920319.9949417.1923294,2.0267029.2806931,3.041378"/>
        </g>
        <g class="cls-8">
          <path d="M22.2778511,45.7502975c-2.0776558-.3024826-4.7490978-.6942215-7.2832851-1.7342224-.5154381-.2114792-1.0780029-.3136826-1.6249561-.4409256-.7015839-.1631699-1.0570889-.5911331-1.2762241-1.2832909-.6447392-2.0373077-.4744987-4.1458893-.6379662-6.2247238-.0421181-.5342903.3133869-.8235245.7937756-.8108597.6076279.0161972,1.2184944.1172256,1.8158131.2406349.6023273.1242981,1.181385.3696442,1.786068.4724388.7245579.1231155,1.0965576-.2577209.979332-.9704971-.461832-2.8028069-.930439-5.6044312-1.4214306-8.4019356-.575819-3.279953-1.0052509-6.5693321-.7766914-9.9108429.1007309-1.4700317,1.6529369-3.0166359,3.2307644-3.2443161,1.4712086-.2126541,2.8767357.0695114,4.286974.4621277.895977.2491798,1.8384933.3269348,2.7436028.5493126,1.0638618.261837,2.1498184.5057144,3.1465263.9398613.47332.205883.8912697.7802277,1.1059875,1.2847672.3867226.9074669.5967255,1.8897438.8886147,2.83815.3472557,1.1268921.7269135,2.2446594,1.038826,3.3809776.0818825.2983627.0695114.7275047-.0960197.9519424-.1089745.1481476-.5870094.1066208-.8685837.0318069-1.3698883-.3640442-2.7276993-.7734489-4.0937576-1.152813-.2291489-.0636177-.4774437-.0771675-.7174911-.0815849-1.1042137-.0194435-1.4717941.3970337-1.3056755,1.4806328.2795143,1.827301.5616798,3.6543083.8503227,5.4804306.3431358,2.1686707.7051201,4.3346863,1.0379448,6.5051231.1946907,1.2697449.4479904,2.542141.492466,3.8195419.0406456,1.1678391-.0438881,2.3701324-.2886467,3.5111656-.3855476,1.7960815-1.2105446,2.3153458-3.8062897,2.3070984"/>
        </g>
      </g>
    </g>
  </g>
</svg>