<?xml version="1.0" encoding="UTF-8"?>
<svg xmlns="http://www.w3.org/2000/svg" version="1.1" viewBox="0 0 90.7086601 90.7086587">
  <defs>
    <style>
      .cls-1 {
        fill: none;
        stroke: #1a1a18;
        stroke-linejoin: bevel;
        stroke-width: 5.9035587px;
      }
    </style>
  </defs>
  <!-- Generator: Adobe Illustrator 28.7.4, SVG Export Plug-In . SVG Version: 1.2.0 Build 166)  -->
  <g>
    <g id="Ebene_1">
      <path class="cls-1" d="M12.5882845,68.4838614c5.3221111,0,9.636507,4.3143997,9.636507,9.6365051,0,5.322113-4.3143959,9.6365128-9.636507,9.6365128s-9.6365051-4.3143997-9.6365051-9.6365128c0-5.3221054,4.314395-9.6365051,9.6365051-9.6365051ZM41.4997244,78.1203666c0-15.9682465-12.9451065-28.9114342-28.9114399-28.9114342M56.917182,78.1203666c0-24.4820938-19.8487167-44.3298492-44.3298569-44.3298492M72.3375082,78.1203666c0-32.9988098-26.7513657-59.7492142-59.7492218-59.7492142M70.2818441,29.9359145C56.4947424,13.4446559,35.7666731,2.9517794,12.5882845,2.9517794M87.7568808,78.1203666c0-18.335228-6.5654755-35.1387634-17.4750366-48.1844521"/>
    </g>
  </g>
</svg>