<?xml version="1.0" encoding="UTF-8"?>
<svg xmlns="http://www.w3.org/2000/svg" version="1.1" viewBox="0 0 90.7087344 90.8271031">
  <defs>
    <style>
      .cls-1 {
        fill: none;
      }

      .cls-2 {
        fill: #1a1a18;
        stroke: #1a1a18;
        stroke-miterlimit: 10;
        stroke-width: .5720426px;
      }
    </style>
  </defs>
  <!-- Generator: Adobe Illustrator 28.7.4, SVG Export Plug-In . SVG Version: 1.2.0 Build 166)  -->
  <g>
    <g id="Ebene_1">
      <rect class="cls-1" y=".0592198" width="90.7086639" height="90.7086639"/>
      <rect class="cls-1" y=".0592198" width="90.7086639" height="90.7086639"/>
      <path class="cls-2" d="M36.1375542,21.2354703c-2.5452118.9945641-4.8216209,2.2453289-6.9779129,4.0194168,1.2163277.7702827,2.3100128,1.4632893,3.3188591,2.1016884,1.2524452-2.0949669,2.4225693-4.0521774,3.6590538-6.1211052ZM61.7811966,65.7766728c-1.3834915-.9332428-2.4847336-1.6766434-3.5162582-2.3721695-1.2667274,2.1378098-2.4620514,4.152977-3.6565399,6.1689911.0403252.0705566.0798035.1411209.120121.2116776,2.2730484-1.2919235,4.5461006-2.5838547,7.0526772-4.0084991ZM36.1316757,69.6213689c-1.2297668-2.07901-2.4292908-4.1050949-3.6834183-6.2252655-1.0567245.7165222-2.1378098,1.4490051-3.2995338,2.2360916,2.2008095,1.7497253,4.4772224,3.0618134,6.9829521,3.9891739ZM54.7369194,21.0111909c-.0386391.0755978-.0764351.1512012-.1142426.226799,1.19701,2.0462475,2.393177,4.0933399,3.64814,6.2387104,1.0424423-.7081261,2.1218529-1.4414501,3.5053368-2.3814106-2.5090942-1.4557285-4.7745857-2.7694969-7.0392342-4.0840988ZM35.4537926,28.7719846c2.730011,1.1071281,5.4331436,1.7984505,8.3076363,1.8765717v-11.0174961c-4.4201012,1.6371727-6.4411469,5.2491856-8.3076363,9.1409245ZM46.9534492,60.1192479v11.0712509c4.4394188-1.6338043,6.4352684-5.2701874,8.3093109-9.1619186-2.6989288-1.1323318-5.4020615-1.7572937-8.3093109-1.9093323ZM46.9576454,30.5989919c2.0865707.1276779,6.430233-.8702431,8.2689972-1.9076462-1.8337288-3.8119392-3.8178177-7.4575539-8.2689972-9.0787621v10.9864082ZM43.7689934,60.1167302c-2.9215355.1562347-5.6238289.7837219-8.3177185,1.9126892,1.8874855,3.9034958,3.8757744,7.5474319,8.3177185,9.1585617v-11.0712509ZM56.4102097,58.7634854c1.1432457-3.7119789,1.7850113-7.6650352,1.8832893-11.7348557h-11.3257713v9.6491241c3.1651344.6988831,6.2378654,1.3776054,9.442482,2.0857315ZM58.3035774,43.8105741c-.1276817-4.1445808-.7417259-8.1035194-1.902607-11.7869301-3.1878128.7089577-6.2899475,1.3977585-9.4172821,2.0932846v9.6936455h11.3198891ZM43.7589111,47.0059476h-11.3518105c.1486778,4.1168594.7299614,8.0942802,1.9152069,11.761734,3.2096519-.711483,6.2823868-1.3927231,9.4366035-2.0924492v-9.6692848ZM34.3256683,31.9799619c-1.1608849,3.7380142-1.8110504,7.7137527-1.89925,11.8054123h11.3434143v-9.6634064c-3.1693382-.7190399-6.2689514-1.4221268-9.4441643-2.1420059ZM71.2497177,43.7904134c-.4998016-6.4159508-2.932457-11.8700905-7.3097153-16.4397144-1.4716873.9483624-2.8946533,1.8303699-4.2663803,2.7854519-.2091637.1461601-.3116379.6552048-.2477989.9500427.3250847,1.5120087.8223686,2.9912567,1.0693245,4.5133438.4376373,2.6997719.7383652,5.4222221,1.1037598,8.190876h9.6508102ZM29.2864838,47.021069h-9.8171253c.5023212,6.4268684,2.9416924,11.8768158,7.3483543,16.4598732,1.0693264-.7333221,2.0378475-1.4288483,3.0374546-2.0756454,1.5993652-1.0348892,1.6237259-1.0256424,1.1205635-2.8585358-1.0306816-3.7522964-1.5464478-7.5801926-1.6892471-11.525692ZM71.2438354,47.0017476h-9.8112411c-.1453171,4.4545403-.7954865,8.7855988-2.0647316,13.01754-.056282.1881638.119278.5644836.299881.6862793,1.38937.9357681,2.8056145,1.8295364,4.2848625,2.7829361,4.3839798-4.5839005,6.8157959-10.0481262,7.2912292-16.4867554ZM26.7505112,27.3095345c-4.3831406,4.6292629-6.8267097,10.0766888-7.2677135,16.4598789h9.8036861c.1503601-4.4184189.7778435-8.6881561,2.0328102-12.8604584.0697174-.2310028-.1226425-.6862831-.3343239-.8324432-1.354084-.9307251-2.7468109-1.8043289-4.2344589-2.7669773ZM16.2781849,46.1793828c-.4536037-16.0163536,12.2951336-29.4202957,28.4013729-29.8612976,15.9634247-.4376392,29.3161316,12.3027,29.7630157,28.397171.4435272,15.9533539-12.3035355,29.3136139-28.4005318,29.7672195-15.9021149.4477234-29.310257-12.3026962-29.7638569-28.303093Z"/>
      <path class="cls-2" d="M73.799469,10.3485084c-.3469238-1.8715258-.6577301-3.5380945-.9651642-5.2055035-.1763992-.9533997-.383049-1.9034476-.5132446-2.8627305-.1419601-1.0441279.4065628-1.7976079,1.3137589-1.9168868.8484116-.1117234,1.5968552.4477196,1.7757797,1.4238062.7509613,4.1008959,1.4901581,8.2043171,2.2041702,12.3119354.2200699,1.2650433-.2494888,1.8958855-1.5103302,2.1285667-3.9404602.725769-7.8842773,1.4355659-11.8272629,2.148735-.221756.0403175-.448555.0621586-.6745148.0713997-1.0819244.0453606-1.7858505-.479641-1.8782501-1.3918915-.0848465-.8416824.4922409-1.5254421,1.5044479-1.709404,2.2890091-.4166431,4.5822144-.8080826,6.8737488-1.2121258.8131256-.1436386,1.6245651-.2948399,2.7720108-.5040016-1.7665253-1.2810078-3.2550125-2.4553347-4.8342209-3.4910545C52.7212486.0878639,31.8463135,1.5225906,18.0526123,13.5573297c-8.3689642,7.3021488-13.1233826,16.5111141-14.3901114,27.5176792-.5602822,4.8661461-.1553984,9.687767,1.0164037,14.4438667.0613251.2511635.1302061.5006447.1873207.7526436.2259655.9937286-.1612749,1.7866898-.9861612,2.0286102-.8996434.2637596-1.7900453-.2469597-2.0378513-1.2852058-.4116001-1.727047-.8610053-3.4574547-1.095366-5.2139015-1.6153245-12.0842972.9928842-23.1958694,8.2202821-33.025589C16.8522453,8.0519433,27.549696,1.9056334,40.8066368.5423059c11.9146118-1.2255652,22.660778,1.9698105,32.1864204,9.2434001.1990814.1520414.4099274.2872849.8064117.5628023Z"/>
      <path class="cls-2" d="M18.0415192,77.1852727c2.7073326,2.3410873,5.4642258,4.190773,8.4588394,5.6666641,22.2424622,10.9654083,48.3850632,1.118042,57.7679062-21.8106995,3.4238586-8.3672829,3.9278564-16.9983215,1.8043289-25.7830811-.0613174-.2511635-.1302032-.5006409-.1814346-.7534866-.212532-1.0390854.2251129-1.7992859,1.1499557-2.0076065.8484116-.1906815,1.6413727.2755203,1.8295288,1.2902489.5460052,2.9500923,1.2700882,5.8993454,1.4599304,8.8788376,1.4532089,22.8439064-14.4346237,43.1703224-36.9610138,47.1258965-13.0956612,2.2999344-25.0253944-.7165222-35.6396828-8.7830811-.2536812-.1923599-.5157623-.3721161-.9114056-.656044.4485626,2.7526932.8710861,5.3533478,1.2952862,7.9531631.176403,1.0844421-.222599,1.8673248-1.0743637,2.1000061-.866045.2360458-1.7942486-.3158417-1.954689-1.2667236-.7131634-4.2386627-1.4044876-8.4815216-2.0739689-12.7277374-.1537209-.9718857.4603214-1.6648941,1.5640869-1.8446503,2.9341335-.4788055,5.8724651-.9349289,8.8082809-1.4036484,1.1172047-.1780777,2.2310505-.3763199,3.3490944-.5451584,1.2062473-.1831207,2.0067692.3032379,2.1294117,1.2650452.1251564.9744034-.480484,1.6153259-1.6942883,1.8127289-2.9584942.4796371-5.9169884.9651642-9.125803,1.4893265Z"/>
      <rect class="cls-1" width="90.7086639" height="90.8271031"/>
    </g>
  </g>
</svg>