<?xml version="1.0" encoding="UTF-8"?>
<svg xmlns="http://www.w3.org/2000/svg" version="1.1" viewBox="0 0 79.7185184 90.7086638">
  <defs>
    <style>
      .cls-1 {
        fill: #1a1a18;
      }
    </style>
  </defs>
  <!-- Generator: Adobe Illustrator 28.7.4, SVG Export Plug-In . SVG Version: 1.2.0 Build 166)  -->
  <g>
    <g id="Ebene_1">
      <g>
        <path class="cls-1" d="M40.7812538,41.9798163c2.5218544.0006561,5.0437088-.0227852,7.5649147.007164,2.1988907.0260468,3.6164169,1.6981659,3.2361488,3.7486-.2793312,1.5093384-1.5718422,2.4840851-3.3663788,2.4879951-4.6035423.0104179-9.2070808.0084648-13.8106194-.0013008-.7012787-.0013008-1.4155731.0045547-2.0992699-.1250191-1.34655-.2545929-2.3128395-1.4429245-2.3825111-2.7959824-.0729294-1.420784.7618294-2.714592,2.0836372-3.12286.4668655-.143898.9799652-.1868706,1.4728737-.1907806,2.4333-.0182343,4.8672523-.0084648,7.3012047-.0078163"/>
        <path class="cls-1" d="M40.7494125,30.3949088c2.5212021,0,5.0430565-.0071564,7.5642624.0026093,1.978157.007164,3.3247108,1.2619019,3.3312187,3.076622.0065117,1.8108139-1.3524094,3.1104851-3.3077774,3.1143875-5.0430603.0110741-10.0861168.0117264-15.1291771-.0006485-1.9325752-.0045547-3.3012657-1.3315773-3.28759-3.1352234.0130234-1.7691422,1.3595734-3.0440712,3.264801-3.0544853,2.5212021-.0136795,5.0430603-.0032616,7.5642624-.0032616"/>
        <path class="cls-1" d="M60.9370804,39.1503027c.0475311-11.1832886-8.9889565-20.3102798-20.1741905-20.3753929-11.2262573-.0657635-20.4092484,8.9909058-20.4658985,20.1839561-.0573006,11.2900696,8.9733257,20.4053421,20.2692547,20.4600372,11.211937.0546989,20.3233032-9.0110855,20.3708344-20.2686005M37.4713936,88.5644682c.0605545-1.8511887.0175781-3.7056274.0175781-5.6648941h-2.9600716c-1.5347328,0-3.0694618.0130157-4.6041908-.0045624-1.2117653-.0136719-1.797142-.5990448-1.8186302-1.7945328-.015625-.8855438-.0136719-1.7710953,0-2.6559906.0182343-1.2104645.571701-1.7867203,1.7990952-1.8003922,2.1839142-.0240936,4.3684807-.0078125,6.5523949-.0084686.3177567-.0006485.991684,0,.991684,0v-10.9951019c-12.7642479-2.526413-21.0564823-9.8009224-23.0593815-22.8262749-1.6532364-10.7535324,2.257494-19.7405338,11.4639263-25.7016964,10.4663811-6.7770357,21.0382462-6.1239452,31.1256714.8959656,3.8977051-3.8937988,7.8110428-7.8032312,11.7751694-11.7634497-.937645,0-1.8967667.0013113-2.8558884,0-1.1212616-.0019474-2.2438202.0195436-3.3637772-.0156183-.4499435-.014327-1.5568695-.4538469-1.5379868-1.4806881.0234375-1.2410717.0234375-2.7028718.0234375-3.3012714C61.0204239.4642786,62.0329437.0000194,62.6358948.0000194h15.2170868c1.4631042,0,1.8694153,1.3725986,1.865509,2.0068059-.0279999,4.9291048-.0091171,9.857564-.015625,14.7866735-.0019531,1.4494305-.534584,1.9703426-1.9762039,1.9788074-.8262939.0045567-1.6525955.0136719-2.4788818-.0026073-1.195488-.0227871-1.7782593-.6101131-1.7867279-1.8225307-.0136719-2.0009441-.0038986-4.0012417-.0038986-5.8719559-3.8690643,3.8697052-7.7745819,7.7745762-11.7680054,11.7686558-.0032578-.0045605.1256714.2148762.2754288.419981,11.3037415,15.5061893,3.3514023,36.8543758-14.6154327,41.5321484-.9187546.2389679-3.628788.8308487-3.628788.8308487l.0234413,11.0061798s5.230587-.0052109,7.3558998.0052109c1.5223579.0071564,2.0068016.5013733,2.0152664,2.0191727.0045624.7963409.0104218,1.5939865-.0019531,2.3903275-.0188828,1.2723236-.5736504,1.8407669-1.8394585,1.8479233-2.2425194.0130234-4.4856873.0026093-6.7288551.005867-.2324562,0-.4642639.0234375-.8113174.0423203,0,1.9065323-.0325584,3.7863617.0136719,5.6648941.022789.9506607-.4831429,2.0999222-1.5731468,2.0999222h-3.1235046c-.8783875,0-1.6102638-1.187027-1.5790062-2.1441956"/>
        <path class="cls-1" d="M21.033493,16.7766989c1.2006969-1.2046032,2.4111633-2.4007416,3.6046982-3.6125088.673275-.6843472.5690918-1.383667-.3203621-2.2933083-.5567207-.5697451-1.1232109-1.130374-1.6890526-1.6916542-1.0776291-1.0678654-1.6870956-1.1577225-2.5088291-.3464041-1.1466522,1.1323271-3.9478455,3.9406843-3.9478455,3.9406843M17.713995,11.234867c-1.1707439,1.1720486-7.8012772,7.7797928-8.9557438,8.9681168-.6485329.6680679-.5378399,1.3725986.3079891,2.237957.6185799.632906,1.2443237,1.2599545,1.8785305,1.877882.8568974.8341064,1.5848694.9337292,2.2438183.2936649.8354111-.810667,1.649332-1.6428204,2.4723682-2.4658585.517004-.5163517,6.4820728-6.4814224,7.0355377-7.0355396"/>
        <path class="cls-1" d="M24.5413666,19.0321063c-.2051086.149765-.4245415.2786884-.4199829.2754345-3.9940777-3.9940777-9.1771297-9.1771317-13.0468388-13.0461855,1.8707161,0,3.8716621.0097666,5.8726063-.0039053,1.2124176-.0084648,1.7990932-.5912361,1.8225346-1.7867231.0156269-.8262916.0071621-1.6525826.0026035-2.4788842-.0091152-1.4416113-.5300255-1.9735913-1.9788055-1.9755487C11.8643742.0091303,6.9352646.0286635,2.0068035.0000194,1.3719454-.0032393,0,.4030655,0,1.8661774v15.2164278c0,.6029549.4642591,1.6154728,1.4474783,1.6154728.5983944,0,2.0601969,0,3.3006144.0234375,1.0274954.0188828,1.4670124-1.0873985,1.4813385-1.5373344.0351601-1.1206074.0136738-2.2431679.0149755-3.3644276.0013027-.9591255.0006504-1.9182491.0006504-2.8558893,3.9602175,3.9641275,9.1471777,9.1556463,13.0416327,13.0533552"/>
      </g>
    </g>
  </g>
</svg>