<?xml version="1.0" encoding="UTF-8"?>
<svg xmlns="http://www.w3.org/2000/svg" version="1.1" viewBox="0 0 64.7305188 55.0919403">
  <!-- Generator: Adobe Illustrator 28.7.4, SVG Export Plug-In . SVG Version: 1.2.0 Build 166)  -->
  <g>
    <g id="Ebene_1">
      <path d="M12.4463086,27.5872537c-.1419067-4.08078.1622009-6.0484009.4885864-7.4539185l2.5235291.2264099c2.5458069.2182007,4.8723755-1.5881042,5.2977905-4.1197815l1.5770264-9.6113892c.4312744-2.6112061-1.2536316-5.0837097-3.8404236-5.6326294l-3.8250122-.8149719c-1.865509-.4201355-3.7993774-.104126-5.4599915.8997803C4.6963391,3.861271-.5535693,10.7930643.0471997,28.021763c.5986328,17.1411133,6.2729187,23.7149963,10.9761047,26.2151184.0236206.0131836.0480347.0264587.0723877.0385742,1.6994324.8711243,3.636322,1.0506897,5.4315491.512207l3.8015747-1.0924988c2.5429077-.7293091,4.0534973-3.3139954,3.4405212-5.8792114l-2.2460327-9.5054016c-.5986938-2.4807129-3.0466919-4.1156921-5.5834656-3.7209778l-2.4858093.3987732c-.4232178-1.3718872-.8639221-3.3087769-1.0077209-7.4010925h0ZM8.5356335,27.7233316c.1917725,5.4755249.8916016,7.5787354,1.4515991,9.2627258l.1528931.4661865c.3538818,1.1107178,1.4799805,1.8033142,2.6060791,1.6134949l3.8057251-.6109924c.5223083-.0814819,1.0454712.2663269,1.1648865.7640991l2.2459106,9.5013428c.1265869.5303955-.186615,1.0627747-.7129211,1.2137756h-.0019836l-3.822998,1.0996094c-.8435974.2528992-1.7472229.1682739-2.5286255-.2327271-.0173645-.0090942-.0346069-.0171814-.0520935-.0274048-3.7718811-2.0054016-8.3526611-7.6091919-8.8860779-22.8877869-.5357056-15.349823,3.6748657-21.2371826,7.2878113-23.4649048.7771606-.4691772,1.6871948-.6192932,2.5835876-.4172974l3.8494873.8202209c.0957947.0203857.18573.0539856.2683105.0978699.3774109.1999207.5987854.6242065.5244141,1.0700378l-1.5760193,9.6083984c-.0877991.5191956-.582489.9056702-1.0953979.8618774l-3.8292236-.343811c-1.177063-.111084-2.232666.6345215-2.5050659,1.7555237l-.1243896.4935913c-.4448242,1.730011-.9966431,3.8841858-.8059082,9.3561707h0ZM57.3574261,53.8307535h-29.2670135c-1.0220032,0-1.8506775-.8286743-1.8506775-1.8507996,0-1.0219116.8286743-1.850708,1.8506775-1.850708h29.2670135c2.0239868,0,3.6716003-1.6474915,3.6716003-3.6716003v-9.7706909c0-2.0239868-1.6476135-3.6714783-3.6716003-3.6714783H24.476521c-1.0219116,0-1.850708-.8288269-1.850708-1.8507996,0-1.0220337.8287964-1.850708,1.850708-1.850708h4.6069031V2.9061624h15.8118896v.0460815l9.4450073,9.3854065-.0149078.0150146h.0149078v16.9613037h3.0171051c4.0661011,0,7.3730927,3.3070068,7.3730927,7.3729858v9.7706909c0,4.0661011-3.3069916,7.3731079-7.3730927,7.3731079h0ZM44.8953137,8.1712686v4.1813965h4.207901l-4.207901-4.1813965h0ZM50.6388135,16.0541727h-9.4449921V6.6076395h-8.4091034v22.3247375h17.8540955v-12.8782043h0ZM33.3266186,41.5708658c0-.6863098.5557861-1.2420959,1.2421875-1.2420959h2.1644287c.6863861,0,1.2421875.5557861,1.2421875,1.2420959s-.5558014,1.2420959-1.2421875,1.2420959h-2.1644287c-.6864014,0-1.2421875-.5557861-1.2421875-1.2420959h0ZM33.3266186,46.0841714c0,.6864014.5557861,1.2420959,1.2421875,1.2420959h2.1644287c.6863861,0,1.2421875-.5556946,1.2421875-1.2420959s-.5558014-1.2420959-1.2421875-1.2420959h-2.1644287c-.6864014,0-1.2421875.5556946-1.2421875,1.2420959h0ZM33.3266186,37.056553c0-.6863708.5557861-1.2421875,1.2421875-1.2421875h2.1644287c.6863861,0,1.2421875.5558167,1.2421875,1.2421875,0,.6863098-.5558014,1.2421875-1.2421875,1.2421875h-2.1644287c-.6864014,0-1.2421875-.5558777-1.2421875-1.2421875h0ZM40.6290021,42.8129617h2.1645203c.6863098,0,1.2420959-.5557861,1.2420959-1.2420959s-.5557861-1.2420959-1.2420959-1.2420959h-2.1645203c-.6862793,0-1.2420959.5557861-1.2420959,1.2420959s.5558167,1.2420959,1.2420959,1.2420959h0ZM40.6290021,44.8420755h2.1645203c.6863098,0,1.2420959.5556946,1.2420959,1.2420959s-.5557861,1.2420959-1.2420959,1.2420959h-2.1645203c-.6862793,0-1.2420959-.5556946-1.2420959-1.2420959s.5558167-1.2420959,1.2420959-1.2420959h0ZM40.6290021,38.2987405h2.1645203c.6863098,0,1.2420959-.5558777,1.2420959-1.2421875,0-.6863708-.5557861-1.2421875-1.2420959-1.2421875h-2.1645203c-.6862793,0-1.2420959.5558167-1.2420959,1.2421875,0,.6863098.5558167,1.2421875,1.2420959,1.2421875h0ZM45.4481091,41.5708658c0-.6863098.5558014-1.2420959,1.242218-1.2420959h2.1643982c.6863861,0,1.2421875.5557861,1.2421875,1.2420959s-.5558014,1.2420959-1.2421875,1.2420959h-2.1643982c-.6864166,0-1.242218-.5557861-1.242218-1.2420959h0ZM45.4481091,46.0841714c0,.6864014.5558014,1.2420959,1.242218,1.2420959h2.1643982c.6863861,0,1.2421875-.5556946,1.2421875-1.2420959s-.5558014-1.2420959-1.2421875-1.2420959h-2.1643982c-.6864166,0-1.242218.5556946-1.242218,1.2420959h0ZM45.4481091,37.056553c0-.6863708.5558014-1.2421875,1.242218-1.2421875h2.1643982c.6863861,0,1.2421875.5558167,1.2421875,1.2421875,0,.6863098-.5558014,1.2421875-1.2421875,1.2421875h-2.1643982c-.6864166,0-1.242218-.5558777-1.242218-1.2421875h0Z"/>
    </g>
  </g>
</svg>