<?xml version="1.0" encoding="UTF-8"?>
<svg xmlns="http://www.w3.org/2000/svg" version="1.1" viewBox="0 0 80.6964436 80.5614309">
  <!-- Generator: Adobe Illustrator 28.7.4, SVG Export Plug-In . SVG Version: 1.2.0 Build 166)  -->
  <g>
    <g id="Ebene_1">
      <g>
        <path d="M80.6964436,39.3455915c-.7782211,2.6220932-2.9040985,4.1062317-4.9192505,5.6210976-3.4766922,2.6135025-7.5169373,3.7491989-11.8003159,4.1351509-4.8446808.4370117-9.6518478-.0935516-14.461731-.5527115-4.6010857-.4392738-9.1967545-.929615-13.8339958-.5707855-5.6857224.4401779-10.7414474,2.302124-14.8418007,6.3925362-.0727577.0727577-.161335.1296997-.2453957.190258-.0167236.0122032-.0470028.0058746-.1536541.0153656-3.7623158-13.4358482-7.5286922-26.886158-11.3289604-40.4580383,1.6016388-1.7548389,3.5842476-3.2303867,5.834404-4.3520718,3.7464886-1.8682766,7.7641373-2.6342983,11.8992939-2.5050488,4.5084419.1410065,9.0123634.5088749,13.5108643.8690605,4.7683067.3818798,9.5271187.8071442,14.298584.0736694,5.334568-.8202534,9.8497887-3.14814,13.440815-7.2087221.3940887-.4451504.7352905-1.2590723,1.4665146-.9110918.6797028.3226795.3841324,1.1022596.3082123,1.7114563-1.0326614,8.2743702-2.6180267,16.4425316-4.7520294,24.5035915-.202919.7664719-.0230484,1.3386116.5847931,1.8827362,4.2436142,3.8007202,8.8862762,7.0148392,13.952858,9.6287994.4184799.2160225.6973267.7022972,1.0407944,1.0629349v.4718132Z"/>
        <path d="M18.913229,80.5614309c-1.200325-.5418625-1.7146206-1.5397263-2.0562782-2.7662582C11.3497448,58.0273428,5.814518,38.2671995.2815504,18.506154c-.0686932-.2444935-.1866455-.4749813-.2815504-.7122421v-1.4158897c.0709515-.164957.1455202-.3285561.2124052-.4953194.5834408-1.4506874,1.9279308-2.2831459,3.560298-2.2036018,1.4217682.0695934,2.5931683.9919815,3.0112019,2.4666252,1.5275211,5.3865452,3.0356083,10.7785091,4.5450516,16.170023,4.0763988,14.5625076,8.1500874,29.1259155,12.2233219,43.6888809.0985222.3525009.210598.7050095.2616653,1.0651932.1965904,1.3856125-.5355339,2.5488815-1.8587818,2.9953842-.4885349.1649551-.9770718.3308105-1.4656048.4962234h-1.5763283Z"/>
      </g>
    </g>
  </g>
</svg>