<?xml version="1.0" encoding="UTF-8"?>
<svg xmlns="http://www.w3.org/2000/svg" version="1.1" viewBox="0 0 96.3779541 87.9460831">
  <!-- Generator: Adobe Illustrator 28.7.4, SVG Export Plug-In . SVG Version: 1.2.0 Build 166)  -->
  <g>
    <g id="Ebene_1">
      <path d="M96.278182,15.9974823c-.3368378-5.8130169-1.5892105-9.6013088-4.0642929-12.2848673-2.2732697-2.4632058-5.3240891-3.712615-9.0663757-3.712615-1.7479858,0-3.7022247.2700624-6.1505966.8495092-3.9203568.927412-7.9045181,3.1205549-12.1809998,6.7055578-3.1353951,2.6256886-6.4503326,6.0452404-9.8572731,10.1629486-2.2050133,2.6664944-4.4753189,5.6586952-6.7693634,8.9231892-2.2947884-3.2644901-4.5643501-6.256691-6.7701073-8.9231853-3.4039726-4.1162243-6.7196541-7.5350351-9.8557892-10.1622076C27.2854184,3.970067,23.300517,1.7761817,19.3801603.8487697,16.9295682.2700648,14.9753255.0000024,13.2310495.0000024,9.4865312.0000024,6.435718,1.2494116,4.1639299,3.7126179,1.6888532,6.3954344.4357344,10.1844683.0996403,15.9982262c-.2433529,4.2074814-.0452577,9.8780479.6417689,18.3850136.9081216,11.2372627,6.683301,17.246891,11.8805161,20.404541-1.1025076,1.390377-1.9408875,2.8905563-2.5032701,4.4857025-1.0268307,2.9187469-1.0965719,6.0022125-.2077398,9.1672821.8294773,2.954361,2.5284958,5.9784698,5.048831,8.9906998,1.5914383,1.9037933,4.2408676,4.6474457,7.8280983,6.9118118,7.204134,4.5465469,14.7183952,4.7676392,20.5967026.6899948,1.6723099-1.1618652,3.2808113-2.7881699,4.8047371-4.8566666,1.522438,2.0684967,3.1324272,3.694809,4.8062172,4.8566666,2.7866859,1.9334717,5.904274,2.9128113,9.2666969,2.9128113,3.730423,0,7.5424576-1.2123108,11.3292618-3.6028061,3.5894547-2.267334,6.2366562-5.0095062,7.8258743-6.9103317,2.5225601-3.0151978,4.2215805-6.0407867,5.0495682-8.9906998.8888321-3.1650696.8190918-6.2500153-.2077408-9.1687622-.5608978-1.5936661-1.3992767-3.0953293-2.5017853-4.4857063,5.19944-3.1621017,10.9716492-9.1702461,11.879776-20.4045448.687027-8.4950924.8843765-14.165659.6410294-18.3857498ZM88.8763189,33.8371735c-1.395195,17.2606163-17.1485901,18.5393333-21.7871246,18.5393333-.8072205,0-1.277977-.0389519-1.277977-.0389519,0,0,23.7847748,4.7464943,10.4040756,20.7439728-3.3130875,3.9607925-8.6879959,8.0818405-13.9534683,8.0818405-1.8448067,0-3.677002-.5067368-5.4008751-1.7027283-4.3647728-3.0285568-7.6155357-11.230217-8.6716728-14.2161102-1.0565071,2.9858932-4.3072701,11.1875534-8.671669,14.2161102-1.7246132,1.1963577-3.5560684,1.7027283-5.4012451,1.7027283-5.2651024,0-10.6407509-4.1214142-13.9534664-8.0818405-13.3806973-15.9974823,10.4040775-20.7439766,10.4040775-20.7439766,0,0-.4703827.0389519-1.2779732.0389519-4.6396561,0-20.3919296-1.2798271-21.7871284-18.5393333-1.7116313-21.1768913-.5872374-27.0551987,5.7288074-27.0548267,1.3017149,0,2.8248959.2496595,4.5884628.6669941,12.2559319,2.8990889,26.6182041,25.5260811,30.370142,31.4548378,3.7519379-5.9287567,18.1138382-28.5557499,30.3697662-31.4548397,1.7639389-.4173355,3.286377-.6669941,4.5884628-.6669941,6.3145599,0,7.4404373,5.8794193,5.7288055,27.0548325Z"/>
    </g>
  </g>
</svg>