<?xml version="1.0" encoding="UTF-8"?>
<svg xmlns="http://www.w3.org/2000/svg" version="1.1" viewBox="0 0 90.7095509 90.7086639">
  <defs>
    <style>
      .cls-1 {
        fill: #1a1a18;
      }
    </style>
  </defs>
  <!-- Generator: Adobe Illustrator 28.7.4, SVG Export Plug-In . SVG Version: 1.2.0 Build 166)  -->
  <g>
    <g id="Ebene_1">
      <path class="cls-1" d="M61.9912205,28.7183342c9.1882629,9.1873741,9.1882629,24.0846214,0,33.2728844s-24.0846214,9.1882629-33.2728882,0-9.1882629-24.0846214,0-33.2728844,24.0846252-9.188261,33.2728882,0M69.9370136,7.1764708l-3.8101425-2.1994562s-3.0123596-1.7396364-5.00103,1.1144085l-3.8955154,5.5906878s-.1760941.2570353-.3441887.6572561c-1.6266937-.566534-3.291626-1.0139017-4.983242-1.3367481.0195656-.2312431.02668-.4749298.0035553-.7470827l-.5780983-6.7895889s-.2952766-3.4659472-3.773674-3.4659472h-4.3998032s-3.4783897,0-3.7736702,3.4659472l-.5781021,6.7895889s-.0249023.3050556.0284615.7319651c-1.6782761.3184023-3.3458786.7639847-4.9894676,1.3385258-.0960541-.2081108-.2072258-.420681-.3628693-.6439161l-3.8955193-5.5906878s-1.9886723-2.8540449-5.0010262-1.1144085l-3.8101368,2.1994562s-3.0123577,1.7387543-1.5350857,4.8880777l2.8940697,6.1696873s.131628.2748184.3895512.6163464l.0026665.0062218c-1.3180714,1.1330814-2.5347538,2.3506489-3.6491547,3.6411552-.1876621-.1298542-.3975582-.2525902-.6403599-.3664303l-6.1696835-2.8940659s-3.1484346-1.4772758-4.8880777,1.5350819l-2.1994562,3.8101349s-1.7387543,3.0123558,1.1144018,5.0001373l5.5915833,3.8964119s.2561464.1760979.6572561.3441925c-.5674305,1.6258011-1.0139017,3.2916222-1.3376369,4.9832382-.2312431-.0195694-.4749298-.0266838-.7461939-.0035553l-6.7904778.5780983S.0008888,39.6764793.0008888,43.1548767l-.0008888,4.3998032s0,3.4775047,3.4659472,3.7727776l6.7904778.5789948s.3041668.0249023.7310753-.0284576c.3184032,1.6764946.7630968,3.3423157,1.3376379,4.984127-.2081184.0987244-.420681.2134514-.6421385.368206l-5.5915833,3.8955193s-2.8531561,1.9886703-1.1144018,5.0010223l2.1994562,3.8101425s1.7396431,3.0123596,4.8880777,1.53508l6.1696835-2.8940659s.2783775-.1334076.6216831-.3931046c1.1330776,1.3180695,2.3515377,2.5356369,3.6429291,3.6500397-.1298504.1876678-.2534752.3975601-.3673153.640358l-2.8940697,6.169693s-1.477272,3.1484299,1.5350857,4.8880692l3.8101368,2.1994553s3.0123539,1.7387543,5.0010262-1.1144028l3.8955193-5.5915756s.1761017-.2561493.3441925-.6572647c1.6266899.5674286,3.291626,1.0139008,4.983242,1.3376465-.0195656.2303467-.0266838.4740372-.0035591.7461929l.5781021,6.7904739s.2952805,3.4650574,3.7736702,3.4650574h4.3998032s3.4783974,0,3.773674-3.4650574l.5780983-6.7904739s.0249023-.3041763-.0284576-.7310791c1.6773834-.3192902,3.3423195-.763092,4.9850197-1.3376312.0978279.208107.2125587.4206772.3673134.6421356l3.8955154,5.5915756s1.9886703,2.853157,5.00103,1.1144028l3.8101425-2.1994553s3.012352-1.7396393,1.53508-4.8880692l-2.8940735-6.169693s-.132515-.2783737-.3931046-.6216736c1.3180695-1.1330872,2.5356445-2.3515396,3.6500473-3.6429367.1876602.1298523.3984451.253479.640358.3673172l6.1696854,2.8940659s3.1493225,1.4772797,4.8880768-1.53508l2.1994553-3.8101425s1.7396393-3.012352-1.1144028-5.0010223l-5.5906982-3.8955193s-.2570267-.1760979-.6581421-.3441963c.5674286-1.6266861,1.0147934-3.2916183,1.3376389-4.9832344.2312393.0195656.4749374.02668.7462006.0035553l6.7904739-.5789948s3.4659424-.2952728,3.4659424-3.7736702v-4.3989105s0-3.4783974-3.4659424-3.773674l-6.7904739-.5780983s-.3041763-.025795-.7310791.0284576c-.3183975-1.6773834-.763092-3.3423195-1.3376465-4.9850197.2081223-.0978279.4206848-.2125626.6430283-.3673134l5.5906982-3.8964119s2.8540421-1.9877815,1.1144028-5.0001373l-2.1994553-3.8101349s-1.7396469-3.0123577-4.8880768-1.5350819l-6.1696854,2.8940659s-.2783813.1325207-.6216812.3931103c-1.1330795-1.3180752-2.3515396-2.5356426-3.6429291-3.6509399.1298447-.1867695.2534714-.3975544.3673096-.6394634l2.8940735-6.1696873s1.477272-3.1493235-1.53508-4.8880777"/>
    </g>
  </g>
</svg>