<?xml version="1.0" encoding="UTF-8"?>
<svg xmlns="http://www.w3.org/2000/svg" version="1.1" viewBox="0 0 45.0356127 47.7175121">
  <!-- Generator: Adobe Illustrator 28.7.4, SVG Export Plug-In . SVG Version: 1.2.0 Build 166)  -->
  <g>
    <g id="Ebene_1">
      <path d="M25.5414302,47.7175121c-5.8438263,0-13.0283051-1.1318054-18.3379974-5.6719055C1.7181117,37.3552074-.652982,30.02812.1537196,20.2701854,1.2426173,7.1115856,7.8851344.4918956,20.4612148.0325145c14.5713196-.5366211,23.5157928,5.590271,24.4707031,16.8075867.4523163,5.3050842-.5722046,9.2923889-3.1307831,12.1889954-2.9335175,3.3201904-7.6884155,5.0625-14.5359955,5.3261108-10.2823181.4032898-13.647522-4.4014282-14.7432251-7.296814-1.6748962-4.4239197-.0762024-9.6221008,2.467804-11.7008057,2.3916016-1.9549866,5.9822998-4.4320984,9.5527191-3.3519897,2.5829773.7807922,4.4726868,3.226593,5.7782745,7.476593.3487244,1.1347046-.2889862,2.3377991-1.4247894,2.6864929-1.1327972.3496094-2.3378906-.2901001-2.6864929-1.4247742-.8281097-2.6983032-1.8358917-4.296936-2.9122009-4.6226196-1.1493073-.3490906-3.1366119.5625-5.5860138,2.565918-1.1434021.9346008-2.1921997,4.1426086-1.1678772,6.8495789,1.203186,3.1777954,4.8564758,4.7432251,10.5555725,4.5216064,5.5332031-.2130127,9.3955078-1.5176086,11.4795074-3.8760071,1.7638092-1.9960938,2.4210052-4.8486938,2.068512-8.9771118-.9541016-11.2147827-11.4122162-13.1869812-20.0283966-12.8759766-7.3564148.269104-15.0312195,2.4155884-16.179718,16.2953796-.6863708,8.2969055,1.180603,14.4014282,5.5498047,18.1446228,8.6766968,7.4325867,24.6515045,3.6942749,24.8115997,3.656189,1.1582031-.280304,2.3153076.4317017,2.5946045,1.5839844.2792969,1.1533203-.427597,2.3145142-1.5810089,2.5947266-.3612061.0878906-4.7098846,1.1133118-10.2723846,1.1133118h0Z"/>
    </g>
  </g>
</svg>