<?xml version="1.0" encoding="UTF-8"?>
<svg xmlns="http://www.w3.org/2000/svg" version="1.1" viewBox="0 0 65.6983606 90.7086639">
  <defs>
    <style>
      .cls-1 {
        fill: #1a1a18;
      }
    </style>
  </defs>
  <!-- Generator: Adobe Illustrator 28.7.4, SVG Export Plug-In . SVG Version: 1.2.0 Build 166)  -->
  <g>
    <g id="Ebene_1">
      <path class="cls-1" d="M46.9171482,39.1505241c.0471992-11.1838989-8.9894562-20.3103447-20.1746635-20.3758888-11.2265015-.0655479-20.409317,8.9907684-20.466341,20.1844978-.0570259,11.2900772,8.9737263,20.4053841,20.2697086,20.4597855,11.2120781.0544052,20.323452-9.0110893,20.3712959-20.2683945M23.4508282,88.5646896c.0603027-1.8509827.0176964-3.7058945.0176964-5.6643753h-2.9606552c-1.5344009-.0006485-3.069458.0124588-4.6038628-.0045853-1.2112656-.0137634-1.7972355-.5990753-1.8182087-1.7952728-.0157318-.8848495-.0137653-1.7710114-.0006561-2.6558685.0183525-1.2099533.5715504-1.7867508,1.7998562-1.8005142,2.1839523-.0235977,4.3679008-.0078659,6.5518532-.008522h.9916916v-10.9951248C10.6643635,63.1143341,2.3722988,55.8395195.3692509,42.8144722c-1.6530371-10.7539215,2.2573605-19.7407589,11.4637737-25.7020531,10.4668369-6.7766676,21.0385456-6.1238451,31.1258831.8966541,3.8979454-3.8946686,7.8109665-7.8037586,11.7751083-11.7639713-.9372864,0-1.8968658.0013103-2.8557892,0-1.1214676-.0019598-2.2435913.0196629-3.3637466-.0157223-.4502945-.0144215-1.5573463-.4535704-1.5376816-1.4806566.0235977-1.2407656.0235977-2.7030702.0235977-3.3008399,0-.9838214,1.0120087-1.4478831,1.6150208-1.4478831h15.2168655c1.4629517,0,1.8693314,1.3725128,1.8660583,2.0069776-.0288391,4.9283118-.0091782,9.8572783-.0163879,14.7862391-.0019608,1.449194-.5341873,1.9702721-1.9755173,1.9787941-.8265228.0052452-1.653038.0137672-2.4789047-.0019646-1.1955338-.0235939-1.7788849-.6102219-1.7867508-1.8227978-.0137558-2.0010815-.0039291-4.0015087-.0039291-5.8721533-3.8691025,3.8697615-7.7742615,7.7749166-11.7685547,11.7685575-.0032806-.004591.126503.2149849.2759399.4201412,11.3038483,15.5065727,3.3513031,36.8544846-14.615818,41.5324173-.9182816.2385788-3.6285553.830452-3.6285553.830452l.0235977,11.0069275s5.2304688-.005249,7.3554268.0052414c1.5226059.0072098,2.0069809.5007629,2.0155029,2.0187759.0045891.7963715.0104866,1.5933914-.0019684,2.390419-.0183525,1.2722168-.5735168,1.8404922-1.8391838,1.847702-2.2429428.0131073-4.4858818.0032806-6.7294769.0058975-.232029.0006561-.4634018.0235977-.8114471.0426102,0,1.9060364-.0321159,3.7865143.0137634,5.6643753.0235977.9510498-.4824066,2.1000519-1.5724144,2.1000519h-3.1238632c-.8782997,0-1.6104317-1.1863632-1.5789719-2.1439743"/>
    </g>
  </g>
</svg>