<?xml version="1.0" encoding="UTF-8"?>
<svg xmlns="http://www.w3.org/2000/svg" version="1.1" viewBox="0 0 96.3779501 95.7588259">
  <!-- Generator: Adobe Illustrator 28.7.4, SVG Export Plug-In . SVG Version: 1.2.0 Build 166)  -->
  <g>
    <g id="Ebene_1">
      <g id="Ebene_1-2">
        <polygon points="48.1889776 0 46.6411489 4.7982603 41.6107191 4.7982603 45.6608633 7.7391278 44.1388334 12.5631872 48.1889776 9.5965201 52.239118 12.5631872 50.7170919 7.7391278 54.7672323 4.7982603 49.7368025 4.7982603 48.1889776 0"/>
        <polygon points="46.6411489 87.9938952 41.6107191 87.9938952 45.6608633 90.9347674 44.1388334 95.7588259 48.1889776 92.8179537 52.239118 95.7588259 50.7170919 90.9347674 54.7672323 87.9938952 49.7368025 87.9938952 48.1889776 83.1956316 46.6411489 87.9938952"/>
        <polygon points="5.0304345 46.3831774 0 46.3831774 4.0501436 49.3240458 2.5281156 54.1481043 6.5782589 51.2072359 10.6542 54.1481043 9.1063761 49.3240458 13.1823171 46.3831774 8.1518806 46.3831774 6.5782589 41.5849177 5.0304345 46.3831774"/>
        <polygon points="27.3707193 5.5979687 25.8228925 10.3704334 20.7924589 10.3704334 24.8426031 13.3628956 23.3205732 18.1353594 27.3707193 15.1428972 31.4466604 18.1353594 29.8988336 13.3370978 33.9747747 10.3704334 28.9443449 10.3704334 27.3707193 5.5979687"/>
        <polygon points="12.1762289 20.7924601 10.6026071 25.5907217 5.5721711 25.5907217 9.6481146 28.5315882 8.07449 33.3556467 12.1762289 30.4147745 16.2263731 33.3556467 14.6785482 28.5315882 18.7544893 25.5907217 13.7240556 25.5907217 12.1762289 20.7924601"/>
        <polygon points="13.7240556 67.1756426 12.1762289 62.403174 10.6026071 67.1756426 5.5721711 67.1756426 9.6481146 70.1423098 8.07449 74.9405733 12.1762289 71.9996935 16.2263731 74.9405733 14.6785482 70.1423098 18.7544893 67.1756426 13.7240556 67.1756426"/>
        <polygon points="28.9443449 82.4217211 27.3707193 77.6234652 25.8228925 82.4217211 20.7924589 82.4217211 24.8426031 85.3883959 23.3205732 90.1608492 27.3707193 87.1941897 31.4466604 90.1608492 29.8988336 85.3883959 33.9747747 82.4217211 28.9443449 82.4217211"/>
        <polygon points="88.2260717 46.3831774 83.1956381 46.3831774 87.2457784 49.3240458 85.7237524 54.1481043 89.7996954 51.2072359 93.8498358 54.1481043 92.3278097 49.3240458 96.3779501 46.3831774 91.3475164 46.3831774 89.7996954 41.6107126 88.2260717 46.3831774"/>
        <polygon points="68.9814428 5.5979687 67.4336065 10.3704334 62.4031767 10.3704334 66.4533285 13.3628956 64.9312872 18.1353594 68.9814428 15.1428972 73.0315832 18.1353594 71.5095571 13.3370978 75.5854925 10.3704334 70.5550512 10.3704334 68.9814428 5.5979687"/>
        <polygon points="81.699407 28.5315882 80.1515783 33.3556467 84.2017187 30.4147745 88.3034567 33.3556467 86.729833 28.5315882 90.8057836 25.5907217 85.7753423 25.5907217 84.2017187 20.7924601 82.6538976 25.5907217 77.623464 25.5907217 81.699407 28.5315882"/>
        <polygon points="85.7753423 67.1756426 84.2017187 62.403174 82.6538976 67.1756426 77.623464 67.1756426 81.699407 70.1423098 80.1515783 74.9405733 84.2017187 71.9996935 88.3034567 74.9405733 86.729833 70.1423098 90.8057836 67.1756426 85.7753423 67.1756426"/>
        <polygon points="70.5550512 82.4217211 68.9814428 77.6492678 67.4336065 82.4217211 62.4031767 82.4217211 66.4533285 85.3883959 64.9312872 90.1866518 68.9814428 87.1941897 73.0315832 90.1866518 71.5095571 85.3883959 75.5854925 82.4217211 70.5550512 82.4217211"/>
      </g>
    </g>
  </g>
</svg>