<?xml version="1.0" encoding="UTF-8"?>
<svg xmlns="http://www.w3.org/2000/svg" version="1.1" viewBox="0 0 65.7243223 42.4718323">
  <!-- Generator: Adobe Illustrator 28.7.4, SVG Export Plug-In . SVG Version: 1.2.0 Build 166)  -->
  <g>
    <g id="Ebene_1">
      <path d="M65.7243223,21.2801819l-2.3963165-2.5188904-6.7908936-7.1390076h-.0002899L45.6065397.1318054c-.0805054-.084198-.1919098-.1318054-.3080139-.1318054h-19.4227753c-.1701355,0-.3236389.1011963-.3909302.2572021-.0664978.1564941-.0339966.3374023.0830078.4606934l10.3724976,10.9043884h-.0005035l9.1871948,9.6581116-11.0259705,11.5915222h.0002899l-8.4480286,8.8819885c-.1169739.1227722-.1493835.3045959-.0829773.4606934.0671997.1560059.2207031.2572327.3909912.2572327h19.422699c.1161041,0,.2274933-.0480347.3079987-.1318359l9.0056-9.4680786h.0005035l8.6298828-9.0726013,2.3963165-2.5191345h0ZM60.6798277,21.2801819l-16.6811066,17.5368958h-10.5081177l10.0997162-10.6178894,6.5813141-6.9190063-.2779083-.2917786c-.000412-.0003967-.000412-.0009155-.0007019-.0013123L33.4050322,3.6546936h10.5090027l7.5788879,7.9675903h-.0004883l9.1873932,9.6578979h0ZM31.0863218,11.6222839L20.156024.1318054c-.0806885-.084198-.1916199-.1318054-.3080139-.1318054H.425128C.2548399,0,.101306.1011963.0341368.2572021-.0324831.4136963.0001097.5946045.1170225.7178955l10.3723145,10.9043884h0l8.6774902,9.1223145.509491.5353699L.2017088,41.7539062c-.1171875.1227722-.1493835.3045959-.0828857.4606934.0671082.1560059.2206116.2572327.3909302.2572327h19.4239502c.1159058,0,.2273254-.0480347.3078308-.1318359l9.0055847-9.4680786h.0003052l8.6298981-9.0726013,2.3960114-2.5191345-.2784119-.2923889c-.0002899-.0003052-.0002899-.0004883-.000412-.0007019l-6.1705933-6.4866943-2.7375946-2.8781128h0ZM26.0418272,11.6222839l9.1869965,9.6578979-5.041214,5.300293-5.9845886,6.2914429-5.6547852,5.9451599h-10.5082092l5.6545105-5.9451599h.0001831l11.026001-11.5917358-9.1868896-9.6578979h-.0005188L7.9545164,3.6546936h10.5082092l7.5791016,7.9675903h0Z"/>
    </g>
  </g>
</svg>