<?xml version="1.0" encoding="UTF-8"?>
<svg xmlns="http://www.w3.org/2000/svg" version="1.1" viewBox="0 0 87.3733397 90.7086639">
  <defs>
    <style>
      .cls-1 {
        fill: #1a1a18;
      }
    </style>
  </defs>
  <!-- Generator: Adobe Illustrator 28.7.4, SVG Export Plug-In . SVG Version: 1.2.0 Build 166)  -->
  <g>
    <g id="Ebene_1">
      <path class="cls-1" d="M84.8701658,21.4833336c-1.6687851-4.3289661-4.1360703-8.085968-7.3996201-11.2687654-3.2635422-3.1828051-7.3278351-5.6792479-12.1861496-7.4938297-4.8605499-1.8123312-10.4837227-2.7207384-16.8650246-2.7207384-6.8186798,0-13.1663322,1.26056-19.0407181,3.7749453-5.8766289,2.5166359-10.9906406,6.0336342-15.3420372,10.5465269-4.3536396,4.5173779-7.7809248,9.8826046-10.2818556,16.1001663-2.5031719,6.2175636-3.7547607,13.0295143-3.7547607,20.4291306,0,6.0695267.8882232,11.5670853,2.6669111,16.488205,1.7764454,4.9233551,4.423172,9.1042862,7.9424191,12.5450287,3.5170059,3.4429855,7.9042892,6.1076508,13.1640968,7.9940033,5.2598057,1.8886032,11.3719463,2.830658,18.334177,2.830658,3.4833603,0,7.3996162-.35215,11.7532578-1.0542068,4.3513985-.7042999,8.4134483-1.7584991,12.1861534-3.164856l-2.5031738-12.9891434c-3.1940155,1.0362625-6.4194336,1.8706512-9.6829796,2.4986877-3.265789.6302795-6.4934502.9420547-9.6852188.9420547-5.1521454,0-9.557373-.6257935-13.2201691-1.8863525-3.6627998-1.258316-6.6751328-3.0706482-9.0302696-5.4414902-2.3573799-2.3663483-4.1001816-5.2530746-5.223917-8.6601715-1.1237373-3.4026146-1.6867275-7.289711-1.6867275-11.6568031,0-5.4011192.852335-10.3065338,2.5570049-14.7117577,1.7046719-4.4029846,4.0261631-8.1599903,6.9644775-11.2687721s6.3813-5.5132599,10.3379307-7.2179337c3.9521446-1.7001839,8.2138176-2.5525227,12.7827873-2.5525227,4.5712051,0,8.4515762.6302853,11.6433449,1.8863602,3.1917725,1.2605515,5.7667236,2.9427929,7.7248535,5.0534439,1.9581299,2.1084099,3.3734512,4.5353241,4.2437363,7.2717686.8702698,2.7386894,1.3054123,5.5895271,1.3054123,8.548027,0,3.3330803-.2714081,6.1457863-.8164444,8.438118-.5428009,2.2968216-1.3054199,4.1652298-2.2833633,5.6074677-.9801865,1.4444847-2.1218643,2.4807472-3.4272842,3.1087837-1.3054199.6302795-2.6848602.944294-4.1360703.944294-1.8863525,0-3.0998077-.6841049-3.6448517-2.0545731-.5428085-1.3682251-.5271072-3.8310242.0538254-7.3839149l3.4833603-20.9831524c-1.5229874-.6661663-3.4833603-1.2583141-5.8766289-1.7764454-2.3932648-.5158863-4.8605537-.7783184-7.3973694-.7783184-4.4994354,0-8.3798027.7603741-11.6433487,2.2766361-3.263546,1.5185032-5.9685898,3.6089649-8.1061592,6.2736359-2.1398087,2.664669-3.7188721,5.7936363-4.7327023,9.3824158-1.0160732,3.5910225-1.5229874,7.4198074-1.5229874,11.4908257,0,5.7016754,1.0138283,9.9005432,3.0459766,12.6011047,2.0299034,2.7027969,4.7865334,4.0530777,8.2698975,4.0530777,1.6665382,0,3.2455978-.2781296,4.7327003-.8321457,1.4848595-.5562668,2.8463516-1.2942047,4.0799942-2.2205582,1.2336426-.9241104,2.3394356-1.9805603,3.319622-3.164856.9779434-1.1820602,1.7943916-2.3685951,2.4470978-3.5528946h.4351387c.0717812,2.8867264,1.0340195,5.237381,2.8844872,7.0497131,1.8482208,1.8145752,4.6227951,2.7207413,8.3237267,2.7207413,3.9880295,0,7.6508331-.6661682,10.9883957-1.998497,3.3353195-1.3323364,6.2198029-3.3308411,8.6511993-5.9955101,2.4291534-2.664669,4.3132629-5.9955063,5.6568222-9.9925079,1.341301-3.9970055,2.0141983-8.6601791,2.0141983-13.9895134,0-5.0332642-.8366394-9.7143803-2.5031738-14.0455894M48.2018042,33.0863075l-.7626152,4.219059c-1.2336464,6.2175598-2.7566299,10.65868-4.5689659,13.323349-1.814579,2.664669-3.5551338,3.9970016-5.2216759,3.9970016-1.0183144,0-1.7248573-.4799995-2.1218643-1.4422379-.4014969-.9622459-.5988808-2.5547638-.5988808-4.775322,0-1.7024269.2175713-3.4788742.6527138-5.3293419.4351349-1.8504601,1.0497169-3.5528908,1.8504639-5.1072807.796257-1.55439,1.7943878-2.8485947,2.9921417-3.8870964,1.1955109-1.0340157,2.5570068-1.5521507,4.079998-1.5521507.6527061,0,1.2852325.0381317,1.9042931.1099091.6145782.0740204,1.213459.2220573,1.7943916.4441109"/>
    </g>
  </g>
</svg>