<?xml version="1.0" encoding="UTF-8"?>
<svg xmlns="http://www.w3.org/2000/svg" version="1.1" viewBox="0 0 60.2830722 60.4291077">
  <!-- Generator: Adobe Illustrator 28.7.4, SVG Export Plug-In . SVG Version: 1.2.0 Build 166)  -->
  <g>
    <g id="Ebene_1">
      <path d="M60.2830722,29.8506165C60.2830722,13.3908081,46.8913791,0,30.4313723,0,13.9722659,0,.5815799,13.3908081.5815799,29.8506165c0,4.9662781,1.2694092,9.9055481,3.6734924,14.2914734L.012366,59.9719849c-.0335999.1257019.0025024.2591858.0933228.3511047.0689697.0688782.1616821.1060181.256897.1060181.0316772,0,.063385-.004303.0941772-.0131226l15.9138184-4.2633972c4.3283081,2.3208923,9.1867065,3.5480957,14.060791,3.5480957,16.4600067,0,29.8516998-13.390686,29.8516998-29.8500671h0ZM53.9820773,29.8506165c0,12.9855652-10.5644989,23.5501709-23.550705,23.5501709-4.209198,0-8.3654785-1.1506958-12.0206909-3.3294067l-1.0119934-.6027222c-.0566101-.033844-.1211243-.0513611-.18573-.0513611-.0315857,0-.0635986.0043945-.0941772.013092l-8.3595276,2.2399902,2.2260132-8.308197c.0261841-.0961914.0120239-.1979065-.0396118-.2821045l-.6201782-1.0203857c-2.2530212-3.7012939-3.4440002-7.9231873-3.4440002-12.2090759,0-12.9850464,10.5646057-23.54953,23.5498962-23.54953,12.9862061,0,23.550705,10.5644836,23.550705,23.54953h0ZM45.8871676,37.1697693c-.3069-1.4104919-1.8466949-2.2727051-3.082901-2.9663696-.2146912-.1200256-.4188995-.2342224-.6035004-.3450928-1.4716949-.878418-3.1937866-1.6863098-4.7982025-1.0284119-.9129791.3728027-1.5521851,1.4024048-2.1179962,2.310791-.2377167.3819885-.4627991.7433167-.6810913,1.012207-.2247925.2781982-.4707947.4062805-.9958038.1984863-4.1907959-1.6712952-7.5161133-4.5209961-9.8937988-8.4842834-.3013-.4606018-.2713013-.759491.1268921-1.2281799l.1929016-.2250366c.7155151-.8321838,1.5259094-1.7763977,1.7229919-2.9294128.2113342-1.2396851-.3414612-2.6512756-.8470764-3.7430725-.0831909-.1777954-.1659851-.3647156-.2527161-.5587158-.5621948-1.2579956-1.2616882-2.8244019-2.5033875-3.5249023-1.4450989-.8183899-3.1972046-.2804871-4.2914124.6116943-1.8479004,1.5028076-2.8912964,3.8769226-2.8614807,6.5120239.0080872.6971741.093689,1.3897095.2562866,2.059082.3312988,1.3725281.9281006,2.74823,1.9332886,4.4599915.6094971,1.0444946,1.281311,2.0658264,1.9957275,3.0377197,2.4363708,3.3091125,5.3544922,6.0179749,8.6725769,8.0518188,1.8515015,1.1333618,3.6751099,2.0001831,5.4201202,2.5749817l.4721832.1568909c1.4888.4974976,2.9132233.9742126,4.4921112.9742126.4663849,0,.9453888-.0415039,1.4438934-.1362,2.7411957-.5206299,5.0093842-2.2149048,5.9199066-4.4241028.3406982-.8298035.4374847-1.6482239.2804871-2.3661194h0Z"/>
    </g>
  </g>
</svg>