<?xml version="1.0" encoding="UTF-8"?>
<svg xmlns="http://www.w3.org/2000/svg" version="1.1" viewBox="0 0 96.3779541 79.3979047">
  <!-- Generator: Adobe Illustrator 28.7.4, SVG Export Plug-In . SVG Version: 1.2.0 Build 166)  -->
  <g>
    <g id="Ebene_1">
      <g id="Ebene_1-2">
        <path d="M85.2198906,60.4856386l10.8929977-38.4823952c.5896454-2.0482559.1862106-4.2206516-1.1172333-5.9275303-1.3034286-1.7068787-3.2585907-2.6689434-5.3999557-2.6689434H18.8687878l-2.7310085-8.6895742c-.899992-2.824111-3.4758291-4.7171955-6.4551115-4.7171955H2.8551459C1.2724013,0,0,1.2724018,0,2.8551455s1.2724013,2.8551464,2.8551459,2.8551464h6.8275218c.4344797,0,.837925.2793083.9620609.7137852l17.1619081,54.3408737c.7448196,2.3275681,2.1413612,4.2516785,3.9723778,5.6482239-1.986187,1.2103348-3.2896233,3.4137573-3.2896233,6.0827026,0,3.599968,3.1344528,7.1068344,7.0137291,6.858551,4.2206535,0,7.075798-2.9792786,6.9516563-7.6033783-.0310364-1.0861893-.3724136-2.1103287-.8689613-2.9792786h30.7238503c-.6206894,1.0861893-.9930954,2.3585968-.9930954,3.7551346,0,3.599968,3.1344452,7.1068344,7.0137253,6.858551,4.2206497,0,7.0757904-2.9792786,6.9516602-7.6033783-.0931015-2.5137711-1.551712-4.562027-3.7551346-5.6171951,1.7689514-1.4586105,3.1034164-3.3827286,3.7551346-5.6792603,0,0-.0620728.0000229-.0620651.0000153ZM20.6687737,19.1480951h68.9579697c.4344788,0,.7137833.2482738.8068848.4034424.1241379.1551685.2793045.4655113.1551666.8999939l-10.8929977,38.4823952c-.6827545,2.4517059-2.9482498,4.1275558-5.4930496,4.1275558h-35.534153c-2.4827347,0-4.6861649-1.6137772-5.4309845-3.972374l-12.5998802-39.9410019s.0310459-.0000114.031044-.0000114Z"/>
      </g>
    </g>
  </g>
</svg>