<?xml version="1.0" encoding="UTF-8"?>
<svg xmlns="http://www.w3.org/2000/svg" version="1.1" viewBox="0 0 84.0179825 96.3779588">
  <!-- Generator: Adobe Illustrator 28.7.4, SVG Export Plug-In . SVG Version: 1.2.0 Build 166)  -->
  <g>
    <g id="Ebene_1">
      <path d="M41.9303017,96.3779588C16.4589863,96.3779588,0,77.5478578,0,48.405272c0-15.2508316,4.5929241-27.9231358,13.2832413-36.6465416C20.8372326,4.1756783,31.01091,0,41.9303017,0c7.2231026,0,31.6040916,2.2105107,42.0876808,30.6582246l-7.7541428,2.8569565c-8.3981628-22.7902946-26.8085976-25.2509918-34.3335342-25.2509918-16.7575912,0-33.6661072,12.4116287-33.6661072,40.1410713,0,24.8636055,12.585144,39.7084999,33.6661072,39.7084999,16.4718933,0,29.8737793-9.5393372,29.8737793-21.2657776,0-5.8091469-3.5671616-9.9912834-7.174675-12.7352524-1.0023575,8.3868675-6.7211151,15.5696182-14.8610229,18.3377991-2.2887955.7796097-4.6921921,1.1766815-7.1391678,1.1766815l-.2865028-.0096817-3.3137474-.2421188c-10.7071381-1.5317841-16.8730011-8.3352127-16.0925846-17.7534943.4140167-4.990799,3.2354641-9.0672112,8.1608944-11.786972,6.5048256-3.5921822,16.4258957-4.4428101,24.9903145-2.5833664-1.5382385-5.9963837-6.9890556-10.4408112-13.4583702-10.4408112-3.9569664,0-7.737999,1.6956139-10.3730202,4.6518402l-6.1690941-5.4992409c4.2023125-4.7131729,10.2309761-7.4167938,16.5421104-7.4167938,12.1218948,0,22.0001907,9.7822571,22.1551437,21.867836,9.8637695,5.3386383,15.2839203,13.2816277,15.2839203,22.4335747,0,16.5590591-16.7527542,29.5299683-38.13797,29.5299683l-.0000114.0000076ZM40.0571365,65.1741624l2.7068481.1888504c1.4906235-.0145264,2.9497681-.2614822,4.3411255-.7360306,5.633213-1.9159393,9.4166641-7.2021179,9.4166641-13.1565361v-1.5721359c-6.9648438-2.0692787-16.218483-1.7077179-21.4296074,1.1702232-3.65271,2.0176239-3.8536644,4.4387779-3.9190369,5.2345276-.5092506,6.141655,4.5146408,8.2173843,8.8840065,8.8711014Z"/>
    </g>
  </g>
</svg>