<?xml version="1.0" encoding="UTF-8"?>
<svg xmlns="http://www.w3.org/2000/svg" version="1.1" viewBox="0 0 58.8874054 56.3139343">
  <!-- Generator: Adobe Illustrator 28.7.4, SVG Export Plug-In . SVG Version: 1.2.0 Build 166)  -->
  <g>
    <g id="Ebene_1">
      <path d="M58.8874054,27.3337402c0-.6396179-.2451172-1.2554016-.6851044-1.719696-3.5341034-3.7310181-22.1302948-22.8483276-22.2148132-22.9321594-1.7359009-1.7358704-4.0575867-2.648468-6.5646973-2.6818848-2.4837952.007019-4.8001709.9590149-6.5926819,2.7514954-.092804.092926-18.5576172,19.0749207-22.1450806,22.8625488-.4399414.4642944-.6850281,1.0794678-.6850281,1.7191772v26.4806824c0,1.3807983,1.1191101,2.5000305,2.5,2.5000305h17.6459961c1.3808289,0,2.5-1.1192322,2.5-2.5000305v-11.5937805c0-3.7480164,3.0492859-6.7967834,6.7976074-6.7967834,3.7484894,0,6.7978058,3.0487671,6.7978058,6.7967834v11.5937805c0,.6665039.266098,1.305603.7393036,1.7749023.468689.4647217,1.1014709.7251282,1.7606812.7251282h.0205078l17.6391907-.1436157c1.3720093-.0112,2.4790039-1.1268921,2.4795074-2.4994812l.0068054-26.3370972h0ZM53.8869019,28.3332214l-.0059052,22.8570862-12.6396027.1031189v-9.0733032c0-6.5048218-5.2924957-11.7965088-11.7977905-11.7965088-6.5050964,0-11.7976074,5.291687-11.7976074,11.7965088v9.093811H5v-22.9807129C9.797821,23.3156128,26.2480164,6.4064941,26.3179016,6.3332214c.0160828-.0151062.1019897-.1005859.1176147-.1162109.7817688-.7817993,1.8476868-1.2140808,3.0009766-1.2170105,1.1876984.0358887,2.2272949.4289246,3.0056,1.2072144.1245117.1270142,16.6269073,17.0874939,21.444809,22.1260071h0Z"/>
    </g>
  </g>
</svg>