<?xml version="1.0" encoding="UTF-8"?>
<svg id="Ebene" xmlns="http://www.w3.org/2000/svg" version="1.1" viewBox="0 0 449.9 450">
  <!-- Generator: Adobe Illustrator 29.1.0, SVG Export Plug-In . SVG Version: 2.1.0 Build 142)  -->
  <path id="headphones" d="M449.9,224.9c-.3,36.1-4.8,71.9-13.6,106.9-.2.8-.1,1.5-.3,2.3-.4,1.7-1,3.3-1.4,4.9-.6,2.5-1.4,4.9-2.1,7.4-2.2,7.9-4.2,15.9-6.8,23.5l-10.9,35.2c-8.3,26.6-32.8,44.7-60.7,44.8-6.3,0-12.5-.9-18.5-2.8l-22.3-6.9c-21.3-6.5-33.3-29-26.8-50.3,0,0,0,0,0,0l34.2-112c6.5-21.3,29.1-33.3,50.4-26.8,0,0,0,0,0,0l21.7,6.7c7.1,2.2,13.7,5.7,19.6,10.2,1.7-14.3,2.6-28.6,2.7-43,0-105.1-85.2-190.4-190.4-190.4S34.6,119.8,34.6,224.9c.1,14.4,1,28.7,2.7,43,5.9-4.5,12.5-8,19.6-10.2l21.7-6.6c21.3-6.5,43.9,5.4,50.5,26.7,0,0,0,0,0,0l34.2,112c6.5,21.3-5.4,43.8-26.7,50.4,0,0,0,0-.1,0l-22.3,6.9c-6,1.8-12.2,2.8-18.5,2.8-27.8,0-52.4-18.2-60.7-44.8l-10.9-35.5c-2.5-7.5-4.6-15.6-6.9-23.6-.6-2.3-1.4-4.6-2.1-7.1-.4-1.7-1-3.2-1.4-4.9-.2-.8-.2-1.5-.3-2.3C4.8,296.8.2,261,0,224.9,0,100.7,100.8,0,225,0c124.2,0,224.9,100.7,224.9,224.9h0Z"/>
</svg>