<?xml version="1.0" encoding="UTF-8"?>
<svg xmlns="http://www.w3.org/2000/svg" version="1.1" viewBox="0 0 84.4049692 75.9106598">
  <defs>
    <style>
      .cls-1, .cls-2 {
        fill: none;
      }

      .cls-2 {
        stroke: #000;
        stroke-width: 5.9449759px;
      }
    </style>
  </defs>
  <!-- Generator: Adobe Illustrator 28.7.4, SVG Export Plug-In . SVG Version: 1.2.0 Build 166)  -->
  <g>
    <g id="Ebene_1">
      <g>
        <path class="cls-2" d="M61.0605249,56.4755096c11.0490952-9.1082115,12.6199265-25.452179,3.5083389-36.5053177-9.1112404-11.0531368-25.4548683-12.6297035-36.5039597-3.5214844s-12.6199303,25.4521713-3.5083466,36.5053177c9.111248,11.0531311,25.4548721,12.6296997,36.5039673,3.5214844Z"/>
        <rect class="cls-1" width="84.4048319" height="75.9106598"/>
        <polygon points="65.7878275 0 9.6792593 46.2525139 7.3049726 43.3723717 .0001388 58.9718628 16.7070684 54.7780228 14.3331213 51.8982162 70.4420252 5.64571 65.7878275 0"/>
        <polygon points="72.7694635 8.4691963 16.6608953 54.7217102 14.2866068 51.841568 6.9814348 67.4413986 23.6887045 63.2472229 21.3147554 60.3674164 77.4233255 14.1149063 72.7694635 8.4691963"/>
        <polygon points="23.6421957 63.1908417 21.2682486 60.3106918 13.9630747 75.9105225 30.6703424 71.7166901 28.2963953 68.8368759 84.4049692 22.5843697 79.7507639 16.9386597 23.6421957 63.1908417"/>
      </g>
    </g>
  </g>
</svg>