<?xml version="1.0" encoding="UTF-8"?>
<svg xmlns="http://www.w3.org/2000/svg" version="1.1" viewBox="0 0 60.2493858 60.2532959">
  <!-- Generator: Adobe Illustrator 28.7.4, SVG Export Plug-In . SVG Version: 1.2.0 Build 166)  -->
  <g>
    <g id="Ebene_1">
      <path d="M55.5763016,45.4421997l-1.6154785-.9742126c-.19841-.1196899-.2642059-.3761902-.1475983-.5764771,1.2272949-2.1141052,2.1655884-4.3828125,2.7885895-6.7437134.0498962-.1901245.2218018-.3161926.4096069-.3161926.0340881,0,.0681915.0040894.1026917.0123901l1.8291016.4530945c.1099854.0275879.2046967.0979919.2626953.1954956.0577087.0977173.0742035.2141113.0451965.3242188-.6878967,2.6213684-1.7267914,5.1365662-3.0890961,7.4757996-.0571899.0979919-.151001.1693726-.2613831.1973877-.0347137.0087891-.0701141.0133972-.1051178.0133972-.0767059,0-.1522827-.0206909-.2192078-.0611877h0ZM3.0757065,47.0664062c-.0533142.2283936.0886841.4562988.3170776.5096741l1.835022.4272156c.0314026.0073242.0639038.0110168.0960999.0110168.0787048,0,.1562805-.0220032.223999-.0644226.0957031-.0594788.1637268-.1542053.1891174-.2637939l.7931824-3.4063721c.0245972-.1059265.0079041-.2169189-.0470886-.3108215-1.2503052-2.1343079-2.2046204-4.4293213-2.835907-6.821106-.0501709-.1901245-.2215881-.3161926-.4100037-.3161926-.0335999,0-.0678101.0040894-.1022034.0123901l-1.8285828.4526062c-.1101074.0275879-.204895.098114-.2630005.1956177-.0578003.0975647-.0741272.2144775-.0455017.3240662.6128845,2.3296204,1.5076904,4.5823059,2.6642151,6.7299194l-.5864258,2.5202026h0ZM5.6698227,30.137085c-.0032043-6.5357056,2.5386658-12.6810913,7.1575928-17.3049927,4.6190186-4.6235962,10.7618103-7.1719055,17.2973022-7.1751099,4.6335754,0,9.1499023,1.3015137,13.059494,3.7640991,11.4156952,7.1903076,14.8534088,22.3265076,7.6640015,33.7421265-4.5090027,7.1581116-12.2563019,11.4313965-20.7245941,11.4313965h-.0021973c-4.6018982,0-9.1028137-1.3029175-13.0161133-3.767395l-9.3514099,2.1772766c-.0324097.0078125-.0646057.0115051-.0968018.0115051-.1113892,0-.219574-.0441895-.3000793-.1242981-.1036987-.104126-.1466064-.2542114-.1132812-.3969116l2.1835632-9.3153992c-2.457489-3.9376831-3.7546692-8.4351807-3.7574768-13.0422974h0ZM46.6573105,52.4837952l1.118988,1.5183105c.0680084.091095.1689148.1520081.2815247.1680908.0197906.0027161.0401917.0045776.0602875.0045776.0921936,0,.1824036-.0303955.2569885-.0865784,2.1499176-1.6339111,4.0720062-3.5505066,5.7129211-5.6962891.0690918-.090332.0988922-.2045288.0833893-.316803-.0161896-.1123962-.076004-.2137146-.1672058-.2817078l-1.5201874-1.1303101c-.0761108-.0560913-.1648102-.0838013-.253006-.0838013-.1277924,0-.253891.0575867-.3374023.166687-1.4798889,1.9354248-3.2136993,3.6679077-5.151886,5.1490173-.1841125.1403809-.2216034.4023132-.0844116.5888062h0ZM36.8543167,57.112915c-.0553131-.2246094.0796814-.4523926.3035126-.5120239,2.3589783-.6242065,4.6243744-1.5619812,6.7331848-2.7879944.0667114-.0387268.1401978-.0576172.2126007-.0576172.1445007,0,.2848816.0737305.3643036.2063293l.9676819,1.614563c.0584259.0976257.0755005.2141418.0473175.3237305-.0286102.1098938-.099411.2037964-.1975098.2609863-2.335495,1.3608093-4.8446045,2.4003906-7.458786,3.0891113-.0355072.0097046-.0716095.0143127-.1081085.0143127-.0755005,0-.1504974-.0202332-.2162933-.0592957-.0977173-.058136-.1681976-.1530457-.1958008-.2635193l-.4521027-1.8285828h0ZM25.8017197,59.8158875c.0679932.0906067.170105.1505127.2828979.1657104,1.3348083.1799927,2.6941833.271698,4.0401001.271698,1.3455048,0,2.7049103-.0917053,4.0400848-.271698.112915-.0151978.2143097-.0751038.2827148-.1657104.0684967-.0911865.0970001-.2058105.079895-.3182068l-.2823944-1.8635864c-.0319061-.2099915-.2123108-.3609924-.4190063-.3609924-.0184021,0-.0375061.0013733-.0565948.0036926-1.205307.1607056-2.4317932.2416992-3.6446991.2416992-1.2134094,0-2.4396057-.0809937-3.6445923-.2416992-.0190125-.0023193-.0377197-.0036926-.056488-.0036926-.2067261,0-.387146.151001-.4189148.3609924l-.2828979,1.8635864c-.0170288.1123962.0117798.2270203.079895.3182068h0ZM12.2262192,55.0346985c-.0531311-.228302.0888062-.4562073.3169861-.509613l3.4424133-.8015137c.0315857-.0073853.0641174-.0110779.0961914-.0110779.0751038,0,.1495056.0202942.21521.0588989,2.1230774,1.25,4.406189,2.2066956,6.7862854,2.8430176.2232971.0592957.3580322.2871704.3022156.5113831l-.4528198,1.8300171c-.0270996.1105042-.0975952.2053528-.1950989.2633667-.0661926.0391235-.1412048.0594177-.2164917.0594177-.036377,0-.0725098-.0046082-.1081848-.0142822-2.3289185-.6128235-4.5818176-1.5072937-6.6963196-2.6592407l-2.5536804.582428c-.0325928.0072937-.0645142.0110779-.0966187.0110779-.1928101,0-.3673706-.1326904-.4125977-.3283081l-.4274902-1.8355713h0ZM1.3629074,57.9890137c.3918152.6316833,1.0056152,1.0731812,1.7278137,1.2421875.2070923.0486755.4205017.0735779.6345825.0735779.2139893,0,.428009-.0249023.6343079-.0735779l5.3761902-1.2335205c.1098938-.0247803.2051086-.092865.2648315-.1882019.0597839-.0952759.0791626-.2108765.053772-.3204041l-.4287109-1.8562622c-.0252686-.1101379-.0933838-.2054138-.1887817-.2647095-.0679016-.0422974-.1459045-.0645142-.2243958-.0645142-.0324097,0-.0646057.0036011-.0965881.0111084l-5.3916016,1.2562866-.0457153-.0578918,1.2552795-5.3823853c.0533447-.2279053-.0881653-.4558105-.3162842-.5092163l-1.8352051-.430481c-.0318909-.0078125-.06427-.0115356-.0968933-.0115356-.0784912,0-.1560974.0221252-.2236938.0641174-.0957031.0592957-.1640015.1542053-.1895142.2641907l-1.255188,5.3814087c-.1694031.7223816-.0466919,1.4677124.3457947,2.099823h0ZM.7553329,25.7215881l1.863678.2826233c.2286987.0344849.3876038.2462769.3570251.4755859-.1615295,1.2066956-.2426147,2.4327087-.2418213,3.6443787-.0007935,1.2113342.0802917,2.4372253.2418213,3.6445312.0305786.2292175-.1283264.4408875-.3570251.4754639l-1.863678.2827148c-.0211182.0032043-.0422363.0050049-.0636292.0050049-.091095,0-.180481-.0293884-.2542114-.0846863-.0911865-.068512-.1509705-.1702881-.1662903-.2831116-.3616028-2.6809082-.3616028-5.3993835,0-8.0797119.0153198-.1128845.0751038-.2145996.1662903-.2831726.0737305-.0552368.1631165-.0848083.2542114-.0848083.0213928,0,.042511.0018921.0636292.005188h0ZM4.4540939,14.7528687c-.0353699,0-.0709839.0043335-.1056824.0134277-.110199.0282898-.2038879.0993042-.2612.1972046-1.3615112,2.3389893-2.4010925,4.8515015-3.0892944,7.4680786-.0286255.1100159-.0122986.2267151.0455017.3246155.0581055.0975952.1528931.1680908.2630005.1952209l1.8285828.4525757c.0343933.0084839.0686035.0126038.1022034.0126038.1884155,0,.3598328-.1260986.4100037-.3163147.6234131-2.361084,1.5614014-4.6296082,2.7882996-6.7422791.1165161-.2008057.0502014-.4579163-.1487122-.5771179l-1.614563-.9676819c-.0665283-.0398254-.1419983-.0603333-.2181396-.0603333h0ZM13.5060959,8.3555908c-1.9371948,1.4801941-3.670105,3.2130127-5.1502991,5.1502991-.0834961.1094055-.2096558.166626-.3372803.166626-.0885925,0-.1773071-.0273132-.2533875-.0840149l-1.5215149-1.133606c-.0906982-.0677795-.151001-.1690979-.1665039-.281311-.0158997-.1120911.0138245-.2259827.0827942-.3162842,1.635498-2.1452026,3.5523071-4.0623169,5.6976929-5.6978149.0744324-.0565796.1650085-.086792.2572021-.086792.0197144,0,.0393066.0014954.0591125.0042114.1123047.015686.213501.0758057.2810059.1665955l1.1340942,1.5213928c.1386108.1863098.1018066.4496155-.0829163.5906982h0ZM22.9515915,1.3060913c-.0270691-.110199-.0977783-.204895-.1950073-.2627869-.0663757-.0393066-.1412659-.0593872-.2167969-.0593872-.0359497,0-.0722656.0045776-.1077576.0137939-2.6173096.6882935-5.1299133,1.7277832-7.4680176,3.089386-.0982056.0570984-.1691895.1511841-.1976013.2609863-.0283203.1098938-.0112.2266235.0469055.3240051l.9677734,1.614624c.0793152.1322937.2200317.2058716.3645325.2058716.0722961,0,.1453857-.0183716.2125854-.0572815,2.1126099-1.2266846,4.381012-2.1650085,6.7425232-2.7882996.223999-.0592346.3591614-.2870178.3035889-.512207l-.4527283-1.8287048h0ZM34.5274124.7550964l-.2823944,1.8638916c-.0319061.2099304-.2123108.3606262-.4190063.3606262-.0184021,0-.0375061-.0010376-.0565948-.0037231-1.204895-.1604004-2.4315033-.2419128-3.6446991-.2419128-1.2138062,0-2.4400024.0815125-3.6445923.2419128-.0190125.0026855-.0377197.0037231-.056488.0037231-.2067261,0-.387146-.1506958-.4189148-.3604126l-.2828979-1.8640137c-.0170288-.1123962.0117798-.2270813.079895-.3179932.0679932-.0911865.170105-.151001.2828979-.1661987,1.3356934-.1798096,2.694397-.2709961,4.0397949-.2709961,1.3453064,0,2.7048035.0911865,4.04039.2709961.112915.0151978.2143097.0750122.2827148.1659851.0684967.0911255.0970001.2058105.079895.3181152h0ZM45.2933121,4.0863953c-2.3407135-1.3623047-4.8556061-2.4015808-7.4757996-3.0888977-.0354004-.0091858-.0718994-.013916-.1076965-.013916-.0756226,0-.1508026.0204163-.2164154.0594177-.0976868.0580139-.1680756.1526184-.1956787.2628784l-.4531097,1.8289185c-.055603.2249146.0796967.4529724.3038177.512207,2.3614655.623291,4.6302795,1.561615,6.7438812,2.7890015.0673065.0389099.1404114.0572815.2127991.0572815.1439972,0,.283905-.0730896.3636017-.2050171l.9740143-1.6159668c.0588837-.0974121.0762024-.214325.0480804-.3244019-.0281067-.1100159-.0995941-.2044067-.1974945-.2615051h0ZM54.1722183,12.173584c-.0160065.1122131-.0760193.2135315-.1665192.281311l-1.5213776,1.133606c-.076416.0567017-.1651154.0840149-.2533112.0840149-.1277924,0-.253891-.0572205-.3374023-.166626-1.4804077-1.9372864-3.2131958-3.670105-5.1506042-5.1502991-.1846008-.1410828-.2213898-.4043884-.0822906-.5906982l1.1332855-1.5213928c.0678101-.0907898.1690216-.1509094.2814178-.1665955.0198975-.0027161.0391998-.0042114.0587921-.0042114.0925903,0,.1828003.0302124.2575073.086792,2.145401,1.6359253,4.0623932,3.5526123,5.6976929,5.6978149.0686035.0903015.0984039.2041931.0828094.3162842h0ZM56.1615067,14.963501c-.0568848-.098114-.1509857-.1689148-.2608795-.1972046-.0347137-.0090942-.0701141-.0134277-.1056213-.0134277-.0762024,0-.1514893.0205078-.2182922.0603333l-1.6144867.9674988c-.1989136.1191711-.2651062.3762817-.148819.5770874,1.2262115,2.1097107,2.1640015,4.375,2.7884064,6.7335205.0498962.1897888.2218018.3158875.4096069.3158875.0340881,0,.0681915-.0040894.1021881-.0126038l1.8288116-.4525757c.1104889-.0273132.2052917-.0976257.263092-.1955261.0581055-.0978088.074295-.2145996.0452118-.324585-.6893158-2.6146851-1.7288971-5.1243286-3.0892181-7.4584045h0ZM59.9778061,34.164093c-.0153961.1128235-.0750885.2145996-.1657867.2831116-.0742035.0552979-.1635132.0846863-.2546997.0846863-.0211029,0-.0422058-.0018005-.0636139-.0050049l-1.8636017-.2827148c-.2287903-.0345764-.3876038-.2462463-.3565979-.4754639.1610107-1.2062378.2421112-2.432312.2411041-3.6438904.0010071-1.2132263-.0800934-2.4393311-.2411041-3.6450195-.0310059-.2293091.1278076-.4411011.3565979-.4755859l1.8636017-.2826233c.0214081-.0032959.042511-.005188.0636139-.005188.0911865,0,.1804962.0295715.2546997.0848083.0906982.068573.1503906.1702881.1657867.2831726.3621063,2.6803284.3621063,5.3988037,0,8.0797119h0Z"/>
    </g>
  </g>
</svg>