<?xml version="1.0" encoding="UTF-8"?>
<svg xmlns="http://www.w3.org/2000/svg" version="1.1" viewBox="0 0 87.315649 90.7086639">
  <defs>
    <style>
      .cls-1 {
        fill: #1a1a18;
      }
    </style>
  </defs>
  <!-- Generator: Adobe Illustrator 28.7.4, SVG Export Plug-In . SVG Version: 1.2.0 Build 166)  -->
  <g>
    <g id="Ebene_1">
      <g>
        <path class="cls-1" d="M41.2930546,16.5840454c-1.5745125-3.0528698-4.0216103-5.7956419-7.3364983-8.2307262-3.314888-2.432683-7.5792885-4.3918037-12.7932034-5.8773732C15.9470329.9903765,9.6610079.1658559,2.305275,0L0,17.0768318c7.5576534.1682663,13.3869495,1.1754704,17.4926987,3.0336361,4.1033421,1.8557568,6.1562176,4.5168018,6.1562176,7.9807262,0,1.8148994-.5913429,3.4663277-1.7716255,4.9494934-1.1826878,1.485569-2.586525,2.930275-4.2163239,4.3317108-1.6298008,1.4038429-3.3196945,2.8894119-5.0720882,4.4543037-1.7499924,1.569706-3.2355614,3.4038315-4.4543056,5.5071869-1.2211466,2.1033516-1.9711428,4.5167999-2.2523918,7.240345-.2836523,2.721138.2211533,5.983139,1.5144157,9.7763901h18.0720215c-.8918209-2.971138-1.0528793-5.4855499-.4855747-7.5480385.5649014-2.0624886,1.5144176-3.9182472,2.8485432-5.5696793,1.3341293-1.6490326,2.9110413-3.2379646,4.7307434-4.7644005s3.5576782-3.2187309,5.2139168-5.0744934c1.6562424-1.8557587,3.0504646-3.9999771,4.1850739-6.4350624,1.1298027-2.4326782,1.6971054-5.3821869,1.6971054-8.8485126,0-3.2980595-.788456-6.473526-2.3653717-9.526392M24.4974709,72.3938522c-2.1033554-2.0600891-4.6898804-3.0937347-7.7619801-3.0937347s-5.6586246,1.0336456-7.7619791,3.0937347c-2.1033554,2.0624924-3.1514263,4.6201706-3.1514263,7.6730347,0,2.9687347,1.0480709,5.4879532,3.1514263,7.5480423,2.1033545,2.0624847,4.6898794,3.0937347,7.7619791,3.0937347s5.6586246-1.03125,7.7619801-3.0937347c2.1009502-2.0600891,3.1538296-4.5793076,3.1538296-7.5480423,0-3.0528641-1.0528793-5.6105423-3.1538296-7.6730347"/>
        <path class="cls-1" d="M87.315649,1.2379732h-22.151329l2.9711456,63.1126509h16.4566422l2.7235413-63.1126509ZM83.9743252,72.3938522c-2.1466293-2.0600891-4.7860336-3.0937347-7.9206314-3.0937347-3.1346054,0-5.7740097,1.0336456-7.9182281,3.0937347-2.1466293,2.0624924-3.2187424,4.6201706-3.2187424,7.6730347,0,2.9687347,1.072113,5.4879532,3.2187424,7.5480423,2.1442184,2.0624847,4.7836227,3.0937347,7.9182281,3.0937347,3.1345978,0,5.7740021-1.03125,7.9206314-3.0937347,2.1442184-2.0600891,3.2163239-4.5793076,3.2163239-7.5480423,0-3.0528641-1.0721054-5.6105423-3.2163239-7.6730347"/>
      </g>
    </g>
  </g>
</svg>