<?xml version="1.0" encoding="UTF-8"?>
<svg xmlns="http://www.w3.org/2000/svg" version="1.1" viewBox="0 0 166.348033 121.4677117">
  <!-- Generator: Adobe Illustrator 28.7.4, SVG Export Plug-In . SVG Version: 1.2.0 Build 166)  -->
  <g>
    <g id="Ebene_1">
      <path d="M15.0177292,115.4677117c1,4.4000015,3.1000004,6,7.6000004,6h120.6000023c4.3999939,0,6.5-1.6999969,7.5-5.9000015,5.1000061-22.5,10.1999969-45.0999985,15.3000031-67.5999985.6999969-2.9000015.3999939-5.5-2-7.4000015s-5-1.7000008-7.6999969-.4000015c-5.5,2.7000008-11,5.4000015-16.5,8-6.6999969,3.2999992-13.5,6.5-20.3000031,9.9000015-.4000015-.7000008-.8000031-1.2999992-1.1999969-2-9.6999969-17.2000008-19.5-34.5-29.1999969-51.7000008-.6999969-1.2-1.5999985-2.4000001-2.5999985-3.2-3.1999969-2.3-7.1999969-1.1-9.4000015,2.7-9.6999969,17.1000004-19.4000015,34.2000008-29.0999985,51.4000015-.5.9000015-1,1.7000008-1.5,2.7000008-12.5-6-24.7000008-11.9000015-36.9000015-17.9000015-2.5-1.2000008-4.9000001-1.2000008-7.0999999.5-2.3,1.7999992-2.9000001,4.2000008-2.3,7,5.0000002,22.7000046,9.8999999,45.2999954,14.8999999,68h-.1000004l-.0000114-.0999985Z"/>
    </g>
  </g>
</svg>