<?xml version="1.0" encoding="UTF-8"?>
<svg xmlns="http://www.w3.org/2000/svg" version="1.1" viewBox="0 0 58.9908094 55.3298645">
  <!-- Generator: Adobe Illustrator 28.7.4, SVG Export Plug-In . SVG Version: 1.2.0 Build 166)  -->
  <g>
    <g id="Ebene_1">
      <path d="M50.7271346,46.4944763s-.407074,3.7098999-.9498901,4.0881958l-.0771027.0184021c-.4184875,0-2.0779877-.8728027-5.2140045-.8728027-.3760834,0-.771698.0126038-1.1902924.0401917-4.1952057.2714233-6.5400085,5.5614014-13.8448029,5.5614014-7.304718,0-8.6122742-4.5827026-12.9730835-5.5614014-.9729004-.2185059-1.8641052-.3013-2.6634216-.3013-2.4563904,0-4.0571899.7797241-4.5941772.7797241-.0690002,0-.1207886-.0126038-.1541138-.042511-.3771973-.32901-.1644897-3.7098999-1.2489014-3.7098999-1.0947876,0-12.2658997-2.6646118-5.8328857-4.0307922,6.433197-1.3662109,11.6069946-9.5910339,11.6069946-11.9945068-.0102844-1.7433167-.7268066-2.4309998-2.6841125-3.2738953-1.9664917-.8430176-3.6236877-1.2304993-4.1951904-1.8504333-1.2282104-1.3339539.4093933-2.5334778,1.6674805-2.5334778.2496338,0,.4830322.0472107.6774292.1495972,1.2684021.6795959,2.3171997.8819885,3.1175842.8819885,1.1983032,0,1.8423157-.4553833,1.8423157-.4553833v-11.7816772c0-3.7582092,4.2434998-11.605896,15.4249878-11.605896,11.0926971,0,15.3166962,7.9050903,15.3166962,11.605896v11.355072s.9303131.8233948,2.5576019.8233948c1.5295105,0,2.4919891-.8360596,3.4972076-.8360596.0700989,0,.1425934.003479.2138062.0126648,1.0844879.1357117,2.7220917,1.512207.2219849,3.041687-2.5081024,1.5318298-5.8902893.7659302-5.8902893,4.4665222,0,3.7110901,5.7453918,9.8141174,11.9369812,11.9945068,6.1905212,2.1803894-6.5688019,4.0307922-6.5688019,4.0307922h0Z"/>
    </g>
  </g>
</svg>