<?xml version="1.0" encoding="UTF-8"?>
<svg id="Ebene" xmlns="http://www.w3.org/2000/svg" version="1.1" viewBox="0 0 656.3 378.8">
  <!-- Generator: Adobe Illustrator 29.1.0, SVG Export Plug-In . SVG Version: 2.1.0 Build 142)  -->
  <polygon points="42.4 0 0 42.4 0 0 42.4 0"/>
  <polygon points="113.4 0 0 113.3 0 70.9 70.9 0 113.4 0"/>
  <polygon points="184.3 0 0 184.3 0 141.8 141.8 0 184.3 0"/>
  <polygon points="255.2 0 0 255.2 0 212.7 212.8 0 255.2 0"/>
  <polygon points="326.1 0 0 326.1 0 283.7 283.7 0 326.1 0"/>
  <polygon points="397 0 18.2 378.8 0 378.8 0 354.6 354.6 0 397 0"/>
  <polygon points="467.9 0 89.1 378.8 46.7 378.8 425.5 0 467.9 0"/>
  <polygon points="538.8 0 160 378.8 117.6 378.8 496.4 0 538.8 0"/>
  <polygon points="609.8 0 230.9 378.8 188.5 378.8 567.3 0 609.8 0"/>
  <polygon points="656.3 0 656.3 24.3 301.8 378.8 259.4 378.8 638.2 0 656.3 0"/>
  <polygon points="656.3 52.8 656.3 95.3 372.8 378.8 330.3 378.8 656.3 52.8"/>
  <polygon points="656.3 123.8 656.3 166.2 443.7 378.8 401.2 378.8 656.3 123.8"/>
  <polygon points="656.3 194.7 656.3 237.1 514.6 378.8 472.2 378.8 656.3 194.7"/>
  <polygon points="656.3 265.6 656.3 308 585.5 378.8 543.1 378.8 656.3 265.6"/>
  <polygon points="656.3 336.5 656.3 378.8 614 378.8 656.3 336.5"/>
</svg>