<?xml version="1.0" encoding="UTF-8"?>
<svg xmlns="http://www.w3.org/2000/svg" version="1.1" viewBox="0 0 84.3537662 78.295673">
  <!-- Generator: Adobe Illustrator 28.7.4, SVG Export Plug-In . SVG Version: 1.2.0 Build 166)  -->
  <g>
    <g id="Ebene_1">
      <path d="M78.549284,72.9463359c.0096893-.135025.031662-.2170792.0187378-.2926636-1.6280594-9.7689972-3.2658081-19.5366974-4.8744812-29.3089218-.0923843-.5581932-.3314285-.647995-.8082199-.6408882-1.3179474.0206718-2.6371918.0419922-3.9538574-.0084-.6137466-.0232544-.9180374.2119064-1.210701.7255211-2.1042023,3.6960793-4.2413483,7.372776-6.3655777,11.0565796-.1162872.2022171-.2080307.4186478-.3688965.7449036.4063644,0,.700325-.0006485.9936295,0,1.7030029.0032272,3.4066467-.0394135,5.1070633.0226135,1.7663116.0639572,2.9020767,1.6590652,2.4498444,3.3278275-.340477,1.2565765-1.3974228,1.9220123-3.0797501,1.9220123-16.1746254.0012894-32.3486099.0012894-48.5225906-.0019379-.3559761-.0006485-.7197056-.0025864-1.0653439-.0730057-1.0640526-.2157822-1.7676067-.8624802-2.0395947-1.9129639-.4515934-1.7417679.7733269-3.2567673,2.6817722-3.2755051,2.9382572-.0297165,5.8765144-.0090408,8.8147717-.0090408h.8521461c-.1796036-.2984772-.379879-.4328613-.5879097-.5530243-2.3516369-1.3580055-4.7045708-2.7140732-7.0568562-4.0707893-2.0848198-1.2016602-2.4123688-2.4420891-1.1997242-4.5501671.6098766-1.0595284,1.2229824-2.1177673,1.8877716-3.2677422-.3514519-.0316582-.5601273-.0671921-.7694511-.0671921-2.6359024-.0038757-5.2724533.0135689-7.9083557-.0148582-.5814495-.0064621-.7817268.1544075-.8799267.7539482-1.3321648,8.1215553-2.6998634,16.2372932-4.055933,24.3556175-.2829714,1.694603-.553668,3.3911438-.8385782,5.1380768h72.7800112ZM74.1858349,21.6993266c-8.9252548-5.1555138-17.8207779-10.292944-26.7776871-15.4665527-7.8650665,13.6259441-15.6881447,27.1788788-23.5189743,40.7447395.1376076.1007881.2196579.1731453.3126888.2267685,4.488142,2.5919724,8.9737034,5.1884651,13.4734745,7.7604103.3113976.1783066.7255173.2454987,1.0924759.246788,5.1057739.0155106,10.2121925.0006485,15.3186073.0245514.5788651.0032349.8734665-.202858,1.1519165-.6874008,3.7975044-6.6123695,7.6150475-13.2124672,11.4274178-19.8164368,2.4944153-4.3221092,4.9875412-8.6442146,7.5200806-13.0328674M.0000029,74.9084025c.3262577-1.7734222.6764193-3.5423203.9742508-5.3202591,1.5873566-9.4711685,3.1611462-18.944912,4.7394581-28.4173698.0633135-.3792305.1272726-.7578201.1925249-1.1364098.3197966-1.8548241,1.184864-2.5919724,3.0849113-2.5952034,4.4487324-.0058136,8.8981133-.0213165,13.3474922.0174446.7345657.0064621,1.110569-.2306404,1.4717121-.8586044,6.660181-11.5850601,13.3462009-23.1558971,20.0270519-34.7293243,1.1758232-2.0370111,2.4401474-2.3710203,4.4946022-1.1855106,10.0984879,5.8293552,20.1963196,11.659996,30.2928619,17.4919319,1.9426956,1.1215515,2.2844543,2.4188309,1.1545029,4.3796062-2.6727295,4.6354446-5.3499756,9.2683029-8.0233536,13.9037476-.1576385.2732849-.299118.5562515-.5258865.9787712,1.4691315,0,2.7761002-.003231,4.0837097.0012932,2.0008316.0064621,2.8329544.6938629,3.1669617,2.6914635,1.7023544,10.1753654,3.3930817,20.3526649,5.088974,30.5293159.2390442,1.4342422.4780807,2.8684845.7274551,4.3014374.3262634,1.8729095-.7849503,3.2541809-2.679184,3.3129654-.2474442.0077591-.4948807.0025864-.7416763.0025864-25.8441277,0-51.6882591-.0084-77.5317459.0193863-1.625473.0012894-2.7676983-.5071564-3.3446255-2.0686722,0,0,0-1.3185959.0000029-1.3185959Z"/>
    </g>
  </g>
</svg>