<?xml version="1.0" encoding="UTF-8"?>
<svg xmlns="http://www.w3.org/2000/svg" version="1.1" viewBox="0 0 96.3779907 83.3463783">
  <!-- Generator: Adobe Illustrator 28.7.4, SVG Export Plug-In . SVG Version: 1.2.0 Build 166)  -->
  <g>
    <g id="Ebene_1">
      <path d="M80.3757324,29.6784668l.0560303-.0280151c4.0916748-2.9706421,6.7820435-7.8189697,6.7820435-13.2557983,0-9.052124-7.3425293-16.3946533-16.3945923-16.3946533-8.2113647,0-14.9934082,6.0534058-16.1984863,13.9564819-1.9337158-.784729-4.0355835-1.2331543-6.2495728-1.2331543-2.3260498,0-4.5400391.5044556-6.5297852,1.37323C40.6923218,6.1655273,33.8822632.0280151,25.6148682.0280151,16.5628052.0280151,9.2202759,7.3706055,9.2202759,16.4226685c0,5.4368286,2.6903687,10.2851562,6.7820435,13.2557983C6.8101196,32.4249268,0,42.2617188,0,50.6411743v9.2762489c0,4.0075684,2.7184448,7.5387573,6.5858765,8.6036987,4.4559937,1.2330933,10.2011108,1.9057007,16.1704712,2.0738525v2.0178223c0,4.0075684,2.7183838,7.5386963,6.5858765,8.6036377,5.1565552,1.4293213,12.0787354,2.1299438,19.0009155,2.1299438s13.8443604-.7006226,19.0009766-2.1299438c3.8674316-1.0649414,6.5858154-4.5960693,6.5858154-8.6036377v-2.0178223c5.8292236-.196167,11.4902954-.8687744,15.8621826-2.0738525,3.8674316-1.0649414,6.5858765-4.5960693,6.5858765-8.6036377v-9.2763062c0-8.3794556-6.8100586-18.2162476-16.0022583-20.9627113ZM70.8192139,5.1846333c6.1934814,0,11.2099609,5.0444946,11.2099609,11.210022,0,6.1654663-5.0444946,11.2099628-11.2099609,11.2099628-2.4101562,0-4.6241455-.784668-6.4458008-2.0738525-.7006226-3.2228394-2.3820801-6.109436-4.6801758-8.2953491,0-.2802734-.0840454-.5605469-.0840454-.8407593,0-6.1935425,5.0444946-11.210022,11.210022-11.2100239ZM37.2452393,27.8568726h.0280151c.3363037-3.0827637,1.9337158-5.7731934,4.2598267-7.5947876,1.9057007-1.4573364,4.2317505-2.3821411,6.8100586-2.3821411,2.4101562,0,4.6241455.784729,6.4457397,2.0738525,2.6343384,1.8776855,4.3999023,4.8483276,4.6801758,8.267395,0,.3082886.0841064.588501.0841064.8687744,0,.392334-.0841064.784668-.1121216,1.177063-.588501,5.6329956-5.3247681,10.0328979-11.0979004,10.0328979h-.0841064c0,.0280762-.0280151.0841064-.0560303.1121216,0-.0560303-.0560303-.0840454-.0840454-.1401367-5.6330566-.1120605-10.2011108-4.3999023-10.8457031-9.8648071-.0560303-.4483643-.1401367-.8687744-.1401367-1.3171387,0-.4204102.0841064-.8407593.1121216-1.2330933ZM14.3768311,16.3946552c0-6.1935425,5.0444946-11.210022,11.210022-11.210022,6.1654663,0,11.2099609,5.0444946,11.2099609,11.210022,0,.392334-.0840454.784668-.1120605,1.177002-2.0458374,2.0738525-3.5592041,4.708252-4.2598267,7.6508808-1.9057007,1.4852905-4.2597656,2.3820801-6.8380737,2.3820801-6.1935425,0-11.210022-5.0444946-11.210022-11.2099628ZM22.7562866,63.3364906v2.0738525c-5.4928589-.1681519-10.7896118-.784668-14.7971802-1.8776855-1.6534424-.4483643-2.8024902-1.9337158-2.8024902-3.6151733v-9.2763062c0-7.3145142,7.4546509-16.5627441,15.8341064-16.5627441h9.2202148c.8968506,0,1.7936401.1400757,2.6624146.3363037,1.1209717,3.2228394,3.1668091,5.9973145,5.8852539,7.9591064-9.1921997,2.7463989-16.0023193,12.5831909-16.0023193,20.9626465ZM68.7733765,65.4383583v7.1744385c0,1.6814575-1.1490479,3.1668091-2.7744751,3.6152344-9.3883667,2.5782471-25.8670654,2.5782471-35.2835083,0-1.6534424-.4484253-2.8024902-1.9337769-2.8024902-3.6152344v-9.2763062c0-7.3145142,7.4546509-16.5627441,15.8341064-16.5627441h9.1922607c8.3794556,0,15.8341064,9.2762451,15.8341064,16.5627441v2.1018677ZM91.2213745,59.9174232c0,1.6815186-1.1489868,3.1668701-2.8024902,3.6152344-3.9235229,1.0930176-9.1080933,1.7095337-14.4888916,1.8776855v-2.0738525c0-8.3794556-6.8101196-18.2162476-16.0023193-20.9627075,2.7184448-1.9897461,4.7922974-4.7922363,5.9133301-8.0431519.7566528-.1681519,1.5413208-.2522583,2.3260498-.2522583h9.2202148c8.3794556,0,15.8341064,9.2763062,15.8341064,16.5628052v9.2762451Z"/>
    </g>
  </g>
</svg>