<?xml version="1.0" encoding="UTF-8"?>
<svg xmlns="http://www.w3.org/2000/svg" version="1.1" viewBox="0 0 42.4392853 60.7295227">
  <!-- Generator: Adobe Illustrator 28.7.4, SVG Export Plug-In . SVG Version: 1.2.0 Build 166)  -->
  <g>
    <g id="Ebene_1">
      <path d="M40.871994,28.9545898c-1.0146942-1.6171875-2.7427979-2.6923828-5.1385803-3.1976929,1.8166809-5.0606079,3.1996765-9.2373962,4.1111908-12.4169922.9385834-3.2792969,1.3945923-5.480011,1.3945923-6.7276001,0-1.6522827-.444397-2.9935913-1.3218994-3.9868164-.8857117-1.0014954-2.0803986-1.5087891-3.5511017-1.5087891-3.0102844,0-6.441391,5.6835938-10.4893951,17.3755188-.4232025,1.2055969-.7739105,2.2016907-1.050705,2.9854126-.342392-1.0127258-.7926025-2.3252258-1.3515015-3.9361267C19.4270935,5.7378235,16.1311951,0,13.3988037,0c-1.5830078,0-2.8549805.5352173-3.780304,1.5913086-.9184875,1.0478821-1.3841858,2.4721985-1.3841858,4.2338867,0,1.2764282.4776001,3.512207,1.4589844,6.8340149.9291992,3.1470032,2.4185181,7.6342773,4.4291992,13.3441772-.5074158-.2651062-.9747009-.4676819-1.3945923-.6053772-.5756836-.1860046-1.1299133-.280304-1.6469116-.280304-1.2178955,0-2.5200806.6776733-3.871582,2.0142212-1.351532,1.336853-2.0371399,2.6751709-2.0371399,3.977478,0,.382782.0982056.9062195.2998352,1.5995789.1773071.6074219.4487915,1.3477173.8069763,2.2022095-2.11026.4941101-3.6893616,1.3916016-4.6966858,2.6708069-1.050293,1.3359985-1.5823975,3.2374268-1.5823975,5.6524048,0,2.1513977.5091858,4.282196,1.5136108,6.3330078,1.0014038,2.0448914,2.5228882,4.0106812,4.5195923,5.8417969,1.7514038,1.6679688,3.8734131,2.9862671,6.3074951,3.9188843,2.4298096.9298096,4.9718018,1.4014282,7.5551147,1.4014282,6.5488739,0,12.0024872-2.2588196,16.2095947-6.7158203,4.2029877-4.4530945,6.3338776-10.2520142,6.3338776-17.234375,0-3.5332031-.5271912-6.1655273-1.5672913-7.8247375h0ZM19.8261108,23.3798828h-.0006104c-.5032959-.026886-.8387146-.0409851-1.0057983-.0409851-.5605164,0-.9966125.0664062-1.3320923.2035828-.2094116.085022-.3911133.2080078-.5447998.3662109-1.8424072-4.8832703-3.2495117-8.9007874-4.1835938-11.9458008-.9547119-3.1069031-1.4389343-5.3114929-1.4389343-6.5516663,0-.6832275.1631165-1.2310181.4848022-1.6280212.3134155-.3857117.7129211-.5737,1.2207031-.5737.6528931,0,1.2807007.4707031,1.8666992,1.3978882.6230164.9898071,1.5204163,3.1387329,2.6658936,6.3858032l4.3473206,12.5591125c-.956604-.0912781-1.6390991-.147522-2.0795898-.1724243h0ZM24.4714813,37.9893188c-.6278839.5801086-1.237793,1.2235718-1.8182831,1.9178772-.2012024-.7127991-.4471893-1.4443054-.7339172-2.180603-.2773743-.7089844-.5898743-1.4267883-.9317017-2.1416016.8092194.2695007,1.656311.4854126,2.52742.6426086.8545074.1562195,1.7608032.2695007,2.7021179.335907-.5990143.4286804-1.1839294.906189-1.745636,1.4258118h0ZM19.3041992,43.0116882c-.3423157.3789062-.7037964.5635071-1.105072.5635071-.5727539,0-1.3843079-.4403992-2.4117432-1.3096008-1.0584106-.8963928-2.2015991-2.1629944-3.3993835-3.7713928-1.1463013-1.4737244-2.0712891-2.881897-2.7494202-4.1846008-.6683655-1.282196-1.0073853-2.2471008-1.0073853-2.8687134,0-.5682983.3326111-1.2020874.9889221-1.882782.65271-.6791992,1.2416687-1.023407,1.7507629-1.023407.6543274,0,1.3666992.3348999,2.1178284.9960938.7773743.6831055,1.5829773,1.7153015,2.3959656,3.0697937,1.1192017,1.8311157,2.0664368,3.7188416,2.8153381,5.6114197.9267883,2.3398132,1.1216736,3.2352905,1.1216736,3.5742188,0,.4393921-.1694641.8407898-.5174866,1.2254639h0ZM13.4389038,45.1737976c.6582031,1.1524048.7967834,1.6962891.7967834,1.9502258,0,.2812805-.1786804.5663757-.5312805.8476562-.3734131.2987976-.7846069.4444275-1.2572021.4444275-1.456604,0-3.0904236-1.23349-4.8583984-3.6700134-.6759033-.8934937-1.2203064-1.592804-1.6185913-2.0780945l-.1676025-.2041016-.1870117.1875c-.1947021.1943054-.3334961.430603-.4125977.7012024-.0751953.2578125-.1133118.5527039-.1133118.875,0,1.6885071.9302063,3.4248047,2.7646179,5.1600952,1.8295898,1.7324219,3.6676025,2.6104126,5.4614868,2.6104126,1.1616211,0,2.1768188-.3897095,3.0161133-1.1592102.8486938-.7734985,1.2787781-1.7167969,1.2787781-2.8046875,0-.180603-.0218811-.4219055-.0644836-.7148132-.0238342-.1689758-.0549927-.3417664-.0932007-.5175781.1307983.0331726.2539062.0604858.3700867.0820007.4653931.0888672,1.0615845.1083984,1.5200806-.0752258.1035156-.0419922.2085266-.0957031.313446-.1600952.0112915,2.2177124.375,4.023407,1.0825806,5.3670959.6813965,1.2974243,1.6091156,2.0553284,2.7653961,2.2247314.8332062.1219788.6434021-.9327393.6394958-.9766235-.0242004-.2658081-.1451874-.837677-.6489868-2.3467102-.417099-1.2499695-.628418-2.3309631-.628418-3.2138977,0-1.438385.4959106-2.9910889,1.4754333-4.6141968.9853973-1.6328125,2.3077698-3.0643921,3.9283752-4.2528687.7480164-.5352478,1.8578033-1.0899048,3.2987213-1.647522,1.4059753-.5430298,2.3426971-1.030304,2.8699799-1.4664001.5285187-.4368896-.0856934-1.3940125-.3498993-1.7210999-.280899-.3476868-.6566925-.5244141-1.1172028-.5244141h-1.6962891c-4.6396942,0-8.0346069-.4189758-10.0904083-1.2450867-2.0150146-.8077087-2.9945984-2.0684204-2.9945984-3.8536072,0-.7192078.1782227-1.2269897.5302124-1.5086975.3682861-.2950134,1.0285034-.4447937,1.9609985-.4447937,3.5263062,0,6.9541016.3739929,10.1885834,1.1112976,3.2167969.7333984,5.4038086,1.5664062,6.5058136,2.4804993.5887756.4593811,1.0198822,1.2161865,1.2812958,2.2485046.2698822,1.070282.4065857,2.5332031.4065857,4.3485718,0,5.9521179-1.8100891,10.9727173-5.3804016,14.9237976-3.5632935,3.9424438-8.0491943,5.9415283-13.332901,5.9415283-2.8755798,0-5.5342712-.5841064-7.9023743-1.7354126-2.367218-1.1484985-4.3778076-2.8153687-5.9771118-4.9569702-1.0579834-1.3829041-1.8757935-2.7774048-2.4310913-4.1446533-.5508118-1.3563843-.8301086-2.5995483-.8301086-3.696167,0-1.3466797.3937073-2.5292969,1.1686096-3.514679.7626953-.969696,1.5975647-1.4610291,2.481781-1.4610291.2602234,0,.7495117.1582031,1.5996094.9122009.7164001.6357117,1.6323853,1.6629944,2.7230835,3.0537109.9546204,1.2001953,1.7135315,2.289978,2.2555237,3.2381897h0ZM27.5385132,24.1358032l4.0458984-11.694397c.957901-2.8158875,1.8412018-4.8807983,2.6254883-6.137207.75-1.2020874,1.4751129-1.8120117,2.1562958-1.8120117.5332031,0,.9380035.1865234,1.2378082.5703125.3095093.3959961.4662933.9732056.4662933,1.7149048,0,.7162781-.5177002,2.7177124-1.5395966,5.9487-1.0171051,3.2128906-2.4477081,7.3295898-4.2525024,12.2367859l-4.7396851-.8270874h0Z"/>
    </g>
  </g>
</svg>