<?xml version="1.0" encoding="UTF-8"?>
<svg xmlns="http://www.w3.org/2000/svg" version="1.1" viewBox="0 0 80.5088871 86.9250614">
  <!-- Generator: Adobe Illustrator 28.7.4, SVG Export Plug-In . SVG Version: 1.2.0 Build 166)  -->
  <g>
    <g id="Ebene_1">
      <g>
        <path d="M40.2138835,74.8188243c-.7007446-2.0681152-3.0094604-8.7087402-3.6584473-10.7915649-.5726929-1.8369141.2532959-3.355957,1.8120728-4.236084-6.6173096,2.2376709-20.2855835,8.0661621-22.5935669,4.3181152,2.8008423,4.5484619,6.229248,2.2069092,7.1882324,5.0359497,1.1541138,3.4022827,3.6630859,10.7970581,4.515625,13.3143921.8530273,2.5122681,3.0174561,4.9345703,4.7495728,4.3873901,1.7240601-.5476685,7.6075439-2.4067383,9.8573608-3.1230469,2.2494507-.7112427,2.9127197-2.7023926,2.3566895-4.3486938-.6014404-1.7741089-3.522583-2.4841309-4.2275391-4.5564575Z"/>
        <path d="M71.3053409,59.8694149c-1.3791809.4714966-9.0195541-7.5718155-13.8035736-21.9015656-4.7835884-14.3251152-4.0264893-26.9753704-2.6485748-27.447298,1.3787613-.4702396,8.688118,9.0818062,13.4729691,23.4069233,4.7840118,14.3297462,4.3570938,25.4716949,2.9791794,25.9419403M75.9194308,30.9899364C69.759595,12.5563064,58.7913638-1.9202427,52.5798007.2080493c-10.5472069,3.6100893,4.3457336,25.5314255-47.4506502,43.2630577-4.4744444,1.5331192-6.0891666,8.8016739-4.5766516,13.317337,1.5074644,4.5190353,7.1469994,9.3085175,11.6205978,7.7741318.7764492-.2607803,3.6008415-.9943237,3.6008415-.9943237,2.8008366,4.5484695,22.3427811-5.0119858,25.6950417-5.1352234,23.0729561-.8824387,26.3272133,14.1139755,34.354969,11.3636093,6.2102966-2.1287003,6.2506714-20.3730659.0954819-38.8067017"/>
      </g>
    </g>
  </g>
</svg>