<?xml version="1.0" encoding="UTF-8"?>
<svg xmlns="http://www.w3.org/2000/svg" version="1.1" viewBox="0 0 79.7184593 90.7086638">
  <defs>
    <style>
      .cls-1 {
        fill: #1a1a18;
      }
    </style>
  </defs>
  <!-- Generator: Adobe Illustrator 28.7.4, SVG Export Plug-In . SVG Version: 1.2.0 Build 166)  -->
  <g>
    <g id="Ebene_1">
      <g>
        <path class="cls-1" d="M60.9370365,39.1503371c.0475311-11.1832771-8.9889488-20.3102627-20.1741753-20.3753757-11.2262497-.0657635-20.409235,8.9908962-20.4658833,20.1839428-.0573006,11.290062,8.9733181,20.4053268,20.2692394,20.460022,11.2119293.0546989,20.323288-9.0110817,20.3708191-20.268589M37.471365,88.5644682c.0605545-1.851181.0175781-3.7056198.0175781-5.6648941h-2.9600677c-1.534729,0-3.069458.0130234-4.604187-.0045547-1.2117653-.0136719-1.7971382-.5990448-1.8186264-1.7945328-.0156288-.8855438-.0136757-1.7710953,0-2.6559906.0182343-1.2104645.5716972-1.7867203,1.7990913-1.8003922,2.1839104-.0240936,4.3684769-.0078125,6.5523911-.008461.3177567-.0006561.9916801,0,.9916801,0v-10.9951019c-12.7642365-2.526413-21.0564651-9.8009109-23.0593624-22.8262558-1.6532345-10.7535286,2.2574921-19.7405205,11.4639187-25.7016773,10.4663734-6.7770319,21.0382309-6.1239424,31.1256447.8959637,3.8977051-3.8937969,7.8110428-7.8032255,11.7751617-11.7634363-.9376373,0-1.8967667.0013018-2.8558884,0-1.121254-.0019569-2.2438202.0195341-3.3637695-.0156279-.4499435-.014327-1.5568695-.4538374-1.5379868-1.4806871.0234375-1.2410707.0234375-2.7028699.0234375-3.3012691C61.02038.4643382,62.0328999.000079,62.6358509.000079h15.2170715c1.4631042,0,1.8694153,1.3725977,1.865509,2.0068045-.0279999,4.9291115-.0091171,9.8575611-.015625,14.7866688-.0019531,1.4494286-.534584,1.9703407-1.9762039,1.9788055-.8262939.0045547-1.6525879.0136719-2.4788818-.0026073-1.1954803-.0227871-1.7782516-.6101131-1.7867203-1.8225307-.0136719-2.0009422-.0039062-4.0012379-.0039062-5.8719511-3.8690567,3.8697023-7.7745743,7.7745714-11.7679901,11.7686472-.0032654-.0045605.1256638.2148762.2754288.419981,11.3037338,15.506176,3.3514023,36.854351-14.6154213,41.5321236-.9187584.2389603-3.6287842.8308487-3.6287842.8308487l.0234375,11.0061646s5.230587-.0052109,7.355896.0052109c1.5223579.007164,2.0068016.5013733,2.0152664,2.0191727.0045586.7963409.0104218,1.5939865-.0019531,2.3903275-.0188828,1.2723236-.5736504,1.8407593-1.8394623,1.8479233-2.2425156.0130234-4.4856796.0026093-6.7288475.0058594-.2324562,0-.4642639.0234451-.8113174.0423279,0,1.9065247-.0325584,3.7863617.0136719,5.6648865.0227928.9506607-.4831429,2.0999222-1.573143,2.0999222h-3.1235046c-.8783836,0-1.61026-1.187027-1.5790062-2.1441956"/>
        <path class="cls-1" d="M21.0334778,16.7766856c1.200695-1.2046013,2.4111614-2.4007397,3.6046925-3.612505.6732788-.6843472.5690956-1.3836651-.3203583-2.2933064-.5567207-.5697451-1.1232109-1.130374-1.6890488-1.6916533-1.0776329-1.0678644-1.6870975-1.1577215-2.5088291-.3464031-1.1466522,1.1323261-3.9478436,3.9406824-3.9478436,3.9406824M17.7139835,11.2348584c-1.1707458,1.1720495-7.8012714,7.779788-8.9557381,8.9681101-.6485329.6680679-.5378399,1.3725986.3079872,2.237957.6185799.6329041,1.2443237,1.2599525,1.8785305,1.8778801.8568954.8341045,1.5848675.9337292,2.2438183.2936649.8354092-.810667,1.6493301-1.6428204,2.4723644-2.4658566.517004-.5163517,6.482069-6.4814186,7.0355358-7.0355358"/>
        <path class="cls-1" d="M24.5413494,19.0320929c-.2051086.1497631-.4245415.2786884-.4199829.2754345-3.9940739-3.9940758-9.177124-9.1771259-13.0468292-13.0461769,1.8707161,0,3.8716583.0097666,5.8726025-.0039053,1.2124176-.0084648,1.7990913-.5912352,1.8225327-1.7867212.0156269-.8262911.0071621-1.6525822.0026035-2.4788828-.0091152-1.4416103-.5300236-1.9735899-1.9788036-1.9755473C11.8643646.0091303,6.9352589.0286635,2.0068026.0000194,1.3719444-.0032393,0,.4030655,0,1.866176v15.2164159c0,.6029549.4642591,1.6154728,1.4474773,1.6154728.5983934,0,2.0601959,0,3.3006115.0234375,1.0274954.0188828,1.4670124-1.0873966,1.4813375-1.5373344.035161-1.1206074.0136738-2.243166.0149755-3.3644238.0013027-.9591236.0006514-1.9182491.0006514-2.8558874,3.9602156,3.9641256,9.147172,9.1556387,13.0416212,13.0533457"/>
      </g>
    </g>
  </g>
</svg>