<?xml version="1.0" encoding="UTF-8"?>
<svg xmlns="http://www.w3.org/2000/svg" version="1.1" viewBox="0 0 49.3598957 90.7104793">
  <defs>
    <style>
      .cls-1 {
        fill: #1a1a18;
      }
    </style>
  </defs>
  <!-- Generator: Adobe Illustrator 28.7.4, SVG Export Plug-In . SVG Version: 1.2.0 Build 166)  -->
  <g>
    <g id="Ebene_1">
      <path class="cls-1" d="M49.3598957,86.1246486c-3.3871613-6.1132355-5.9425125-12.5860672-7.664238-19.4185028-1.7235489-6.8324356-2.5844116-14.0535316-2.5844116-21.6651039,0-7.4917068.8608627-14.6383362,2.5825958-21.4417171,1.7217255-6.8015575,4.1880875-13.1399975,7.3954468-19.0134888L38.9314404,0c-4.8546219,7.551641-8.316246,15.1486812-10.383049,22.7893138-2.0686188,7.6424484-3.1020203,15.2086143-3.1020203,22.7003212,0,7.6115761,1.0188751,15.1486855,3.0566177,22.6095161,2.0359268,7.4626389,5.483017,14.9979324,10.3376427,22.6113281l10.5192642-4.5858307ZM15.9913883,31.5033031c-.44133-1.0170593-1.0443001-1.9160614-1.805275-2.6970139-.7646103-.7773247-1.6454506-1.3929996-2.6443481-1.8434124-.9988899-.448597-2.0559044-.6738033-3.171032-.6738033-1.1750641,0-2.2611332.2252064-3.2600269.6738033-.9988937.4504128-1.8797379,1.0660877-2.6425304,1.8434124-.7646065.7809525-1.3657589,1.6799545-1.8070889,2.6970139-.4395123,1.0206909-.661087,2.0994911-.661087,3.2364159,0,1.200489.2215748,2.3083534.661087,3.3272247.44133,1.0188713,1.0424824,1.9178772,1.8070889,2.6970139.7627926.7791367,1.6436367,1.3930054,2.6425304,1.8415985.9988937.4504089,2.0849628.6756134,3.2600269.6756134,1.1151276,0,2.172142-.2252045,3.171032-.6756134.9988976-.4485931,1.8797379-1.0624619,2.6443481-1.8415985.7609749-.7791367,1.363945-1.6781425,1.805275-2.6970139.4413261-1.0188713.6610832-2.1267357.6610832-3.3272247,0-1.1369247-.2197571-2.2157249-.6610832-3.2364159M15.9913883,56.3612323c-.44133-1.0479279-1.0443001-1.9614639-1.805275-2.7424126-.7646103-.7773247-1.6454506-1.3930054-2.6443481-1.8434181-.9988899-.4485931-2.0559044-.6737976-3.171032-.6737976-1.1750641,0-2.2611332.2252045-3.2600269.6737976-.9988937.4504128-1.8797379,1.0660934-2.6425304,1.8434181-.7646065.7809486-1.3657589,1.6944847-1.8070889,2.7424126-.4395123,1.0497513-.661087,2.1430855-.661087,3.281826,0,1.1986694.2215748,2.3065338.661087,3.3254089.44133,1.0206833,1.0424824,1.9033432,1.8070889,2.6516037.7627926.7518997,1.6436367,1.3494186,2.6425304,1.7998276.9988937.4485931,2.0849628.6737976,3.2600269.6737976,1.1151276,0,2.172142-.2252045,3.171032-.6737976.9988976-.4504089,1.8797379-1.0479279,2.6443481-1.7998276.7609749-.7482605,1.363945-1.6309204,1.805275-2.6516037.4413261-1.0188751.6610832-2.1267395.6610832-3.3254089,0-1.1387405-.2197571-2.2320747-.6610832-3.281826"/>
    </g>
  </g>
</svg>