<?xml version="1.0" encoding="UTF-8"?>
<svg xmlns="http://www.w3.org/2000/svg" version="1.1" viewBox="0 0 61.4446379 45.0000457">
  <!-- Generator: Adobe Illustrator 28.7.4, SVG Export Plug-In . SVG Version: 1.2.0 Build 166)  -->
  <g>
    <g id="Ebene_1">
      <path d="M61.4446155,31.4960009c.0126801,7.1758118-5.376709,13.4258118-12.0377045,13.4375l-37.3226013.0665283C5.4240925,45.0117175.0128071,38.7811877.0000202,31.6015002c-.0108948-6.4804993,4.3851013-10.6014709,10.1438904-11.5897827-.0747986-.4571228-.1148987-.9258118-.1158142-1.406311-.0082092-4.5469055,3.4072266-9.5,7.6271057-9.5078125,1.883728-.0038757,3.6115112.726593,4.9432983,1.9453125C24.9630024,5.2772815,27.9933979.0155932,36.5308124.0000293c10.3509979-.0196228,15.2715912,9.8358765,15.2879944,18.9100647,0,.3789062-.0128021.7578125-.0346985,1.125,5.5016022,1.2030945,9.6494904,5.1758118,9.6605072,11.460907h0Z"/>
    </g>
  </g>
</svg>