<?xml version="1.0" encoding="UTF-8"?>
<svg xmlns="http://www.w3.org/2000/svg" version="1.1" viewBox="0 0 59.1744995 46.9773451">
  <!-- Generator: Adobe Illustrator 28.7.4, SVG Export Plug-In . SVG Version: 1.2.0 Build 166)  -->
  <g>
    <g id="Ebene_1">
      <path d="M59.1744995,22.897092c-.1197052-1.093689-.2366028-3.0975952-.5726929-5.0625-1.0751953-6.2890015-3.7567902-11.8320007-7.9167023-16.6678772-1.1408997-1.3243103-2.7451019-1.5508118-3.9710846-.5274048-1.5488129,1.2929688-1.7255096,2.8476868-.5081177,4.328064.5865173.7110291,1.186203,1.4179993,1.71521,2.1719055,4.3025055,6.140625,6.0205078,12.9335938,5.0823822,20.3789062-.392395,3.117218-1.3125,6.0780945-2.6888885,8.8984985-1.008606,2.0703125-2.3080139,3.9414062-3.7164917,5.7539062-1.1253204,1.4491882-.832901,3.0039062.7127991,4.2225952,1.2174835.9530945,2.8036957.726593,3.8744965-.5820007,5.2420044-6.3984985,7.8506012-13.75,7.98909-22.914093h0ZM46.1304016,23.7134983c-.020401-4.953125-1.5942841-9.4179077-4.6921082-13.3475952-.8722839-1.109436-2.2155762-1.453186-3.3930817-.8633118-1.3610077.6758118-2.1504211,2.1094055-1.7415161,3.4100952.1951141.617218.6234131,1.179718,1.0064087,1.726593,2.7965851,3.9804993,3.5878906,8.3399048,2.4570923,13.054718-.4866791,2.0312195-1.4833832,3.8163757-2.6387939,5.539093-.9129791,1.3592834-.4220886,3.0116882,1.0937958,4.0350952,1.2180176.8242188,2.8171082.5195312,3.7261047-.7304993,2.7675018-3.8085022,4.1755981-8.0625,4.1820984-12.8241882h0ZM29.5828247,9.9909031c0-1.3867188.0538635-2.7774048-.0253296-4.156311-.0346069-.6054077-.2096863-1.2850952-.5524902-1.7655945-.9667053-1.3594055-2.6582031-1.4414062-4.0469055-.2929993-4.6846008,3.8749695-9.3622131,7.7617188-14.0563965,11.625-.2391968.1991882-.6086731.328186-.9195862.3320923-2.1937256.0272827-4.3893127.0625-6.5815125,0-1.6908875-.0508118-2.8729858.5390015-3.4006042,2.2070007v11.7851257c.605011,1.65625,1.8342285,2.1757812,3.5270996,2.109375,2.1522217-.085907,4.3103027-.0312195,6.4657288-.0078125.2954712.0039062.6425781.1289062.8735962.3125305,1.1751709.9335938,2.3195801,1.9023743,3.4754028,2.8594055,3.5560608,2.9491882,7.1137695,5.8944702,10.667572,8.8436584.6329041.5234985,1.3308105.843811,2.1698914.7383118,1.5103149-.1914062,2.4023132-1.3085938,2.4027405-3.007782.0016479-10.5273132.0007935-21.054718.0007935-31.5820007h0Z"/>
    </g>
  </g>
</svg>