<?xml version="1.0" encoding="UTF-8"?>
<svg xmlns="http://www.w3.org/2000/svg" version="1.1" viewBox="0 0 52.8672047 67.5338135">
  <!-- Generator: Adobe Illustrator 28.7.4, SVG Export Plug-In . SVG Version: 1.2.0 Build 166)  -->
  <g>
    <g id="Ebene_1">
      <path d="M0,41.02948c0,14.6152039,11.861084,26.5043335,26.4333801,26.5043335,14.4911957,0,26.3522186-11.8891296,26.4335175-26.5043335.0628967-10.9953918-9.5558014-21.6929016-9.9611206-22.144104-.0992889-.1086121-.2339935-.171875-.3782806-.171875l-.1531067.0181885c-.1528931.0539856-.2700043.162384-.3330994.3069153-.0181122.0450745-.0452118.2979736-.0900879.568573-.0811157.5147095-.2792053,1.4806213-.8107147,2.7625122-.6932983,1.6881104-2.1345062,4.134613-2.1345062,4.134613,0,0,.405304-5.8678284-3.3863068-13.1620178C30.3151855,3.1412964,22.0383911.1442871,21.6779785.0270996l-.1620789-.0270996c-.1169128,0-.2250061.0450745-.3153381.1171875-.1441956.1083984-.2159729.2799072-.197876.4513245.0087891.0631714.5310974,6.256073-2.395874,11.6454773-1.2426147,2.2929077-3.5846252,4.4502869-6.2952271,6.9419861C6.8265991,24.2294006,0,30.5303955,0,41.02948"/>
    </g>
  </g>
</svg>