<?xml version="1.0" encoding="UTF-8"?>
<svg xmlns="http://www.w3.org/2000/svg" version="1.1" viewBox="0 0 77.500062 90.7086639">
  <defs>
    <style>
      .cls-1 {
        fill: #1a1a18;
      }
    </style>
  </defs>
  <!-- Generator: Adobe Illustrator 28.7.4, SVG Export Plug-In . SVG Version: 1.2.0 Build 166)  -->
  <g>
    <g id="Ebene_1">
      <path class="cls-1" d="M77.500062,25.9708328l-12.790947-4.6517258,12.790947-4.7796345-6.7113342-11.7598333-10.3841553,8.9171095,2.4041748-13.6967487h-13.5479584l2.5320854,13.6967487-10.3841553-8.9171095-6.7113304,11.7598333,12.7909393,4.7796345-12.7909393,4.6517258,6.5860329,11.7598381,10.3841515-8.7865982-2.4067841,13.5662308h13.5479584l-2.4041748-13.5662308,10.2562485,8.914505,6.839241-11.8877449ZM22.98454,38.1170044c-.6343269-1.4618187-1.5009804-2.7539635-2.5947342-3.8764343-1.0989761-1.1172523-2.3650188-2.0021744-3.8007374-2.646946-1.4357166-.647377-2.9549675-.9710655-4.5577507-.9710655-1.6889267,0-3.2499428.3236885-4.6856613.9710655-1.4357185.6447716-2.7017603,1.5296936-3.7981272,2.646946-1.0989771,1.1224709-1.9630175,2.4146156-2.5973444,3.8764343-.6317148,1.4670448-.9501848,3.0176201-.9501848,4.6517334,0,1.7254677.31847,3.3178139.9501848,4.7822418.6343269,1.4644318,1.4983673,2.7565765,2.5973444,3.8764381,1.0963669,1.1198578,2.3624086,2.0021744,3.7981272,2.6469421,1.4357185.647377,2.9967346.9710655,4.6856613.9710655,1.6027832,0,3.1220341-.3236885,4.5577507-.9710655,1.4357185-.6447678,2.7017612-1.5270844,3.8007374-2.6469421,1.0937538-1.1198616,1.9604073-2.4120064,2.5947342-3.8764381.6343231-1.4644279.9501839-3.0567741.9501839-4.7822418,0-1.6341133-.3158607-3.1846886-.9501839-4.6517334M22.98454,73.8454971c-.6343269-1.5061951-1.5009804-2.8218307-2.5947342-3.9416962-1.0989761-1.1172485-2.3650188-2.0021744-3.8007374-2.6495514-1.4357166-.6447678-2.9549675-.9684525-4.5577507-.9684525-1.6889267,0-3.2499428.3236847-4.6856613.9684525-1.4357185.647377-2.7017603,1.5323029-3.7981272,2.6495514-1.0989771,1.1198654-1.9630175,2.4355011-2.5973444,3.9416962-.6317148,1.508812-.9501848,3.0802689-.9501848,4.7169876,0,1.7228622.31847,3.3178177.9501848,4.7796402.6343269,1.467041,1.4983673,2.7356949,2.5973444,3.8111801,1.0963669,1.0807037,2.3624086,1.9395218,3.7981272,2.5868988,1.4357185.6447678,2.9967346.9684601,4.6856613.9684601,1.6027832,0,3.1220341-.3236923,4.5577507-.9684601,1.4357185-.647377,2.7017612-1.5061951,3.8007374-2.5868988,1.0937538-1.0754852,1.9604073-2.3441391,2.5947342-3.8111801.6343231-1.4618225.9501839-3.056778.9501839-4.7796402,0-1.6367188-.3158607-3.2081757-.9501839-4.7169876"/>
    </g>
  </g>
</svg>