<?xml version="1.0" encoding="UTF-8"?>
<svg xmlns="http://www.w3.org/2000/svg" version="1.1" viewBox="0 0 62.9709936 62.8905945">
  <!-- Generator: Adobe Illustrator 28.7.4, SVG Export Plug-In . SVG Version: 1.2.0 Build 166)  -->
  <g>
    <g id="Ebene_1">
      <path d="M62.9709934,31.4443665c.0007935,7.151825-2.389801,13.926239-6.7597961,19.4500122-.0023041.0028992-.0008087.0073242-.003418.0101929l-.026886.0303955c-.7539978.9503174-1.548996,1.8745117-2.420105,2.7451172-5.9354858,5.9391174-13.832077,9.2105103-22.2309113,9.2105103h-.0087891c-.0123901,0-.0244751-.0020142-.0365906-.0020142-.0117188,0-.0229187.0018005-.03479.0018005h-.0086365c-8.3986816,0-16.2955933-3.2712708-22.2310791-9.2104797-.8706055-.8702087-1.6651917-1.7937012-2.4194031-2.7436218l-.0275879-.0314941c-.002594-.0030823-.0010986-.0075989-.0037231-.0107117C2.3893131,45.3703918-.0011288,38.5960693.0000004,31.4443054-.0012203,23.0448914,3.2697148,15.1481934,9.208588,9.2111816c3.4736023-3.4754944,7.629303-6.0065918,12.153595-7.5339966.0708313-.0242004.1404114-.052002.2114258-.075592.6220703-.204895,1.2520752-.3819275,1.8873901-.547699.3001099-.0791931.600769-.1557007.9033813-.2260132.5397949-.1235962,1.0812073-.2366943,1.6289062-.3320007.440094-.0776062.8838196-.137085,1.3283081-.1961975.4566956-.0594788.9111938-.1260071,1.372406-.1656799.7865906-.0697021,1.5799866-.1046448,2.3773804-.1158142.1254272-.0013123.2483215-.0181885.3742065-.0181885.0138855,0,.0275879.0016785.0414124.0016785.0127869,0,.0256042-.0014038.0383911-.0014038.1173096,0,.2318115.0157166.3489075.0168152.8071747.0108948,1.6098938.0469055,2.4055023.1172791.4578857.0393066.9087067.1054077,1.3621826.1643372.4481049.0592957.895401.1193848,1.3390198.1975708.5453949.0950012,1.0842743.2075806,1.6220856.3308105.3050842.0708008.6079102.1478882.9101868.2276917.633606.1652222,1.2618256.3419189,1.8819122.5462952.0731812.024292.1451111.0529175.2180939.0780029,4.5223236,1.52771,8.6764984,4.0579834,12.1484222,7.5323181,5.9393768,5.9367981,9.210083,13.8334961,9.2092896,22.2329712h0ZM53.2706913,48.0122986c3.0260925-3.9660034,4.8976898-8.6460266,5.4330902-13.5887146h-8.0137939c-.218689,3.8602905-.8554993,7.5625-1.8944092,11.01651,1.59552.7558899,3.0974121,1.6188965,4.4751129,2.5722046h0ZM50.7627873,30.3229065h8.0751038c-.091507-2.2605286-.4740906-4.4751282-1.1027985-6.6121216-.0278931-.0381775-.0726013-.0599976-.0871124-.1073914-.7924957-2.6516113-1.9867859-5.1613159-3.549881-7.4692993-1.4681091,1.0921021-3.0927124,2.0829773-4.8432007,2.9449768.9175873,3.5511169,1.424881,7.3294983,1.5078888,11.2438354h0ZM48.0086979,15.0725708c1.2527924-.6568909,2.4309998-1.3901062,3.5102081-2.1908875-1.1013184-1.1920166-2.3106232-2.286499-3.5983124-3.2598267-1.3124084-.9923706-2.7200012-1.859375-4.1963043-2.6026611.6144104.8153992,1.1965027,1.6836853,1.735611,2.6059875.9694061,1.6572876,1.824585,3.4882812,2.5487976,5.4473877h0ZM44.1774906,16.7583008c-1.3078003-3.6296082-3.0867004-6.6972046-5.1590118-8.8910217-1.1622925-1.236084-2.4034882-2.184906-3.6890869-2.8216858-.5879822-.2903137-1.1891022-.4916992-1.7936096-.6487122v14.4417114l.1029205-.0016174c.556778-.0299988,1.1121979-.0645752,1.6611023-.1174011.2243805-.0210876.4490051-.0408936.6717682-.0656738.7967072-.09021,1.5857239-.2015076,2.3631134-.3396912.0665131-.0117188.1336823-.0207214.2001038-.0328369,1.7965088-.3293762,3.5392914-.78479,5.2156067-1.3675842.1433868-.0494995.2857971-.102478.4270935-.1554871h0ZM33.5682987,22.9475098c-.0108948.0005798-.0214996.0015564-.0325165.0021973v7.3728638h13.1227112c-.0758057-3.3369751-.4886017-6.570282-1.2282104-9.6247864-.0836945.0309143-.1677856.0617981-.2526855.0914917-1.9100952.6629028-3.901825,1.1648254-5.9472961,1.533905-.0873108.0158081-.1763916.026886-.2639923.0422974-.8722229.1514893-1.7533112.2782898-2.6456299.3757935-.253479.0282288-.5097961.0475159-.7648773.071106-.455719.0417175-.9059296.0992126-1.3658295.1268005l-.6216736.0083313h0ZM46.5846867,34.423584h-13.0489044v7.3683167c.032608.0019836.0648041.0047913.0974121.0063782l.556778.0079041c.3944244.0238037.7805328.0722046,1.171524.1064148.2649994.0234985.5303955.0437927.793808.0718994.8214722.086792,1.6334991.1982727,2.4378815.3305664.0905151.0150146.1822205.0262451.2725983.0419006,1.9328003.3306274,3.8177032.778717,5.628006,1.3694153.1632996.0527954.3253021.1091309.4861908.1653137.8622131-2.9770203,1.4021149-6.1574097,1.6047058-9.4681091h0ZM33.6857762,45.9079895l-.1499939-.0022888v12.5932922c.5189056-.1349182,1.0366058-.3016052,1.546402-.5357971,1.7985992-.8291931,3.5619965-2.3180237,5.0992126-4.3041992,1.2791901-1.6488342,2.4067993-3.6306152,3.3589935-5.8962402-.1322021-.0474854-.2657013-.0925598-.4004974-.1366882-1.5946198-.5206909-3.2475128-.9282837-4.9467926-1.223877-.0466156-.0082092-.094223-.0144043-.1411285-.0223999-.7432861-.1264038-1.4969788-.2269897-2.25737-.3099976-.2046967-.0217896-.4108124-.0403137-.6166992-.059082-.4933014-.0460205-.9924011-.0749207-1.4921265-.1027222h0ZM47.3992924,49.3598938c-1.032196,2.4588013-2.2613068,4.6369934-3.6667023,6.506897,2.4582062-1.2380066,4.7085876-2.8301086,6.7049103-4.7603149-.9627075-.6397705-1.9836121-1.2229919-3.038208-1.746582h0ZM27.8886112,57.9632874c.5098572.2342224,1.0273743.4009094,1.5463562.5357971v-12.5935974l-.1441956.0022888c-.5050659.0278931-1.010376.0572205-1.5093689.1037292-.199707.01828-.3997192.0362854-.5982971.0575867-.7672424.0835876-1.5275879.1848145-2.2772217.3125916-.0409851.007019-.082489.0123901-.123291.0194092-1.7009888.2958069-3.3553772.7039185-4.9519043,1.2250977-.134613.0440063-.2681885.0891724-.4003906.1367798.9520874,2.265625,2.079895,4.2473145,3.3590088,5.8961182,1.5370789,1.9862976,3.3003845,3.4749146,5.0993042,4.3041992h0ZM29.3417973,41.7981873c.031189-.0016174.0621948-.0041809.0931702-.0061035v-7.3684998h-13.0489807c.2030029,3.3106995.7426147,6.4909058,1.6045227,9.4680176.1610718-.0562134.3230896-.1124878.4867859-.1654053,1.8111877-.591217,3.697876-1.0396118,5.6322937-1.3702087.084198-.0144043.1694946-.0249023.2536011-.0388794.8110046-.1335144,1.6292725-.2460022,2.4576111-.3332214.2583008-.02771.5187988-.0475159.778595-.0707092.3940125-.0341797.7835999-.0831909,1.1813049-.1071167l.5610962-.0078735h0ZM16.3120121,30.3225708h13.1229553v-7.3726807c-.0123901-.0007019-.0242004-.0018921-.0364685-.0025024l-.6177979-.0083923c-.4572144-.0274048-.9045105-.0847168-1.3572083-.1261292-.2593079-.0238953-.519989-.0434875-.7781067-.0720825-.8866882-.0970154-1.7622986-.223114-2.6294861-.3735046-.0924072-.0163879-.186615-.0278931-.2789001-.0448914-2.0443115-.3688049-4.0351257-.8707886-5.9439087-1.5332031-.085083-.0296936-.16922-.0606995-.2528992-.0915222-.7394104,3.0545349-1.1519165,6.2879333-1.2281799,9.6249084h0ZM29.3279728,18.836792l.1069946.0015869V4.3968811c-.6044617.1570129-1.2055969.3585205-1.7935791.6488037-1.285675.6366882-2.5270996,1.5856018-3.6889038,2.8217163-2.0726013,2.1936951-3.8515015,5.2613831-5.1590881,8.8908997.1412048.0530701.2835083.1060791.427002.1555786,1.6750183.582489,3.4165955,1.0374146,5.2116089,1.3666992.0710754.0130005.14328.0230103.2147827.0354004.7723999.1371155,1.5559998.2474976,2.3474121.3372192.2268982.0252686.4558716.0455627.6843872.0671997.5451965.0521851,1.0963135.0863953,1.6493835.116394h0ZM17.5104984,9.6251831c.5396729-.9223022,1.1218872-1.7908936,1.7363892-2.6059875-1.4766235.7432861-2.8843994,1.6102905-4.1967163,2.6027832-1.2876892.9732971-2.4970703,2.067688-3.5985107,3.2598267,1.0792236.8008728,2.2573242,1.5339661,3.5100403,2.1908569.7241821-1.9592896,1.5796814-3.7901917,2.5487976-5.4474792h0ZM13.7155766,19.0789795c-1.7501831-.8619995-3.375-1.8529968-4.842865-2.9450989-1.5632019,2.3081055-2.7575989,4.8179016-3.5499268,7.4696045-.0144043.0473938-.0592041.0692749-.0870972.1074829-.6289062,2.1369934-1.0112915,4.3514099-1.1029968,6.6117249h8.0753174c.0831604-3.9142151.5905762-7.6925964,1.5075684-11.2437134h0ZM12.2808842,34.4234924H4.267487c.5350037,4.9427185,2.4064026,9.6226807,5.4322205,13.5886841,1.378479-.9532776,2.8799744-1.8162842,4.475708-2.5721741-1.0389404-3.4542236-1.6759338-7.156311-1.8945312-11.01651h0ZM15.5716862,49.3598022c-1.0545959.523468-2.0755005,1.1069031-3.0386047,1.7467957,1.9962158,1.9300842,4.2466125,3.5223999,6.7051086,4.7602844-1.405304-1.8699951-2.634491-4.0481873-3.6665039-6.5070801h0Z"/>
    </g>
  </g>
</svg>