<?xml version="1.0" encoding="UTF-8"?>
<svg xmlns="http://www.w3.org/2000/svg" version="1.1" viewBox="0 0 72.3799973 46.8337205">
  <!-- Generator: Adobe Illustrator 28.7.4, SVG Export Plug-In . SVG Version: 1.2.0 Build 166)  -->
  <g>
    <g id="Ebene_1">
      <path d="M12.3409958,38.5087235c0-2.557003,2.0800018-4.6360016,4.637001-4.6360016,2.5550003,0,4.6350021,2.0789986,4.6350021,4.6360016,0,2.5549965-2.0800018,4.6349983-4.6350021,4.6349983-2.5569992,0-4.637001-2.0800018-4.637001-4.6349983M5.6240005,23.3677209c.1189957-.4790001.0439987-.9749985-.2110062-1.3979988-.2539978-.4220009-.6569977-.7200012-1.135994-.8390007-.9880066-.2449989-1.9920044.3570023-2.239006,1.3440018L.0559998,30.4147217c-.0370026.1450005-.0559998.2970009-.0559998.4519997,0,2.9620018,2.3439941,8.401001,6.1759949,8.401001h2.5130005c.3860016,4.2360001,3.9540024,7.5659981,8.2890015,7.5659981,4.3339996,0,7.901001-3.329998,8.2869987-7.5659981h16.0230026c1.0169983,0,1.843998-.8409996,1.843998-1.875s-.8269997-1.8759995-1.843998-1.8759995h-16.5489998c-1.2060013-3.1160011-4.2260017-5.3349991-7.7610016-5.3349991-3.5600014,0-6.5960007,2.2489967-7.7849998,5.3969994h-3.0170021c-.7459946,0-2.3649979-2.4939995-2.4759979-4.5079994l1.9240036-7.7030029ZM29.6429977,4.5797265c.4039993-.3710022.4300003-.9990005.0579987-1.4020004-.3709984-.4039993-.9979973-.4300003-1.4029999-.0580063l-8.7080002,8.0170059-2.1469994-3.5210037c-.2859993-.4690018-.8950005-.6149979-1.3639984-.3310013-.4690018.2860031-.6170006.8970032-.3320007,1.3650055l2.3530006,3.8590012-3.6060028,3.3189926c-.4039993.3720016-.4300003,1-.0579987,1.4030037.1959991.2129974.4630013.3209991.730999.3209991.2400017,0,.4810028-.0870018.6720009-.2630005l3.3149986-3.052002,1.1910019,1.9560013c.1879997.3069992.5139999.4760017.848999.4760017.1760025,0,.3549995-.0470009.5160027-.1450005.4679985-.2859993.6159973-.8969994.3309975-1.3650017l-1.3979988-2.2929993,9-8.2859955ZM30.9899979,15.3197205c.2099991-.9860001-.420002-1.9559975-1.406002-2.1659966-.9829979-.2070007-1.954998.4199982-2.1660004,1.4059982-.7699966,3.6170006-3.6219978,6.3689995-7.2649994,7.012001-2.3740005.4169998-4.7700005-.1119995-6.7449989-1.4950027-1.9760017-1.3829994-3.2939987-3.4529991-3.7130013-5.8279991-.8649979-4.9019966,2.420002-9.5929985,7.3220024-10.4579964,1.1199989-.197998,2.25-.1860046,3.3540001.038002.9850006.1999969,1.9510002-.4400024,2.1509972-1.4290009.1990013-.989006-.4409981-1.951004-1.428997-2.151001-1.5530014-.3120041-3.1380005-.3310013-4.7100029-.0540009C9.4979973,1.4087212,4.8839951,7.9987252,6.098999,14.8827202c.5879974,3.3360023,2.4399986,6.2420006,5.2139969,8.1850014,2.1550026,1.5089989,4.6680031,2.2960014,7.2450027,2.2960014.7399979,0,1.4860001-.0650024,2.2299995-.1959991,5.1149979-.9020004,9.1199989-4.7680016,10.2019997-9.8480034M59.4139938,38.5087235c0,2.5549965-2.0790024,4.6349983-4.6360016,4.6349983-2.5550003,0-4.6349945-2.0800018-4.6349945-4.6349983,0-2.557003,2.0799942-4.6360016,4.6349945-4.6360016,2.5569992,0,4.6360016,2.0789986,4.6360016,4.6360016M72.3799973,25.4797204c0-.8579979-.5830002-1.5949974-1.4190063-1.7939987l-14.9599991-3.5419998-8.7119942-10.3639984c-.3510017-.4169998-.8640022-.6559982-1.4090004-.6559982h-11.3300018c-1.0159988,0-1.8429985.8259964-1.8429985,1.8430023,0,1.0169983.8269997,1.8439941,1.8429985,1.8439941h10.4710007l7.7449951,9.2140007h-17.0149956v-4.6339989c0-.5440025-.4409981-.9840012-.9839973-.9840012s-.9840012.4399986-.9840012.9840012v5.618c0,.5429993.4410019.9839973.9840012.9839973h21.4869995l12.3069992,2.913002c-.1790009,1.2869987-.5279999,3.0739975-1.015007,4.7789993-.7479935,2.632-1.3829956,3.598999-1.6239929,3.8959999h-3.3580017c-1.189003-3.1489983-4.2249985-5.3989983-7.7860031-5.3989983-4.5899963,0-8.3249969,3.7349968-8.3249969,8.3269997,0,4.5899963,3.7350006,8.3249969,8.3249969,8.3249969,4.3349991,0,7.9029999-3.329998,8.2890015-7.5659981h3.1620026c5.0130005,0,6.151001-13.6500015,6.151001-13.788002"/>
    </g>
  </g>
</svg>