<?xml version="1.0" encoding="UTF-8"?>
<svg xmlns="http://www.w3.org/2000/svg" version="1.1" viewBox="0 0 40.2282145 62.2979481">
  <!-- Generator: Adobe Illustrator 28.7.4, SVG Export Plug-In . SVG Version: 1.2.0 Build 166)  -->
  <g>
    <g id="Ebene_1">
      <path d="M40.2282145.4024669c-.0065002.0624695-.0298004.1249695-.0699005.1796875l-16.6832123,27.1600952,14.8074036-.0233765c.109024,0,.2134094.0350952.2963104.093689.2013092.1445923.2265015.4023743.0559082.570282,0,0-35.5747986,34.1290283-35.4927979,33.914093l8.7213135-28.9570007-11.3967285.0195007c-.0540771,0-.1072083-.0116882-.1575012-.0272827-.2459717-.0782166-.3709106-.3125-.278595-.5196228L12.4792369.3203746c.0661621-.1640015.2459717-.2734375.4490967-.2734375L39.7502177.0000621c.2637024-.0039368.4771118.1796875.4779968.4024048h0Z"/>
    </g>
  </g>
</svg>