<?xml version="1.0" encoding="UTF-8"?>
<svg xmlns="http://www.w3.org/2000/svg" version="1.1" viewBox="0 0 49.322998 62.9414062">
  <!-- Generator: Adobe Illustrator 28.7.4, SVG Export Plug-In . SVG Version: 1.2.0 Build 166)  -->
  <g>
    <g id="Ebene_1">
      <path d="M49.322998,58.2655945c0,2.5782166-2.1034088,4.6758118-4.6884003,4.6758118-21.3925018,0-40.3688812-.0507812-40.3688812-.0507812C1.9325867,62.890625.032196,60.9883118.032196,58.6524048c0-2.3359985,1.9003906-4.2383118,4.2373962-4.2383118l36.7584076-.0039062V3H3v48.5741882c0,.8321228-.671814,1.5-1.5,1.5-.8282166,0-1.5-.6678772-1.5-1.5V1.5C0,.6719055.6717834,0,1.5,0h41.0279999c.8282928,0,1.5.6719055,1.5,1.5v54.4101868c0,.8320007-.6717072,1.5-1.5,1.5l-38.2584076.0039062c-.6828003,0-1.2373962.554718-1.2373962,1.2383118,0,.6836243.5545959,1.2382202,1.2373962,1.2382202.0046997,0,18.9775085.0507812,40.3650055.0507812.9307098,0,1.6884003-.7539062,1.6884003-1.6758118V4.554718c0-.828125.6717834-1.5,1.5-1.5.8282013,0,1.5.671875,1.5,1.5v53.7108765h0ZM12.5700684,15.429718c.4882202,0,1.5203247.2460938,2.159729.6601868l1.3890991-2.3125c-1.1128235-.5859985-2.7210083-1.1679993-3.9829102-1.1679993-2.5080872,0-4.3186951,1.5508118-4.3186951,3.9257812,0,2.726532,1.8787842,3.234314,3.3881836,3.6211243.6996155.1796875,1.913208.2265015,1.913208,1.0780945,0,.820282-.75,1.0508118-1.514801,1.0508118-1.1117859,0-2.075592-.6094055-2.8895874-1.2735291l-1.4591064,2.4493103c1.3218994,1.0780945,2.8878174,1.460907,4.4653931,1.460907,1.2628174,0,2.5741272-.3905945,3.5548096-1.164093.9966125-.7890015,1.2944946-1.921814,1.2944946-3.085907,0-2.0663757-1.1593018-2.6133118-2.7142029-3.125-.3601685-.1171875-1.2048035-.3007812-1.2048035-.3007812-.6874695-.1836243-1.4454041-.3125305-1.4454041-.9960938,0-.6523438.7666321-.8203125,1.3645935-.8203125h0ZM26.3136749,16.7070312c0-1.703125-.7785797-3.8632202-3.7589874-3.8632202h-5.186615v11.7225952h3.3397217v-3.8671875h1.6997986c2.951889,0,3.9060822-1.6953125,3.9060822-3.9921875h0ZM23.158783,16.765625c0,1.4335632-1.0914917,1.3710938-2.1982727,1.3710938h-.258606v-2.7382202h.258606c1.1847839,0,2.1982727,0,2.1982727,1.3671265h0ZM31.9984741,24.6133118h-4.9488831v-11.7227173h4.9488831c3.2572327,0,5.2372284,2.5586243,5.2372284,5.8476868,0,3.2891235-1.9959106,5.8750305-5.2372284,5.8750305h0ZM30.7485046,15.6210938h-.3938141v6.2617188h.3633118c1.8143768,0,3.1728821-1.0664062,3.1728821-3.1953125,0-1.7890015-1.1877899-3.0664062-3.1423798-3.0664062h0Z"/>
    </g>
  </g>
</svg>