<?xml version="1.0" encoding="UTF-8"?>
<svg xmlns="http://www.w3.org/2000/svg" version="1.1" viewBox="0 0 79.1657339 79.1235352">
  <!-- Generator: Adobe Illustrator 28.7.4, SVG Export Plug-In . SVG Version: 1.2.0 Build 166)  -->
  <g>
    <g id="Ebene_1">
      <g>
        <path d="M0,6.6452198c.6340809-1.3185472,1.694808-1.7137823,3.1272154-1.7085505,11.1268425.0379581,22.2530308.0209436,33.3798771.0209436,2.0638695,0,2.9027672.8388958,2.9034195,2.9014587,0,4.609354-.0654373,9.2200165.0268326,13.8274078.04842,2.4224644-1.2518044,3.2103252-3.1475029,3.1789112-4.4287529-.0739403-8.8594666-.0235519-13.2895241-.0235519h-.9828568v1.4716644c0,1.3905258.0176697,2.7817078-.0176697,4.170929-.0058861.248661-.1701336.5980911-.3710232.7191467-1.3794041.8323555-2.7882538,1.6156311-4.2180443,2.4322815v-8.7940216h-1.0031433c-4.4811001,0-8.9628525-.0261765-13.4446068.0150452-1.4258633.0124359-2.4440575-.4606705-2.9629698-1.8309135C.0000038,23.0259705.0000038,6.6452198,0,6.6452198Z"/>
        <path d="M26.5866327,79.1235352c-1.3722038-.5791168-1.8302612-1.618248-1.7353783-3.0781403.22052-3.3830719,1.4219398-6.3414612,3.6101379-8.915741.1321831-.1550827.2159424-.3507385.325222-.5333023,5.9279022,6.3362198,15.7878914,6.2132034,21.474987.0988083,1.176548,1.2151566,2.0834999,2.5978317,2.7679672,4.1323166.7407455,1.6620941,1.1202774,3.4020538,1.2596588,5.2179184.1125488,1.45858-.3605614,2.4996796-1.7340736,3.0781403h-25.9685211Z"/>
        <path d="M58.5833712,79.1235352c.8159943-3.2214432.070015-6.2982788-.9396744-9.3881912,6.5279541,2.8922958,12.306015,1.8839188,17.4473648-3.0486908,1.7523956,1.8309097,2.9498901,3.981163,3.5708771,6.4415741.2185593.867691.3167191,1.7680969.4488983,2.6560745.2231369,1.4978485-.2146301,2.6750488-1.6692886,3.3392334h-18.8581772Z"/>
        <path d="M0,75.2600861c.2067795-.8958206.3716803-1.8040848.6295004-2.6848602.6543665-2.2340088,1.8067045-4.1866379,3.4164457-5.8919144,5.1295767,4.9339218,10.9141722,5.9442673,17.4434385,3.0585098-.9966011,3.0781403-1.7517395,6.156929-.9311638,9.3816452H1.7000437c-.762991-.370369-1.3309813-.9357452-1.7000437-1.7000427v-2.1633377Z"/>
        <path d="M61.7491274,19.8675365v13.8915424c-1.0711975-.6936264-2.0023651-1.5227127-3.0912247-1.94347-1.3172455-.5090942-1.6169434-1.2720871-1.5665512-2.589325.1073151-2.8026505.0327148-5.6124954.0327148-8.4197273v-.9390202h-.9082565c-2.9106255,0-5.8212471.0039291-8.7318649-.0013065-1.9081306-.0039253-2.7908707-.8886261-2.791523-2.7862892-.0019646-4.7644424-.0019646-9.5288811-.0006561-14.2926664.0013084-1.90944.8781548-2.786293,2.7843246-2.786293C55.4613237-.0003271,63.4465532-.0003271,71.4317827.0009813c1.8551254,0,2.749649.8899384,2.7503052,2.7398338.0026169,4.7899599.0026169,9.5799189,0,14.3698797-.0006561,1.8538189-.8879776,2.749649-2.7424545,2.7548809-2.8851013.0071983-5.770195.0019608-8.655304.0019608h-1.035202Z"/>
        <path d="M54.6287737,56.7628632c.2113571-5.5019112,4.6538544-9.776886,9.9614182-9.5864639,5.476387.1963081,9.7572479,4.6617012,9.570755,9.9823532-.1904221,5.4273148-4.6715164,9.7389297-9.9273911,9.5498199-5.498642-.1969681-9.8082962-4.6597443-9.6047821-9.9457092"/>
        <path d="M14.943759,66.6882858c-5.2303486.1825714-9.7664146-4.1074524-9.9712305-9.4320297-.2061262-5.3343964,4.0943689-9.9273911,9.4588614-10.1014519,5.4076824-.1760254,9.8783112,4.0583763,10.0837822,9.5504723.1982727,5.2970963-4.1113815,9.7925873-9.571413,9.9830093"/>
        <path d="M29.8098459,56.9568787c-.0091629-5.4044075,4.3567696-9.7873497,9.752018-9.7906227,5.3566437-.0026207,9.7310791,4.3541527,9.7539787,9.7160301.0229073,5.4142227-4.2965622,9.7827682-9.7173347,9.8266144-5.3703804.0444946-9.7794991-4.3482666-9.788662-9.7520218"/>
        <path d="M36.7183809,42.8065376c-4.1329765.9403267-7.2922554,3.1920013-9.5642166,6.8067169-2.2660713-3.6127548-5.4358177-5.8775139-9.5144825-6.7975502.1465797-3.8843193,4.4948406-7.800045,8.8457203-8.0323448,5.0274963-.2682877,9.4974709,3.2037735,10.2329788,8.0231781"/>
        <path d="M61.5157824,42.8166809c-4.1166153.9409828-7.2680435,3.1972351-9.5275726,6.7975578-2.2693405-3.6238785-5.4495583-5.8892975-9.5485077-6.8067169.569294-4.6132812,5.0157166-8.1697578,9.9646835-8.0316887,4.4581985.1236725,8.8385239,3.9497528,9.1113968,8.0408478"/>
      </g>
    </g>
  </g>
</svg>