<?xml version="1.0" encoding="UTF-8"?>
<svg xmlns="http://www.w3.org/2000/svg" version="1.1" viewBox="0 0 72.3915768 96.3779526">
  <!-- Generator: Adobe Illustrator 28.7.4, SVG Export Plug-In . SVG Version: 1.2.0 Build 166)  -->
  <g>
    <g id="Ebene_1">
      <g id="Ebene_1-2">
        <g>
          <rect x="17.2402115" y="36.0083923" width="37.824667" height=".0864906"/>
          <g>
            <path d="M64.4345531,36.094883h-4.0073395v-12.0796776h0c-.1441498-13.2905293-10.9553146-24.0152054-24.2746735-24.0152054S12.0220146,10.724678,11.8778667,24.0152054h0v12.0796776h-3.9496784c-4.3821239,0-7.9281883,3.5460625-7.9281883,7.9281883v44.4266891c0,4.3821259,3.5460644,7.9281921,7.9281883,7.9281921h56.5351963c4.3821259,0,7.9281921-3.5460587,7.9281921-7.9281921v-44.4266853c0-4.3821259-3.5460587-7.9281883-7.9281921-7.9281883,0,0-.0288391-.0000038-.0288315-.0000038ZM17.2113819,24.2170162h0c.0288296-10.4075489,8.5047874-18.8546753,18.9123344-18.8546753s18.8834991,8.4471254,18.9123306,18.8546753h0v11.8778706H17.2113762s0-11.8778687.0000057-11.8778706ZM67.0004101,87.4118958c0,1.9892502-1.6144714,3.6037216-3.6037216,3.6037216H8.9660664c-1.989254,0-3.6037216-1.6144714-3.6037216-3.6037216v-42.3509407c0-1.9892578,1.6144695-3.6037216,3.6037216-3.6037216h54.4306145c1.9892502,0,3.6037216,1.6144676,3.6037216,3.6037216,0,0,0,42.3509407.0000076,42.3509407Z"/>
            <path d="M35.8354168,52.3548737c-4.0073357.0576591-7.1209526,3.2289391-7.5534058,6.9768066-.2882996,2.7388306.6342545,5.0452042,2.6523399,6.7750015.2306366.2018051.4901047.4036179.7495766.605423.4901047.3459625.605423.6630859.605423,1.1820221v8.3606339c0,.1729813,0,.374794.0288315.54776.144146,1.7874451,2.2198944,3.6037216,4.2091522,3.2865906,2.2487259-.374794,3.6325531-2.0180893,3.6613846-4.2668076v-8.1876602c0-.317131.2306366-.7207413.461277-.9513855.2018089-.2018051.4324455-.4036179.6630821-.605423.2882996-.2306366.5765991-.4901047.8360672-.7495728,2.5658493-2.7676544,2.508194-7.1786156.3459587-9.9462738-1.6721268-2.1334038-3.9208527-3.0847855-6.6885071-3.055954,0,0,.0288239.0288353.02882.0288391Z"/>
          </g>
        </g>
      </g>
    </g>
  </g>
</svg>