<?xml version="1.0" encoding="UTF-8"?>
<svg xmlns="http://www.w3.org/2000/svg" version="1.1" viewBox="0 0 57.192264 57.1887589">
  <!-- Generator: Adobe Illustrator 28.7.4, SVG Export Plug-In . SVG Version: 1.2.0 Build 166)  -->
  <g>
    <g id="Ebene_1">
      <path d="M57.1840131,1.1653519c-.0166931-.6328125-.5293884-1.1445007-1.1652832-1.1602173-11.164093-.203064-23.8963165,5.632843-31.9554901,14.6875305-7.7015991.1445923-15.2007141,3.3007812-20.7219238,8.8241882-.3215942.3164978-.4362183.7891235-.2955933,1.218811.1425171.4335938.5142822.7460938.9622192.8085938l9.1839905,1.3164062-1.133728,1.2694702c-.4216919.4727173-.4003906,1.1875305.0476074,1.6367493l15.3152161,15.3164978c.2310181.2303772.5358887.3475647.843689.3475647.2835083,0,.5670166-.101593.7933044-.3046875l1.269989-1.132782,1.3153076,9.1835938c.0643158.4491882.4174042.7772827.8437042.9179993.1092072.0389709.2241211.0546875.3401947.0546875.3386993,0,.6843109-.1484985.9229126-.3829041,5.4447937-5.4453125,8.6019897-12.9453125,8.7476807-20.6483765,9.0621185-8.0742188,14.9457245-20.8008118,14.686203-31.953125h0ZM45.0377271,20.5754471c-1.1600037,1.1602173-2.6856079,1.7383118-4.2127991,1.7383118-1.52771,0-3.0526123-.5780945-4.2129974-1.7383118-2.3215179-2.3241882-2.3215179-6.1053772,0-8.4295959,2.3235016-2.3204041,6.10289-2.3204041,8.4257965,0,2.3237,2.3242188,2.3237,6.1054077,0,8.4295959h0ZM6.4916455,40.2825394C3.9418409,42.8293533.4412,54.3489456.0501172,55.6536636c-.1262817.4178772-.0091858.875.2979126,1.1835938.2286682.2304077.531189.3515015.843689.3515015.1146851,0,.2285156-.0195007.3432922-.0508118,1.3031006-.3905945,12.8222046-3.8905945,15.3723145-6.4413757,2.871582-2.8710938,2.871582-7.5429077,0-10.414032-2.8739929-2.8749695-7.5447083-2.8710938-10.4156799,0h0Z"/>
    </g>
  </g>
</svg>