<?xml version="1.0" encoding="UTF-8"?>
<svg id="Ebene" xmlns="http://www.w3.org/2000/svg" version="1.1" viewBox="0 0 311.5 450">
  <!-- Generator: Adobe Illustrator 29.1.0, SVG Export Plug-In . SVG Version: 2.1.0 Build 142)  -->
  <path d="M155.8,311.5c23.8,0,44.2-8.5,61.1-25.4,16.9-16.9,25.4-37.3,25.4-61.1V86.5c0-23.8-8.5-44.2-25.4-61.1C199.9,8.5,179.6,0,155.8,0s-44.2,8.5-61.1,25.4c-16.9,16.9-25.4,37.3-25.4,61.1v138.5c0,23.8,8.5,44.2,25.4,61.1,16.9,16.9,37.3,25.4,61.1,25.4Z"/>
  <path d="M306.4,178.2c-3.4-3.4-7.5-5.1-12.2-5.1s-8.7,1.7-12.2,5.1c-3.4,3.4-5.1,7.5-5.1,12.2v34.6c0,33.4-11.9,61.9-35.6,85.6-23.7,23.7-52.2,35.6-85.6,35.6s-61.9-11.9-85.6-35.6c-23.7-23.7-35.6-52.2-35.6-85.6v-34.6c0-4.7-1.7-8.7-5.1-12.2-3.4-3.4-7.5-5.1-12.2-5.1s-8.7,1.7-12.2,5.1c-3.4,3.4-5.1,7.5-5.1,12.2v34.6c0,39.8,13.3,74.5,39.9,104,26.6,29.5,59.4,46.4,98.6,50.7v35.7h-69.2c-4.7,0-8.7,1.7-12.2,5.1-3.4,3.4-5.1,7.5-5.1,12.2s1.7,8.7,5.1,12.2c3.4,3.4,7.5,5.1,12.2,5.1h173.1c4.7,0,8.7-1.7,12.2-5.1,3.4-3.4,5.1-7.5,5.1-12.2s-1.7-8.7-5.1-12.2c-3.4-3.4-7.5-5.1-12.2-5.1h-69.2v-35.7c39.1-4.3,72-21.2,98.6-50.7,26.6-29.5,39.9-64.1,39.9-104v-34.6c0-4.7-1.7-8.7-5.1-12.2Z"/>
</svg>